# Blender 4.1.1
# www.blender.org
mtllib Enemy.mtl
o ICO球
v 0.000000 -0.000000 0.938482
v -0.324580 0.835712 0.690528
v 0.123976 1.352223 0.690528
v 1.089846 0.515857 0.982789
v 0.123976 -1.352223 0.690528
v -0.324580 -0.329045 0.690528
v -0.123976 1.352223 0.289320
v 0.324580 0.835712 0.289320
v 0.324580 -0.835712 0.289320
v -0.123976 -1.352223 0.289320
v -0.401202 0.000000 0.289322
v 0.000000 0.384427 -0.544159
v 0.072871 0.794811 0.871492
v -0.190782 0.491216 0.871492
v -0.117912 1.286035 0.725748
v -1.161857 0.506667 0.980709
v -0.190782 -0.491216 0.871492
v 0.235820 -0.000000 0.871491
v 0.308693 0.794814 0.725747
v 0.072871 -0.794811 0.871492
v 0.308693 -0.278957 0.725747
v -0.117912 -1.286035 0.725748
v -0.426604 0.491218 0.489924
v -0.426604 -0.491218 0.489924
v 0.093498 2.936570 0.431761
v -0.263656 1.286043 0.489924
v 0.426604 0.491218 0.489924
v 0.263656 1.286043 0.489924
v 0.263656 -1.286043 0.489924
v 0.426604 -0.491218 0.489924
v -0.263656 -1.286043 0.489924
v 0.000000 -1.589637 0.489924
v -0.308693 0.794814 0.254101
v 0.117912 1.286035 0.254100
v 0.381565 0.000000 0.254101
v 0.117912 -1.286035 0.254100
v -0.308693 -0.794814 0.254101
v -0.072871 0.794811 0.108356
v -0.235820 0.000000 0.108358
v 0.190782 0.491216 0.108357
v 0.190782 -0.491216 0.108356
v -0.072871 -0.794811 0.108356
v -0.255634 2.144397 0.360541
v -0.061818 2.111306 0.460843
v -0.252602 2.111303 0.578755
v -0.131658 2.144397 0.561145
v -0.134690 2.111302 0.342931
v -0.325474 2.111306 0.460843
v -0.185257 1.698669 0.652251
v -0.189805 1.748310 0.324930
v 0.100919 1.698675 0.475383
vn 0.1074 -0.0933 -0.9898
vn -0.1049 -0.4941 -0.8630
vn -0.2728 -0.0559 -0.9604
vn -0.2728 0.0559 -0.9604
vn 0.1074 0.0933 -0.9898
vn 0.4576 -0.5447 0.7027
vn -0.1078 -0.1303 -0.9856
vn -0.4368 -0.6515 0.6203
vn -0.8341 0.1609 -0.5277
vn 0.8394 0.1622 -0.5188
vn 0.9683 -0.1985 -0.1516
vn -0.8207 -0.3399 -0.4593
vn -0.5965 -0.0000 0.8026
vn -0.7213 0.6264 -0.2956
vn 0.8174 0.1676 -0.5512
vn 0.5126 -0.2223 0.8294
vn -0.5686 -0.1985 0.7983
vn -0.7246 0.0783 0.6847
vn 0.0554 0.3037 0.9512
vn 0.7370 0.0559 0.6736
vn 0.8858 0.1816 0.4271
vn 0.5227 0.1072 0.8458
vn 0.5126 0.2223 0.8294
vn -0.5077 0.4409 0.7401
vn -0.2253 0.1957 0.9544
vn -0.5686 0.1985 0.7983
vn -0.9598 -0.0000 0.2806
vn -0.6071 -0.0000 0.7947
vn -0.7246 -0.0783 0.6847
vn -0.7174 -0.6230 0.3117
vn -0.2253 -0.1957 0.9544
vn 0.0554 -0.3037 0.9512
vn 0.9535 -0.1955 0.2294
vn 0.5227 -0.1072 0.8458
vn 0.7370 -0.0559 0.6736
vn 0.9334 0.0933 0.3466
vn 0.9544 0.1957 0.2253
vn 0.8260 0.3037 0.4749
vn -0.0582 0.6264 0.7773
vn -0.6842 0.5942 0.4229
vn -0.8031 0.3297 0.4963
vn -0.9365 0.0783 0.3419
vn -0.9822 -0.0000 0.1876
vn -0.9365 -0.0783 0.3419
vn -0.8031 -0.3297 0.4963
vn -0.8109 -0.3021 0.5012
vn 0.1255 -0.0681 0.9898
vn 0.8260 -0.3037 0.4749
vn 0.9544 -0.1957 0.2253
vn 0.9334 -0.0933 0.3466
vn 0.7213 0.6264 0.2956
vn 0.6842 0.5942 -0.4229
vn 0.0582 0.6264 -0.7773
vn -0.9683 0.1985 0.1516
vn -0.8136 0.1668 -0.5569
vn -0.3671 0.5926 -0.7170
vn -0.9683 -0.1985 0.1516
vn -0.9544 -0.1957 -0.2253
vn -0.8260 -0.3037 -0.4749
vn 0.8052 0.0810 0.5874
vn 0.8498 0.0451 -0.5252
vn 0.8031 -0.3297 -0.4963
vn 0.9921 -0.0000 0.1256
vn 0.5552 -0.0000 0.8317
vn 0.3768 0.6173 -0.6907
vn 0.8585 0.1676 -0.4846
vn 0.2253 0.1957 -0.9544
vn -0.0554 0.3037 -0.9512
vn -0.7337 0.1480 -0.6632
vn -0.7375 0.1512 -0.6582
vn -0.1427 0.4288 -0.8921
vn 0.2425 -0.1964 -0.9501
vn -0.5227 -0.1072 -0.8458
vn -0.5126 -0.2223 -0.8294
vn 0.7187 0.6899 0.0869
vn -0.1118 -0.0000 -0.9937
vn 0.3313 -0.0000 -0.9435
vn -0.0554 -0.3037 -0.9512
vn 0.2253 -0.1957 -0.9544
vn 0.5686 -0.1985 -0.7983
vn 0.7756 -0.4107 -0.4794
vn 0.8097 -0.3958 0.4332
vn 0.1064 -0.1354 0.9851
vn -0.0907 -0.1890 -0.9778
vn -0.7935 0.1284 -0.5949
vn -0.8374 0.1758 0.5175
vt 0.065124 0.928969
vt 0.112412 0.871991
vt 0.135321 0.952528
vt 0.172621 0.824772
vt 0.090060 0.809080
vt 0.163344 0.747615
vt 0.464319 0.003882
vt 0.466972 0.083586
vt 0.390934 0.035099
vt 0.003882 0.430560
vt 0.065539 0.369959
vt 0.082639 0.466215
vt 0.018580 0.565621
vt 0.086597 0.518397
vt 0.087154 0.612033
vt 0.224333 0.769497
vt 0.244888 0.899780
vt 0.241082 0.891182
vt 0.255060 0.895980
vt 0.066155 0.040209
vt 0.378054 0.141457
vt 0.326154 0.252160
vt 0.164300 0.489177
vt 0.133512 0.361694
vt 0.233026 0.448581
vt 0.139757 0.669977
vt 0.158900 0.564899
vt 0.224347 0.606267
vt 0.240216 0.841774
vt 0.255904 0.905083
vt 0.260671 0.937157
vt 0.245303 0.345304
vt 0.228506 0.529739
vt 0.214606 0.687428
vt 0.304795 0.872139
vt 0.298535 0.797226
vt 0.375715 0.832738
vt 0.337728 0.996118
vt 0.321092 0.933197
vt 0.391028 0.954216
vt 0.304565 0.420348
vt 0.351004 0.357363
vt 0.379481 0.440907
vt 0.290247 0.572370
vt 0.300120 0.496335
vt 0.368810 0.549215
vt 0.284309 0.724124
vt 0.289583 0.648815
vt 0.360482 0.697301
vt 0.364401 0.605840
vt 0.592279 0.690421
vt 0.377267 0.457298
vt 0.611353 0.513974
vt 0.437205 0.375233
vt 0.591985 0.523930
vt 0.407332 0.303868
vt 0.370870 0.880821
vt 0.552816 0.860770
vt 0.362929 0.742247
vt 0.590362 0.785480
vt 0.269699 0.987016
vt 0.266135 0.895135
vt 0.431612 0.230870
vt 0.469414 0.162656
vt 0.274400 0.879366
vt 0.251673 0.881854
vt 0.222130 0.889553
vt 0.189309 0.897204
vt 0.068035 0.706028
vt 0.003882 0.773619
vt 0.205901 0.960553
vt 0.261399 0.886647
s 0
usemtl マテリアル
f 1/1/1 14/2/1 13/3/1
f 2/4/2 14/5/2 16/6/2
f 1/7/3 13/8/3 18/9/3
f 1/10/4 18/11/4 20/12/4
f 1/13/5 20/14/5 17/15/5
f 2/4/6 16/6/6 23/16/6
f 46/17/7 45/18/7 25/19/7
f 4/20/8 19/21/8 27/22/8
f 5/23/9 21/24/9 29/25/9
f 6/26/10 22/27/10 31/28/10
f 2/4/11 23/16/11 26/29/11
f 46/17/12 44/30/12 51/31/12
f 4/20/13 27/22/13 30/32/13
f 5/23/14 29/25/14 32/33/14
f 6/26/15 31/28/15 24/34/15
f 7/35/16 33/36/16 38/37/16
f 8/38/17 34/39/17 40/40/17
f 9/41/18 35/42/18 41/43/18
f 10/44/19 36/45/19 42/46/19
f 11/47/20 37/48/20 39/49/20
f 39/49/21 42/50/21 12/51/21
f 39/49/22 37/48/22 42/50/22
f 37/48/23 10/44/23 42/50/23
f 42/46/24 41/52/24 12/53/24
f 42/46/25 36/45/25 41/52/25
f 36/45/26 9/41/26 41/52/26
f 41/43/27 40/54/27 12/55/27
f 41/43/28 35/42/28 40/54/28
f 35/42/29 8/56/29 40/54/29
f 40/40/30 38/57/30 12/58/30
f 40/40/31 34/39/31 38/57/31
f 34/39/32 7/35/32 38/57/32
f 38/37/33 39/59/33 12/60/33
f 38/37/34 33/36/34 39/59/34
f 33/36/35 11/47/35 39/59/35
f 24/34/36 37/48/36 11/47/36
f 24/34/37 31/28/37 37/48/37
f 31/28/38 10/44/38 37/48/38
f 32/33/39 36/45/39 10/44/39
f 32/33/40 29/25/40 36/45/40
f 29/25/41 9/41/41 36/45/41
f 30/32/42 35/42/42 9/41/42
f 30/32/43 27/22/43 35/42/43
f 27/22/44 8/56/44 35/42/44
f 28/61/45 34/39/45 8/38/45
f 44/30/46 47/62/46 51/31/46
f 47/62/47 7/35/47 34/39/47
f 26/29/48 33/36/48 7/35/48
f 26/29/49 23/16/49 33/36/49
f 23/16/50 11/47/50 33/36/50
f 31/28/51 32/33/51 10/44/51
f 31/28/52 22/27/52 32/33/52
f 22/27/53 5/23/53 32/33/53
f 29/25/54 30/32/54 9/41/54
f 29/25/55 21/24/55 30/32/55
f 21/24/56 4/20/56 30/32/56
f 27/22/57 28/63/57 8/56/57
f 27/22/58 19/21/58 28/63/58
f 19/21/59 3/64/59 28/63/59
f 26/29/60 50/65/60 48/66/60
f 49/67/61 26/29/61 48/66/61
f 15/68/62 2/4/62 26/29/62
f 23/16/63 24/34/63 11/47/63
f 23/16/64 16/6/64 24/34/64
f 16/6/65 6/26/65 24/34/65
f 17/15/66 22/27/66 6/26/66
f 17/15/67 20/14/67 22/27/67
f 20/14/68 5/23/68 22/27/68
f 20/12/69 21/24/69 5/23/69
f 20/12/70 18/11/70 21/24/70
f 18/11/71 4/20/71 21/24/71
f 18/9/72 19/21/72 4/20/72
f 18/9/73 13/8/73 19/21/73
f 13/8/74 3/64/74 19/21/74
f 16/6/75 17/69/75 6/26/75
f 16/6/76 14/5/76 17/69/76
f 14/5/77 1/70/77 17/69/77
f 13/3/78 15/68/78 3/71/78
f 13/3/79 14/2/79 15/68/79
f 14/2/80 2/4/80 15/68/80
f 45/18/81 48/66/81 25/19/81
f 48/66/82 43/72/82 25/19/82
f 43/72/83 47/62/83 25/19/83
f 51/31/46 34/39/46 28/61/46
f 3/71/12 51/31/12 28/61/12
f 15/68/84 46/17/84 3/71/84
f 46/17/84 49/67/84 45/18/84
f 46/17/85 25/19/85 44/30/85
f 44/30/86 25/19/86 47/62/86
f 47/62/47 50/65/47 7/35/47
f 26/29/60 7/35/60 50/65/60
f 49/67/61 15/68/61 26/29/61
f 45/18/61 49/67/61 48/66/61
f 48/66/60 50/65/60 43/72/60
f 43/72/47 50/65/47 47/62/47
f 51/31/46 47/62/46 34/39/46
f 3/71/12 46/17/12 51/31/12
f 15/68/84 49/67/84 46/17/84
