# Blender 4.1.1
# www.blender.org
mtllib ParticleBall.mtl
o 球
v 0.000000 0.527912 -0.352740
v 0.000000 0.352740 -0.527912
v 0.000000 0.123866 -0.622715
v 0.000000 0.000000 -0.634915
v 0.000000 -0.123866 -0.622715
v 0.000000 -0.352740 -0.527912
v 0.024165 0.622715 -0.121486
v 0.047401 0.586585 -0.238303
v 0.068816 0.527912 -0.345962
v 0.087586 0.448952 -0.440326
v 0.102991 0.352740 -0.517768
v 0.114437 0.242971 -0.575314
v 0.121486 0.123866 -0.610750
v 0.123866 0.000000 -0.622715
v 0.121486 -0.123866 -0.610750
v 0.114437 -0.242971 -0.575314
v 0.102991 -0.352740 -0.517768
v 0.087586 -0.448952 -0.440326
v 0.068816 -0.527912 -0.345962
v 0.047401 -0.586585 -0.238303
v 0.024165 -0.622715 -0.121486
v 0.047401 0.622715 -0.114437
v 0.092981 0.586585 -0.224476
v 0.134988 0.527912 -0.325889
v 0.171807 0.448952 -0.414778
v 0.202023 0.352740 -0.487727
v 0.224476 0.242971 -0.541933
v 0.238303 0.123866 -0.575314
v 0.242971 0.000000 -0.586585
v 0.238303 -0.123866 -0.575314
v 0.224476 -0.242971 -0.541933
v 0.202023 -0.352740 -0.487727
v 0.171807 -0.448952 -0.414778
v 0.134988 -0.527912 -0.325889
v 0.092981 -0.586585 -0.224476
v 0.047401 -0.622715 -0.114437
v 0.068816 0.622715 -0.102991
v 0.134988 0.586585 -0.202023
v 0.195972 0.527912 -0.293292
v 0.249425 0.448952 -0.373290
v 0.293292 0.352740 -0.438943
v 0.325889 0.242971 -0.487727
v 0.345962 0.123866 -0.517768
v 0.352740 0.000000 -0.527912
v 0.345962 -0.123866 -0.517768
v 0.325889 -0.242971 -0.487727
v 0.293292 -0.352740 -0.438943
v 0.249425 -0.448952 -0.373290
v 0.195972 -0.527912 -0.293292
v 0.134988 -0.586585 -0.202023
v 0.068816 -0.622715 -0.102991
v 0.087586 0.622715 -0.087586
v 0.171807 0.586585 -0.171807
v 0.249425 0.527912 -0.249425
v 0.317457 0.448952 -0.317457
v 0.373290 0.352740 -0.373290
v 0.414778 0.242971 -0.414778
v 0.440326 0.123866 -0.440326
v 0.448952 0.000000 -0.448952
v 0.440326 -0.123866 -0.440326
v 0.414778 -0.242971 -0.414778
v 0.373290 -0.352740 -0.373290
v 0.317457 -0.448952 -0.317457
v 0.249425 -0.527912 -0.249425
v 0.171807 -0.586585 -0.171807
v 0.087586 -0.622715 -0.087586
v 0.102991 0.622715 -0.068816
v 0.202023 0.586585 -0.134988
v 0.293292 0.527912 -0.195972
v 0.373290 0.448952 -0.249425
v 0.438943 0.352740 -0.293292
v 0.487727 0.242971 -0.325889
v 0.517768 0.123866 -0.345962
v 0.527912 0.000000 -0.352739
v 0.517768 -0.123866 -0.345962
v 0.487727 -0.242971 -0.325889
v 0.438943 -0.352740 -0.293292
v 0.373290 -0.448952 -0.249425
v 0.293292 -0.527912 -0.195972
v 0.202023 -0.586585 -0.134988
v 0.102991 -0.622715 -0.068816
v 0.000000 0.634915 0.000000
v 0.114437 0.622715 -0.047401
v 0.224476 0.586585 -0.092981
v 0.325889 0.527912 -0.134988
v 0.414778 0.448952 -0.171807
v 0.487727 0.352740 -0.202023
v 0.541933 0.242971 -0.224476
v 0.575313 0.123866 -0.238303
v 0.586585 0.000000 -0.242971
v 0.575313 -0.123866 -0.238303
v 0.541933 -0.242971 -0.224476
v 0.487727 -0.352740 -0.202023
v 0.414778 -0.448952 -0.171807
v 0.325889 -0.527912 -0.134988
v 0.224476 -0.586585 -0.092981
v 0.114437 -0.622715 -0.047401
v 0.121486 0.622715 -0.024165
v 0.238303 0.586585 -0.047401
v 0.345962 0.527912 -0.068816
v 0.440326 0.448952 -0.087586
v 0.517768 0.352740 -0.102990
v 0.575313 0.242971 -0.114437
v 0.610749 0.123866 -0.121486
v 0.622715 0.000000 -0.123866
v 0.610749 -0.123866 -0.121486
v 0.575313 -0.242971 -0.114437
v 0.517768 -0.352740 -0.102990
v 0.440326 -0.448952 -0.087586
v 0.345962 -0.527912 -0.068816
v 0.238303 -0.586585 -0.047401
v 0.121486 -0.622715 -0.024165
v 0.123866 0.622715 0.000000
v 0.242971 0.586585 0.000000
v 0.352740 0.527912 0.000000
v 0.448952 0.448952 -0.000000
v 0.527912 0.352740 0.000000
v 0.586585 0.242971 -0.000000
v 0.622715 0.123866 0.000000
v 0.634914 0.000000 0.000000
v 0.622715 -0.123866 0.000000
v 0.586585 -0.242971 -0.000000
v 0.527912 -0.352740 0.000000
v 0.448952 -0.448952 -0.000000
v 0.352740 -0.527912 0.000000
v 0.242971 -0.586585 0.000000
v 0.123866 -0.622715 0.000000
v 0.121486 0.622715 0.024165
v 0.238303 0.586585 0.047401
v 0.345962 0.527912 0.068816
v 0.440326 0.448952 0.087586
v 0.517768 0.352740 0.102991
v 0.575313 0.242971 0.114437
v 0.610749 0.123866 0.121486
v 0.622715 0.000000 0.123866
v 0.610749 -0.123866 0.121486
v 0.575313 -0.242971 0.114437
v 0.517768 -0.352740 0.102991
v 0.440326 -0.448952 0.087586
v 0.345962 -0.527912 0.068816
v 0.238303 -0.586585 0.047401
v 0.121486 -0.622715 0.024165
v 0.114437 0.622715 0.047401
v 0.224476 0.586585 0.092981
v 0.325889 0.527912 0.134988
v 0.414778 0.448952 0.171807
v 0.487727 0.352740 0.202023
v 0.541933 0.242971 0.224476
v 0.575313 0.123866 0.238303
v 0.586584 0.000000 0.242971
v 0.575313 -0.123866 0.238303
v 0.541933 -0.242971 0.224476
v 0.487727 -0.352740 0.202023
v 0.414778 -0.448952 0.171807
v 0.325889 -0.527912 0.134988
v 0.224476 -0.586585 0.092981
v 0.114437 -0.622715 0.047401
v 0.102991 0.622715 0.068816
v 0.202023 0.586585 0.134988
v 0.293292 0.527912 0.195972
v 0.373290 0.448952 0.249425
v 0.438943 0.352740 0.293292
v 0.487727 0.242971 0.325889
v 0.517768 0.123866 0.345962
v 0.527912 0.000000 0.352740
v 0.517768 -0.123866 0.345962
v 0.487727 -0.242971 0.325889
v 0.438943 -0.352740 0.293292
v 0.373290 -0.448952 0.249425
v 0.293292 -0.527912 0.195972
v 0.202023 -0.586585 0.134988
v 0.102991 -0.622715 0.068816
v 0.087586 0.622715 0.087586
v 0.171807 0.586585 0.171807
v 0.249424 0.527912 0.249425
v 0.317457 0.448952 0.317457
v 0.373290 0.352740 0.373290
v 0.414778 0.242971 0.414778
v 0.440326 0.123866 0.440326
v 0.448952 0.000000 0.448952
v 0.440326 -0.123866 0.440326
v 0.414778 -0.242971 0.414778
v 0.373290 -0.352740 0.373290
v 0.317457 -0.448952 0.317457
v 0.249424 -0.527912 0.249425
v 0.171807 -0.586585 0.171807
v 0.087586 -0.622715 0.087586
v 0.068816 0.622715 0.102991
v 0.134988 0.586585 0.202023
v 0.195972 0.527912 0.293292
v 0.249425 0.448952 0.373290
v 0.293292 0.352740 0.438943
v 0.325889 0.242971 0.487727
v 0.345962 0.123866 0.517768
v 0.352739 0.000000 0.527912
v 0.345962 -0.123866 0.517768
v 0.325889 -0.242971 0.487727
v 0.293292 -0.352740 0.438943
v 0.249425 -0.448952 0.373290
v 0.195972 -0.527912 0.293292
v 0.134988 -0.586585 0.202023
v 0.068816 -0.622715 0.102991
v 0.047401 0.622715 0.114437
v 0.092981 0.586585 0.224476
v 0.134988 0.527912 0.325889
v 0.171807 0.448952 0.414778
v 0.202023 0.352740 0.487727
v 0.224476 0.242971 0.541933
v 0.238303 0.123866 0.575313
v 0.242971 0.000000 0.586584
v 0.238303 -0.123866 0.575313
v 0.224476 -0.242971 0.541933
v 0.202023 -0.352740 0.487727
v 0.171807 -0.448952 0.414778
v 0.134988 -0.527912 0.325889
v 0.092981 -0.586585 0.224476
v 0.047401 -0.622715 0.114437
v 0.024165 0.622715 0.121486
v 0.047401 0.586585 0.238303
v 0.068816 0.527912 0.345962
v 0.087586 0.448952 0.440326
v 0.102990 0.352740 0.517768
v 0.114437 0.242971 0.575313
v 0.121486 0.123866 0.610749
v 0.123865 0.000000 0.622715
v 0.121486 -0.123866 0.610749
v 0.114437 -0.242971 0.575313
v 0.102990 -0.352740 0.517768
v 0.087586 -0.448952 0.440326
v 0.068816 -0.527912 0.345962
v 0.047401 -0.586585 0.238303
v 0.024165 -0.622715 0.121486
v -0.000000 0.622715 0.123866
v -0.000000 0.586585 0.242971
v -0.000000 0.527912 0.352739
v -0.000000 0.448952 0.448952
v -0.000000 0.352740 0.527912
v 0.000000 0.242971 0.586584
v -0.000000 0.123866 0.622715
v -0.000000 0.000000 0.634914
v -0.000000 -0.123866 0.622715
v 0.000000 -0.242971 0.586584
v -0.000000 -0.352740 0.527912
v -0.000000 -0.448952 0.448952
v -0.000000 -0.527912 0.352739
v -0.000000 -0.586585 0.242971
v -0.000000 -0.622715 0.123866
v -0.024165 0.622715 0.121486
v -0.047401 0.586585 0.238303
v -0.068816 0.527912 0.345962
v -0.087586 0.448952 0.440326
v -0.102991 0.352740 0.517768
v -0.114437 0.242971 0.575313
v -0.121486 0.123866 0.610749
v -0.123866 0.000000 0.622714
v -0.121486 -0.123866 0.610749
v -0.114437 -0.242971 0.575313
v -0.102991 -0.352740 0.517768
v -0.087586 -0.448952 0.440326
v -0.068816 -0.527912 0.345962
v -0.047401 -0.586585 0.238303
v -0.024165 -0.622715 0.121486
v -0.047401 0.622715 0.114437
v -0.092981 0.586585 0.224476
v -0.134988 0.527912 0.325889
v -0.171807 0.448952 0.414778
v -0.202023 0.352740 0.487727
v -0.224476 0.242971 0.541933
v -0.238303 0.123866 0.575313
v -0.242971 0.000000 0.586584
v -0.238303 -0.123866 0.575313
v -0.224476 -0.242971 0.541933
v -0.202023 -0.352740 0.487727
v -0.171807 -0.448952 0.414778
v -0.134988 -0.527912 0.325889
v -0.092981 -0.586585 0.224476
v -0.047401 -0.622715 0.114437
v -0.068816 0.622715 0.102990
v -0.134988 0.586585 0.202023
v -0.195972 0.527912 0.293292
v -0.249425 0.448952 0.373290
v -0.293292 0.352740 0.438943
v -0.325889 0.242971 0.487727
v -0.345962 0.123866 0.517768
v -0.352740 0.000000 0.527912
v -0.345962 -0.123866 0.517768
v -0.325889 -0.242971 0.487727
v -0.293292 -0.352740 0.438943
v -0.249425 -0.448952 0.373290
v -0.195972 -0.527912 0.293292
v -0.134988 -0.586585 0.202023
v -0.068816 -0.622715 0.102990
v -0.087586 0.622715 0.087586
v -0.171807 0.586585 0.171807
v -0.249424 0.527912 0.249424
v -0.317457 0.448952 0.317457
v -0.373290 0.352740 0.373290
v -0.414778 0.242971 0.414778
v -0.440326 0.123866 0.440326
v -0.448952 0.000000 0.448952
v -0.440326 -0.123866 0.440326
v -0.414778 -0.242971 0.414778
v -0.373290 -0.352740 0.373290
v -0.317457 -0.448952 0.317457
v -0.249424 -0.527912 0.249424
v -0.171807 -0.586585 0.171807
v -0.087586 -0.622715 0.087586
v 0.000000 -0.634915 0.000000
v -0.102990 0.622715 0.068816
v -0.202023 0.586585 0.134988
v -0.293292 0.527912 0.195971
v -0.373290 0.448952 0.249425
v -0.438943 0.352740 0.293292
v -0.487727 0.242971 0.325889
v -0.517768 0.123866 0.345962
v -0.527912 0.000000 0.352739
v -0.517768 -0.123866 0.345962
v -0.487727 -0.242971 0.325889
v -0.438943 -0.352740 0.293292
v -0.373290 -0.448952 0.249425
v -0.293292 -0.527912 0.195971
v -0.202023 -0.586585 0.134988
v -0.102990 -0.622715 0.068816
v -0.114437 0.622715 0.047401
v -0.224476 0.586585 0.092981
v -0.325889 0.527912 0.134987
v -0.414778 0.448952 0.171807
v -0.487727 0.352740 0.202023
v -0.541933 0.242971 0.224476
v -0.575313 0.123866 0.238302
v -0.586584 0.000000 0.242971
v -0.575313 -0.123866 0.238302
v -0.541933 -0.242971 0.224476
v -0.487727 -0.352740 0.202023
v -0.414778 -0.448952 0.171807
v -0.325889 -0.527912 0.134987
v -0.224476 -0.586585 0.092981
v -0.114437 -0.622715 0.047401
v -0.121486 0.622715 0.024165
v -0.238303 0.586585 0.047401
v -0.345962 0.527912 0.068816
v -0.440326 0.448952 0.087586
v -0.517768 0.352740 0.102990
v -0.575313 0.242971 0.114437
v -0.610749 0.123866 0.121485
v -0.622714 0.000000 0.123865
v -0.610749 -0.123866 0.121485
v -0.575313 -0.242971 0.114437
v -0.517768 -0.352740 0.102990
v -0.440326 -0.448952 0.087586
v -0.345962 -0.527912 0.068816
v -0.238303 -0.586585 0.047401
v -0.121486 -0.622715 0.024165
v -0.123866 0.622715 -0.000000
v -0.242971 0.586585 -0.000000
v -0.352739 0.527912 -0.000000
v -0.448952 0.448952 -0.000000
v -0.527912 0.352740 -0.000000
v -0.586584 0.242971 -0.000000
v -0.622715 0.123866 -0.000000
v -0.634914 0.000000 -0.000000
v -0.622715 -0.123866 -0.000000
v -0.586584 -0.242971 -0.000000
v -0.527912 -0.352740 -0.000000
v -0.448952 -0.448952 -0.000000
v -0.352739 -0.527912 -0.000000
v -0.242971 -0.586585 -0.000000
v -0.123866 -0.622715 -0.000000
v -0.121486 0.622715 -0.024165
v -0.238303 0.586585 -0.047401
v -0.345962 0.527912 -0.068816
v -0.440326 0.448952 -0.087586
v -0.517768 0.352740 -0.102991
v -0.575313 0.242971 -0.114437
v -0.610749 0.123866 -0.121486
v -0.622714 0.000000 -0.123866
v -0.610749 -0.123866 -0.121486
v -0.575313 -0.242971 -0.114437
v -0.517768 -0.352740 -0.102991
v -0.440326 -0.448952 -0.087586
v -0.345962 -0.527912 -0.068816
v -0.238303 -0.586585 -0.047401
v -0.121486 -0.622715 -0.024165
v -0.114437 0.622715 -0.047401
v -0.224476 0.586585 -0.092981
v -0.325889 0.527912 -0.134988
v -0.414778 0.448952 -0.171807
v -0.487727 0.352740 -0.202023
v -0.541933 0.242971 -0.224476
v -0.575313 0.123866 -0.238303
v -0.586584 0.000000 -0.242971
v -0.575313 -0.123866 -0.238303
v -0.541933 -0.242971 -0.224476
v -0.487727 -0.352740 -0.202023
v -0.414778 -0.448952 -0.171807
v -0.325889 -0.527912 -0.134988
v -0.224476 -0.586585 -0.092981
v -0.114437 -0.622715 -0.047401
v -0.102990 0.622715 -0.068816
v -0.202023 0.586585 -0.134988
v -0.293292 0.527912 -0.195972
v -0.373290 0.448952 -0.249425
v -0.438943 0.352740 -0.293292
v -0.487727 0.242971 -0.325889
v -0.517768 0.123866 -0.345962
v -0.527911 0.000000 -0.352740
v -0.517768 -0.123866 -0.345962
v -0.487727 -0.242971 -0.325889
v -0.438943 -0.352740 -0.293292
v -0.373290 -0.448952 -0.249425
v -0.293292 -0.527912 -0.195972
v -0.202023 -0.586585 -0.134988
v -0.102990 -0.622715 -0.068816
v -0.087586 0.622715 -0.087586
v -0.171807 0.586585 -0.171807
v -0.249424 0.527912 -0.249424
v -0.317457 0.448952 -0.317457
v -0.373290 0.352740 -0.373290
v -0.414778 0.242971 -0.414778
v -0.440326 0.123866 -0.440326
v -0.448952 0.000000 -0.448952
v -0.440326 -0.123866 -0.440326
v -0.414778 -0.242971 -0.414778
v -0.373290 -0.352740 -0.373290
v -0.317457 -0.448952 -0.317457
v -0.249424 -0.527912 -0.249424
v -0.171807 -0.586585 -0.171807
v -0.087586 -0.622715 -0.087586
v -0.068816 0.622715 -0.102990
v -0.134988 0.586585 -0.202023
v -0.195971 0.527912 -0.293292
v -0.249424 0.448952 -0.373290
v -0.293292 0.352740 -0.438943
v -0.325889 0.242971 -0.487727
v -0.345962 0.123866 -0.517768
v -0.352739 0.000000 -0.527912
v -0.345962 -0.123866 -0.517768
v -0.325889 -0.242971 -0.487727
v -0.293292 -0.352740 -0.438943
v -0.249424 -0.448952 -0.373290
v -0.195971 -0.527912 -0.293292
v -0.134988 -0.586585 -0.202023
v -0.068816 -0.622715 -0.102990
v -0.047401 0.622715 -0.114437
v -0.092981 0.586585 -0.224476
v -0.134987 0.527912 -0.325889
v -0.171807 0.448952 -0.414778
v -0.202023 0.352740 -0.487727
v -0.224476 0.242971 -0.541933
v -0.238302 0.123866 -0.575313
v -0.242971 0.000000 -0.586584
v -0.238302 -0.123866 -0.575313
v -0.224476 -0.242971 -0.541933
v -0.202023 -0.352740 -0.487727
v -0.171807 -0.448952 -0.414778
v -0.134987 -0.527912 -0.325889
v -0.092981 -0.586585 -0.224476
v -0.047401 -0.622715 -0.114437
v -0.024165 0.622715 -0.121486
v -0.047401 0.586585 -0.238303
v -0.068816 0.527912 -0.345961
v -0.087586 0.448952 -0.440326
v -0.102990 0.352740 -0.517768
v -0.114437 0.242971 -0.575313
v -0.121485 0.123866 -0.610749
v -0.123865 0.000000 -0.622714
v -0.121485 -0.123866 -0.610749
v -0.114437 -0.242971 -0.575313
v -0.102990 -0.352740 -0.517768
v -0.087586 -0.448952 -0.440326
v -0.068816 -0.527912 -0.345961
v -0.047401 -0.586585 -0.238303
v -0.024165 -0.622715 -0.121486
v 0.000000 0.622715 -0.123866
v 0.000000 0.586585 -0.242971
v 0.000000 0.448952 -0.448952
v 0.000000 0.242971 -0.586584
v 0.000000 -0.242971 -0.586584
v 0.000000 -0.448952 -0.448952
v 0.000000 -0.527912 -0.352739
v 0.000000 -0.586585 -0.242971
v 0.000000 -0.622715 -0.123866
vn 0.0976 -0.0975 -0.9904
vn 0.0286 0.9565 -0.2902
vn 0.0938 -0.2890 -0.9527
vn 0.0464 0.8810 -0.4709
vn 0.0865 -0.4696 -0.8786
vn 0.0624 0.7715 -0.6332
vn 0.0759 -0.6326 -0.7708
vn 0.0759 0.6326 -0.7708
vn 0.0624 -0.7715 -0.6332
vn 0.0865 0.4696 -0.8786
vn 0.0464 -0.8810 -0.4709
vn 0.0938 0.2890 -0.9527
vn 0.0286 -0.9565 -0.2902
vn 0.0975 0.0975 -0.9904
vn 0.0097 0.9951 -0.0980
vn 0.0097 -0.9951 -0.0980
vn 0.2889 0.0975 -0.9524
vn 0.0286 0.9951 -0.0942
vn 0.0286 -0.9951 -0.0942
vn 0.2889 -0.0975 -0.9524
vn 0.0846 0.9565 -0.2790
vn 0.2779 -0.2890 -0.9161
vn 0.1374 0.8810 -0.4528
vn 0.2563 -0.4696 -0.8448
vn 0.1847 0.7715 -0.6088
vn 0.2248 -0.6326 -0.7412
vn 0.2248 0.6326 -0.7412
vn 0.1847 -0.7715 -0.6088
vn 0.2563 0.4696 -0.8448
vn 0.1374 -0.8810 -0.4528
vn 0.2779 0.2890 -0.9161
vn 0.0846 -0.9565 -0.2790
vn 0.3651 -0.6326 -0.6831
vn 0.3651 0.6326 -0.6831
vn 0.2999 -0.7715 -0.5611
vn 0.4162 0.4696 -0.7786
vn 0.2231 -0.8810 -0.4173
vn 0.4513 0.2890 -0.8443
vn 0.1374 -0.9565 -0.2571
vn 0.4691 0.0975 -0.8777
vn 0.0464 0.9951 -0.0869
vn 0.0464 -0.9951 -0.0869
vn 0.4691 -0.0975 -0.8777
vn 0.1374 0.9565 -0.2571
vn 0.4513 -0.2890 -0.8443
vn 0.2230 0.8810 -0.4173
vn 0.4162 -0.4696 -0.7786
vn 0.2999 0.7715 -0.5611
vn 0.0625 0.9951 -0.0761
vn 0.0625 -0.9951 -0.0761
vn 0.6314 -0.0975 -0.7693
vn 0.1850 0.9565 -0.2254
vn 0.6073 -0.2890 -0.7400
vn 0.3002 0.8810 -0.3658
vn 0.5601 -0.4696 -0.6825
vn 0.4036 0.7715 -0.4918
vn 0.4913 -0.6326 -0.5987
vn 0.4913 0.6326 -0.5987
vn 0.4036 -0.7715 -0.4918
vn 0.5601 0.4696 -0.6825
vn 0.3002 -0.8810 -0.3658
vn 0.6073 0.2890 -0.7400
vn 0.1850 -0.9565 -0.2254
vn 0.6314 0.0975 -0.7693
vn 0.5987 0.6326 -0.4913
vn 0.4918 -0.7715 -0.4036
vn 0.6825 0.4696 -0.5601
vn 0.3658 -0.8810 -0.3002
vn 0.7400 0.2890 -0.6073
vn 0.2254 -0.9565 -0.1850
vn 0.7693 0.0975 -0.6314
vn 0.0761 0.9951 -0.0625
vn 0.0761 -0.9951 -0.0625
vn 0.7693 -0.0975 -0.6314
vn 0.2254 0.9565 -0.1850
vn 0.7400 -0.2890 -0.6073
vn 0.3658 0.8810 -0.3002
vn 0.6825 -0.4696 -0.5601
vn 0.4918 0.7715 -0.4036
vn 0.5987 -0.6326 -0.4913
vn 0.8777 -0.0975 -0.4691
vn 0.2571 0.9565 -0.1374
vn 0.8443 -0.2890 -0.4513
vn 0.4173 0.8810 -0.2231
vn 0.7786 -0.4696 -0.4162
vn 0.5611 0.7715 -0.2999
vn 0.6831 -0.6326 -0.3651
vn 0.6831 0.6326 -0.3651
vn 0.5611 -0.7715 -0.2999
vn 0.7786 0.4696 -0.4162
vn 0.4173 -0.8810 -0.2230
vn 0.8443 0.2890 -0.4513
vn 0.2571 -0.9565 -0.1374
vn 0.8777 0.0975 -0.4691
vn 0.0869 0.9951 -0.0464
vn 0.0869 -0.9951 -0.0464
vn 0.6088 -0.7715 -0.1847
vn 0.8448 0.4696 -0.2563
vn 0.4528 -0.8810 -0.1374
vn 0.9161 0.2890 -0.2779
vn 0.2790 -0.9565 -0.0846
vn 0.9524 0.0975 -0.2889
vn 0.0942 0.9951 -0.0286
vn 0.0942 -0.9951 -0.0286
vn 0.9524 -0.0975 -0.2889
vn 0.2790 0.9565 -0.0846
vn 0.9161 -0.2890 -0.2779
vn 0.4528 0.8810 -0.1374
vn 0.8448 -0.4696 -0.2563
vn 0.6088 0.7715 -0.1847
vn 0.7412 -0.6326 -0.2248
vn 0.7412 0.6326 -0.2248
vn 0.9527 -0.2890 -0.0938
vn 0.4709 0.8810 -0.0464
vn 0.8786 -0.4696 -0.0865
vn 0.6332 0.7715 -0.0624
vn 0.7708 -0.6326 -0.0759
vn 0.7708 0.6326 -0.0759
vn 0.6332 -0.7715 -0.0624
vn 0.8786 0.4696 -0.0865
vn 0.4709 -0.8810 -0.0464
vn 0.9527 0.2890 -0.0938
vn 0.2902 -0.9565 -0.0286
vn 0.9904 0.0975 -0.0975
vn 0.0980 0.9951 -0.0097
vn 0.0980 -0.9951 -0.0097
vn 0.9904 -0.0975 -0.0975
vn 0.2902 0.9565 -0.0286
vn 0.4709 -0.8810 0.0464
vn 0.9527 0.2890 0.0938
vn 0.2902 -0.9565 0.0286
vn 0.9904 0.0975 0.0976
vn 0.0980 0.9951 0.0097
vn 0.0980 -0.9951 0.0097
vn 0.9904 -0.0975 0.0975
vn 0.2902 0.9565 0.0286
vn 0.9527 -0.2890 0.0938
vn 0.4709 0.8810 0.0464
vn 0.8786 -0.4696 0.0865
vn 0.6332 0.7715 0.0624
vn 0.7708 -0.6326 0.0759
vn 0.7708 0.6326 0.0759
vn 0.6332 -0.7715 0.0624
vn 0.8786 0.4696 0.0865
vn 0.4528 0.8810 0.1374
vn 0.8448 -0.4696 0.2563
vn 0.6088 0.7715 0.1847
vn 0.7412 -0.6326 0.2248
vn 0.7412 0.6326 0.2248
vn 0.6088 -0.7715 0.1847
vn 0.8448 0.4696 0.2563
vn 0.4528 -0.8810 0.1374
vn 0.9161 0.2890 0.2779
vn 0.2790 -0.9565 0.0846
vn 0.9524 0.0975 0.2889
vn 0.0942 0.9951 0.0286
vn 0.0942 -0.9951 0.0286
vn 0.9524 -0.0975 0.2889
vn 0.2790 0.9565 0.0846
vn 0.9161 -0.2890 0.2779
vn 0.8443 0.2890 0.4513
vn 0.2571 -0.9565 0.1374
vn 0.8777 0.0975 0.4691
vn 0.0869 0.9951 0.0464
vn 0.0869 -0.9951 0.0464
vn 0.8777 -0.0975 0.4691
vn 0.2571 0.9565 0.1374
vn 0.8443 -0.2890 0.4513
vn 0.4173 0.8810 0.2230
vn 0.7786 -0.4696 0.4162
vn 0.5611 0.7715 0.2999
vn 0.6831 -0.6326 0.3651
vn 0.6831 0.6326 0.3651
vn 0.5611 -0.7715 0.2999
vn 0.7786 0.4696 0.4162
vn 0.4173 -0.8810 0.2231
vn 0.6825 -0.4696 0.5601
vn 0.4918 0.7715 0.4036
vn 0.5987 -0.6326 0.4913
vn 0.5987 0.6326 0.4913
vn 0.4918 -0.7715 0.4036
vn 0.6825 0.4696 0.5601
vn 0.3658 -0.8810 0.3002
vn 0.7400 0.2890 0.6073
vn 0.2254 -0.9565 0.1850
vn 0.7693 0.0975 0.6314
vn 0.0761 0.9951 0.0625
vn 0.0761 -0.9951 0.0625
vn 0.7693 -0.0975 0.6314
vn 0.2254 0.9565 0.1850
vn 0.7400 -0.2890 0.6073
vn 0.3658 0.8810 0.3002
vn 0.1850 -0.9565 0.2254
vn 0.6314 0.0975 0.7693
vn 0.0625 0.9951 0.0761
vn 0.0625 -0.9951 0.0761
vn 0.6314 -0.0975 0.7693
vn 0.1850 0.9565 0.2254
vn 0.6073 -0.2890 0.7400
vn 0.3002 0.8810 0.3658
vn 0.5601 -0.4696 0.6825
vn 0.4036 0.7715 0.4918
vn 0.4913 -0.6326 0.5987
vn 0.4913 0.6326 0.5987
vn 0.4036 -0.7715 0.4918
vn 0.5601 0.4696 0.6825
vn 0.3002 -0.8810 0.3658
vn 0.6073 0.2890 0.7400
vn 0.2999 0.7715 0.5611
vn 0.3651 -0.6326 0.6831
vn 0.3651 0.6326 0.6831
vn 0.2999 -0.7715 0.5611
vn 0.4162 0.4696 0.7786
vn 0.2231 -0.8810 0.4173
vn 0.4513 0.2890 0.8443
vn 0.1374 -0.9565 0.2571
vn 0.4691 0.0975 0.8777
vn 0.0464 0.9951 0.0869
vn 0.0464 -0.9951 0.0869
vn 0.4691 -0.0975 0.8777
vn 0.1374 0.9565 0.2571
vn 0.4513 -0.2890 0.8443
vn 0.2230 0.8810 0.4173
vn 0.4162 -0.4696 0.7786
vn 0.2889 0.0975 0.9524
vn 0.0286 0.9951 0.0942
vn 0.0286 -0.9951 0.0942
vn 0.2889 -0.0975 0.9524
vn 0.0846 0.9565 0.2790
vn 0.2779 -0.2890 0.9161
vn 0.1374 0.8810 0.4528
vn 0.2563 -0.4696 0.8448
vn 0.1847 0.7715 0.6088
vn 0.2248 -0.6326 0.7412
vn 0.2248 0.6326 0.7412
vn 0.1847 -0.7715 0.6088
vn 0.2563 0.4696 0.8448
vn 0.1374 -0.8810 0.4528
vn 0.2779 0.2890 0.9161
vn 0.0846 -0.9565 0.2790
vn 0.0759 -0.6326 0.7708
vn 0.0759 0.6326 0.7708
vn 0.0624 -0.7715 0.6332
vn 0.0865 0.4696 0.8786
vn 0.0464 -0.8810 0.4709
vn 0.0938 0.2890 0.9527
vn 0.0286 -0.9565 0.2902
vn 0.0975 0.0975 0.9904
vn 0.0097 0.9951 0.0980
vn 0.0097 -0.9951 0.0980
vn 0.0975 -0.0975 0.9904
vn 0.0286 0.9565 0.2902
vn 0.0938 -0.2890 0.9527
vn 0.0464 0.8810 0.4709
vn 0.0865 -0.4696 0.8786
vn 0.0624 0.7715 0.6332
vn -0.0097 -0.9951 0.0980
vn -0.0975 -0.0975 0.9904
vn -0.0286 0.9565 0.2902
vn -0.0938 -0.2890 0.9527
vn -0.0464 0.8810 0.4709
vn -0.0865 -0.4696 0.8786
vn -0.0624 0.7715 0.6332
vn -0.0759 -0.6326 0.7708
vn -0.0759 0.6326 0.7708
vn -0.0624 -0.7715 0.6332
vn -0.0865 0.4696 0.8786
vn -0.0464 -0.8810 0.4709
vn -0.0938 0.2890 0.9527
vn -0.0286 -0.9565 0.2902
vn -0.0976 0.0975 0.9904
vn -0.0097 0.9951 0.0980
vn -0.1847 -0.7715 0.6088
vn -0.2563 0.4696 0.8448
vn -0.1374 -0.8810 0.4528
vn -0.2779 0.2890 0.9161
vn -0.0846 -0.9565 0.2790
vn -0.2889 0.0975 0.9524
vn -0.0286 0.9951 0.0942
vn -0.0286 -0.9951 0.0942
vn -0.2889 -0.0975 0.9524
vn -0.0846 0.9565 0.2790
vn -0.2779 -0.2890 0.9161
vn -0.1374 0.8810 0.4528
vn -0.2563 -0.4696 0.8448
vn -0.1847 0.7715 0.6088
vn -0.2248 -0.6326 0.7412
vn -0.2248 0.6326 0.7412
vn -0.1374 0.9565 0.2571
vn -0.4513 -0.2890 0.8443
vn -0.2231 0.8810 0.4173
vn -0.4162 -0.4696 0.7786
vn -0.2999 0.7715 0.5611
vn -0.3651 -0.6326 0.6831
vn -0.3651 0.6326 0.6831
vn -0.2999 -0.7715 0.5611
vn -0.4162 0.4696 0.7786
vn -0.2231 -0.8810 0.4173
vn -0.4513 0.2890 0.8443
vn -0.1374 -0.9565 0.2571
vn -0.4691 0.0975 0.8777
vn -0.0464 0.9951 0.0869
vn -0.0464 -0.9951 0.0869
vn -0.4691 -0.0975 0.8777
vn -0.5601 0.4696 0.6825
vn -0.3002 -0.8810 0.3658
vn -0.6073 0.2890 0.7400
vn -0.1850 -0.9565 0.2254
vn -0.6314 0.0975 0.7693
vn -0.0625 0.9951 0.0761
vn -0.0625 -0.9951 0.0761
vn -0.6314 -0.0975 0.7693
vn -0.1850 0.9565 0.2254
vn -0.6073 -0.2890 0.7400
vn -0.3002 0.8810 0.3658
vn -0.5601 -0.4696 0.6825
vn -0.4036 0.7715 0.4918
vn -0.4913 -0.6326 0.5987
vn -0.4913 0.6326 0.5987
vn -0.4036 -0.7715 0.4918
vn -0.7400 -0.2890 0.6073
vn -0.3658 0.8810 0.3002
vn -0.6825 -0.4696 0.5601
vn -0.4918 0.7715 0.4036
vn -0.5987 -0.6326 0.4913
vn -0.5987 0.6326 0.4913
vn -0.4918 -0.7715 0.4036
vn -0.6825 0.4696 0.5601
vn -0.3658 -0.8810 0.3002
vn -0.7400 0.2890 0.6073
vn -0.2254 -0.9565 0.1850
vn -0.7693 0.0975 0.6314
vn -0.0761 0.9951 0.0625
vn -0.0761 -0.9951 0.0625
vn -0.7693 -0.0975 0.6314
vn -0.2254 0.9565 0.1850
vn -0.4173 -0.8810 0.2231
vn -0.8443 0.2890 0.4513
vn -0.2571 -0.9565 0.1374
vn -0.8777 0.0975 0.4691
vn -0.0869 0.9951 0.0464
vn -0.0869 -0.9951 0.0464
vn -0.8777 -0.0975 0.4691
vn -0.2571 0.9565 0.1374
vn -0.8443 -0.2890 0.4513
vn -0.4173 0.8810 0.2230
vn -0.7786 -0.4696 0.4162
vn -0.5611 0.7715 0.2999
vn -0.6831 -0.6326 0.3651
vn -0.6831 0.6326 0.3651
vn -0.5611 -0.7715 0.2999
vn -0.7786 0.4696 0.4162
vn -0.4528 0.8810 0.1374
vn -0.8448 -0.4696 0.2563
vn -0.6088 0.7715 0.1847
vn -0.7412 -0.6326 0.2248
vn -0.7412 0.6326 0.2248
vn -0.6088 -0.7715 0.1847
vn -0.8448 0.4696 0.2563
vn -0.4528 -0.8810 0.1374
vn -0.9161 0.2890 0.2779
vn -0.2790 -0.9565 0.0846
vn -0.9524 0.0975 0.2889
vn -0.0942 0.9951 0.0286
vn -0.0942 -0.9951 0.0286
vn -0.9524 -0.0975 0.2889
vn -0.2790 0.9565 0.0846
vn -0.9161 -0.2890 0.2779
vn -0.9527 0.2890 0.0938
vn -0.2902 -0.9565 0.0286
vn -0.9904 0.0975 0.0975
vn -0.0980 0.9951 0.0097
vn -0.0980 -0.9951 0.0097
vn -0.9904 -0.0975 0.0975
vn -0.2902 0.9565 0.0286
vn -0.9527 -0.2890 0.0938
vn -0.4709 0.8810 0.0464
vn -0.8786 -0.4696 0.0865
vn -0.6332 0.7715 0.0624
vn -0.7708 -0.6326 0.0759
vn -0.7708 0.6326 0.0759
vn -0.6332 -0.7715 0.0624
vn -0.8786 0.4696 0.0865
vn -0.4709 -0.8810 0.0464
vn -0.8786 -0.4696 -0.0865
vn -0.6332 0.7715 -0.0624
vn -0.7708 -0.6326 -0.0759
vn -0.7708 0.6326 -0.0759
vn -0.6332 -0.7715 -0.0624
vn -0.8786 0.4696 -0.0865
vn -0.4709 -0.8810 -0.0464
vn -0.9527 0.2890 -0.0938
vn -0.2902 -0.9565 -0.0286
vn -0.9904 0.0975 -0.0975
vn -0.0980 0.9951 -0.0097
vn -0.0980 -0.9951 -0.0097
vn -0.9904 -0.0975 -0.0976
vn -0.2902 0.9565 -0.0286
vn -0.9527 -0.2890 -0.0938
vn -0.4709 0.8810 -0.0464
vn -0.2790 -0.9565 -0.0846
vn -0.9524 0.0975 -0.2889
vn -0.0942 0.9951 -0.0286
vn -0.0942 -0.9951 -0.0286
vn -0.9524 -0.0975 -0.2889
vn -0.2790 0.9565 -0.0846
vn -0.9161 -0.2890 -0.2779
vn -0.4528 0.8810 -0.1374
vn -0.8448 -0.4696 -0.2563
vn -0.6088 0.7715 -0.1847
vn -0.7412 -0.6326 -0.2248
vn -0.7412 0.6326 -0.2248
vn -0.6088 -0.7715 -0.1847
vn -0.8448 0.4696 -0.2563
vn -0.4528 -0.8810 -0.1374
vn -0.9161 0.2890 -0.2779
vn -0.6831 -0.6326 -0.3651
vn -0.6831 0.6326 -0.3651
vn -0.5611 -0.7715 -0.2999
vn -0.7786 0.4696 -0.4162
vn -0.4173 -0.8810 -0.2231
vn -0.8443 0.2890 -0.4513
vn -0.2571 -0.9565 -0.1374
vn -0.8777 0.0975 -0.4691
vn -0.0869 0.9951 -0.0464
vn -0.0869 -0.9951 -0.0464
vn -0.8777 -0.0975 -0.4691
vn -0.2571 0.9565 -0.1374
vn -0.8443 -0.2890 -0.4513
vn -0.4173 0.8810 -0.2231
vn -0.7786 -0.4696 -0.4162
vn -0.5611 0.7715 -0.2999
vn -0.0761 0.9951 -0.0625
vn -0.0761 -0.9951 -0.0625
vn -0.7693 -0.0975 -0.6314
vn -0.2254 0.9565 -0.1850
vn -0.7400 -0.2890 -0.6073
vn -0.3658 0.8810 -0.3002
vn -0.6825 -0.4696 -0.5601
vn -0.4918 0.7715 -0.4036
vn -0.5987 -0.6326 -0.4913
vn -0.5987 0.6326 -0.4913
vn -0.4918 -0.7715 -0.4036
vn -0.6825 0.4696 -0.5601
vn -0.3658 -0.8810 -0.3002
vn -0.7400 0.2890 -0.6073
vn -0.2254 -0.9565 -0.1850
vn -0.7693 0.0975 -0.6314
vn -0.4913 0.6326 -0.5987
vn -0.4036 -0.7715 -0.4918
vn -0.5601 0.4696 -0.6825
vn -0.3002 -0.8810 -0.3658
vn -0.6073 0.2890 -0.7400
vn -0.1850 -0.9565 -0.2254
vn -0.6314 0.0975 -0.7693
vn -0.0625 0.9951 -0.0761
vn -0.0625 -0.9951 -0.0761
vn -0.6314 -0.0975 -0.7693
vn -0.1850 0.9565 -0.2254
vn -0.6073 -0.2890 -0.7400
vn -0.3002 0.8810 -0.3658
vn -0.5601 -0.4696 -0.6825
vn -0.4036 0.7715 -0.4918
vn -0.4913 -0.6326 -0.5987
vn -0.4691 -0.0975 -0.8777
vn -0.1374 0.9565 -0.2571
vn -0.4513 -0.2890 -0.8443
vn -0.2230 0.8810 -0.4173
vn -0.4162 -0.4696 -0.7786
vn -0.2999 0.7715 -0.5611
vn -0.3651 -0.6326 -0.6831
vn -0.3651 0.6326 -0.6831
vn -0.2999 -0.7715 -0.5611
vn -0.4162 0.4696 -0.7786
vn -0.2231 -0.8810 -0.4173
vn -0.4513 0.2890 -0.8443
vn -0.1374 -0.9565 -0.2571
vn -0.4691 0.0975 -0.8777
vn -0.0464 0.9951 -0.0869
vn -0.0464 -0.9951 -0.0869
vn -0.1847 -0.7715 -0.6088
vn -0.2563 0.4696 -0.8448
vn -0.1374 -0.8810 -0.4528
vn -0.2779 0.2890 -0.9161
vn -0.0846 -0.9565 -0.2790
vn -0.2889 0.0975 -0.9524
vn -0.0286 0.9951 -0.0942
vn -0.0286 -0.9951 -0.0942
vn -0.2889 -0.0975 -0.9524
vn -0.0846 0.9565 -0.2790
vn -0.2779 -0.2890 -0.9161
vn -0.1374 0.8810 -0.4528
vn -0.2563 -0.4696 -0.8448
vn -0.1847 0.7715 -0.6088
vn -0.2248 -0.6326 -0.7412
vn -0.2248 0.6326 -0.7412
vn -0.0286 0.9565 -0.2902
vn -0.0938 -0.2890 -0.9527
vn -0.0464 0.8810 -0.4709
vn -0.0865 -0.4696 -0.8786
vn -0.0624 0.7715 -0.6332
vn -0.0759 -0.6326 -0.7708
vn -0.0759 0.6326 -0.7708
vn -0.0624 -0.7715 -0.6332
vn -0.0865 0.4696 -0.8786
vn -0.0464 -0.8810 -0.4709
vn -0.0938 0.2890 -0.9527
vn -0.0286 -0.9565 -0.2902
vn -0.0976 0.0975 -0.9904
vn -0.0097 0.9951 -0.0980
vn -0.0097 -0.9951 -0.0980
vn -0.0976 -0.0975 -0.9904
vn 0.0975 -0.0975 -0.9904
vn 0.0976 0.0975 -0.9904
vn 0.2230 -0.8810 -0.4173
vn 0.2231 0.8810 -0.4173
vn 0.4173 0.8810 -0.2230
vn 0.4173 -0.8810 -0.2231
vn 0.9904 0.0975 0.0975
vn 0.9904 -0.0975 0.0976
vn 0.4173 0.8810 0.2231
vn 0.4173 -0.8810 0.2230
vn 0.2230 -0.8810 0.4173
vn 0.2231 0.8810 0.4173
vn -0.0976 -0.0975 0.9904
vn -0.0975 0.0975 0.9904
vn -0.4173 -0.8810 0.2230
vn -0.4173 0.8810 0.2231
vn -0.9904 0.0975 -0.0976
vn -0.9904 -0.0975 -0.0975
vn -0.2231 0.8810 -0.4173
vn -0.2230 -0.8810 -0.4173
vt 0.310061 0.652604
vt 0.332415 0.627554
vt 0.334744 0.651112
vt 0.135610 0.610312
vt 0.092223 0.571361
vt 0.142526 0.595179
vt 0.355942 0.624652
vt 0.359901 0.647572
vt 0.172794 0.627585
vt 0.179378 0.609212
vt 0.380854 0.619991
vt 0.386051 0.641687
vt 0.204397 0.638778
vt 0.210238 0.618095
vt 0.414463 0.633092
vt 0.407521 0.612858
vt 0.237354 0.623826
vt 0.233325 0.645884
vt 0.437619 0.602469
vt 0.445038 0.620356
vt 0.259848 0.650353
vt 0.262551 0.627136
vt 0.473491 0.586751
vt 0.481029 0.601372
vt 0.285232 0.652546
vt 0.286229 0.628726
vt 0.521527 0.560728
vt 0.527305 0.571226
vt 0.309338 0.628870
vt 0.087022 0.582386
vt 0.033377 0.550339
vt 0.577969 0.536502
vt 0.308693 0.606576
vt 0.039312 0.539270
vt 0.097447 0.560477
vt 0.574712 0.530173
vt 0.516607 0.549820
vt 0.330520 0.605456
vt 0.148499 0.580177
vt 0.352872 0.603114
vt 0.184810 0.591408
vt 0.376494 0.599247
vt 0.214658 0.598383
vt 0.402085 0.593494
vt 0.240607 0.602801
vt 0.431358 0.585071
vt 0.264452 0.605398
vt 0.466805 0.572174
vt 0.286896 0.606490
vt 0.373059 0.579434
vt 0.397605 0.574747
vt 0.243003 0.582791
vt 0.426287 0.568024
vt 0.265881 0.584713
vt 0.461349 0.557583
vt 0.287351 0.585486
vt 0.511565 0.539083
vt 0.308159 0.585345
vt 0.043173 0.532532
vt 0.101840 0.549407
vt 0.568861 0.518733
vt 0.328961 0.584437
vt 0.153320 0.565244
vt 0.350347 0.582543
vt 0.189064 0.574047
vt 0.218181 0.579359
vt 0.046542 0.525508
vt 0.105428 0.538215
vt 0.564857 0.512070
vt 0.507335 0.528222
vt 0.327665 0.564282
vt 0.157139 0.550397
vt 0.348282 0.562749
vt 0.192256 0.557097
vt 0.370191 0.560250
vt 0.220648 0.560953
vt 0.394225 0.556540
vt 0.244886 0.563454
vt 0.422303 0.551317
vt 0.266918 0.564830
vt 0.456899 0.543031
vt 0.287600 0.565303
vt 0.307639 0.565058
vt 0.222444 0.542997
vt 0.246162 0.544696
vt 0.391548 0.538730
vt 0.419058 0.534780
vt 0.267590 0.545569
vt 0.453772 0.528426
vt 0.287677 0.545776
vt 0.504869 0.516907
vt 0.307135 0.545454
vt 0.047127 0.523255
vt 0.107223 0.526611
vt 0.563824 0.509986
vt 0.326583 0.544784
vt 0.159641 0.535581
vt 0.346626 0.543555
vt 0.194725 0.540366
vt 0.367971 0.541601
vt 0.325689 0.525762
vt 0.161732 0.520899
vt 0.345333 0.524802
vt 0.196211 0.523917
vt 0.366291 0.523331
vt 0.223596 0.525381
vt 0.389538 0.521208
vt 0.246923 0.526358
vt 0.416815 0.518449
vt 0.267929 0.526773
vt 0.451122 0.513953
vt 0.287597 0.526734
vt 0.502088 0.505746
vt 0.306645 0.526342
vt 0.049637 0.509829
vt 0.109386 0.515111
vt 0.560412 0.497137
vt 0.388133 0.503882
vt 0.415140 0.502193
vt 0.267959 0.508290
vt 0.449713 0.499438
vt 0.287367 0.508019
vt 0.501074 0.494357
vt 0.306164 0.507555
vt 0.051702 0.501983
vt 0.110837 0.503661
vt 0.559684 0.494882
vt 0.324960 0.507056
vt 0.162511 0.506315
vt 0.344364 0.506339
vt 0.197129 0.507599
vt 0.365091 0.505309
vt 0.224154 0.508014
vt 0.247219 0.508305
vt 0.343693 0.488025
vt 0.197174 0.491423
vt 0.364336 0.487410
vt 0.224127 0.490781
vt 0.387314 0.486637
vt 0.247074 0.490412
vt 0.414339 0.485994
vt 0.267694 0.489981
vt 0.448610 0.484940
vt 0.286992 0.489480
vt 0.500749 0.482874
vt 0.305684 0.488942
vt 0.053021 0.494048
vt 0.111603 0.492253
vt 0.559491 0.486954
vt 0.324383 0.488515
vt 0.162994 0.491827
vt 0.448788 0.470366
vt 0.267136 0.471711
vt 0.286467 0.470974
vt 0.501108 0.471287
vt 0.305200 0.470356
vt 0.052895 0.491673
vt 0.110598 0.480843
vt 0.560036 0.478913
vt 0.323946 0.469996
vt 0.162278 0.477399
vt 0.343309 0.469727
vt 0.196706 0.475255
vt 0.364009 0.469516
vt 0.223538 0.473601
vt 0.387051 0.469396
vt 0.246493 0.472562
vt 0.414045 0.469754
vt 0.195387 0.459065
vt 0.343209 0.451309
vt 0.364111 0.451507
vt 0.222356 0.456358
vt 0.387363 0.452040
vt 0.245464 0.454634
vt 0.414581 0.453412
vt 0.266276 0.453346
vt 0.449231 0.455741
vt 0.285786 0.452359
vt 0.502139 0.459662
vt 0.304707 0.451652
vt 0.051896 0.478016
vt 0.110030 0.469391
vt 0.560924 0.470736
vt 0.323647 0.451355
vt 0.161154 0.462970
vt 0.265090 0.434751
vt 0.284934 0.433489
vt 0.450551 0.441040
vt 0.502736 0.447982
vt 0.304198 0.432678
vt 0.051740 0.470184
vt 0.108767 0.458089
vt 0.562021 0.456868
vt 0.323487 0.432445
vt 0.159206 0.448552
vt 0.343404 0.432636
vt 0.193355 0.442831
vt 0.364660 0.433270
vt 0.220557 0.438990
vt 0.388267 0.434508
vt 0.243961 0.436515
vt 0.415808 0.436959
vt 0.343916 0.413559
vt 0.365692 0.414675
vt 0.218087 0.421393
vt 0.389808 0.416697
vt 0.241936 0.418079
vt 0.417813 0.420358
vt 0.263545 0.415779
vt 0.452672 0.426277
vt 0.283889 0.414203
vt 0.504076 0.436490
vt 0.303666 0.413273
vt 0.051032 0.462708
vt 0.106772 0.446968
vt 0.562036 0.449071
vt 0.323476 0.413107
vt 0.156402 0.434133
vt 0.190519 0.426502
vt 0.507196 0.425356
vt 0.282622 0.394325
vt 0.303105 0.393252
vt 0.050323 0.460608
vt 0.103049 0.436268
vt 0.562431 0.446841
vt 0.323630 0.393162
vt 0.152288 0.419806
vt 0.344786 0.393911
vt 0.186945 0.409992
vt 0.367267 0.395577
vt 0.214873 0.403460
vt 0.392051 0.398496
vt 0.239319 0.399182
vt 0.420522 0.403521
vt 0.261588 0.396266
vt 0.456087 0.411526
vt 0.210775 0.385040
vt 0.395127 0.379743
vt 0.236012 0.379663
vt 0.424358 0.386286
vt 0.259148 0.376024
vt 0.460106 0.396655
vt 0.281091 0.373650
vt 0.510145 0.414120
vt 0.302506 0.372405
vt 0.046036 0.449092
vt 0.099474 0.425442
vt 0.565992 0.434779
vt 0.323973 0.372403
vt 0.147520 0.405393
vt 0.346069 0.373500
vt 0.182205 0.393166
vt 0.369470 0.375805
vt 0.279242 0.351938
vt 0.301860 0.350481
vt 0.043805 0.442709
vt 0.095062 0.414962
vt 0.567754 0.428113
vt 0.513958 0.403201
vt 0.324543 0.350585
vt 0.141596 0.391009
vt 0.347845 0.352107
vt 0.176348 0.376061
vt 0.372416 0.355185
vt 0.205662 0.366059
vt 0.399161 0.360355
vt 0.231888 0.359354
vt 0.429275 0.368695
vt 0.256129 0.354842
vt 0.465265 0.381741
vt 0.404345 0.340188
vt 0.199333 0.346387
vt 0.226768 0.338056
vt 0.435495 0.350692
vt 0.252397 0.332460
vt 0.471624 0.366799
vt 0.276997 0.328896
vt 0.519482 0.393016
vt 0.301154 0.327173
vt 0.042697 0.441013
vt 0.089008 0.405291
vt 0.568677 0.426286
vt 0.325391 0.327411
vt 0.134461 0.376681
vt 0.350228 0.329465
vt 0.169154 0.358640
vt 0.376268 0.333503
vt 0.572903 0.421333
vt 0.525996 0.383184
vt 0.326594 0.302506
vt 0.081999 0.396020
vt 0.125434 0.362623
vt 0.353376 0.305242
vt 0.160531 0.340928
vt 0.381252 0.310501
vt 0.191527 0.325897
vt 0.410931 0.319093
vt 0.220407 0.315530
vt 0.443118 0.332291
vt 0.247769 0.308564
vt 0.479894 0.352009
vt 0.274253 0.304158
vt 0.300373 0.302094
vt 0.038208 0.436409
vt 0.419312 0.296835
vt 0.452868 0.313231
vt 0.241987 0.282755
vt 0.489389 0.337207
vt 0.270865 0.277253
vt 0.533525 0.373872
vt 0.299498 0.274749
vt 0.033605 0.432335
vt 0.074027 0.387314
vt 0.577264 0.416936
vt 0.328261 0.275393
vt 0.115169 0.348653
vt 0.357515 0.279022
vt 0.149757 0.322722
vt 0.387682 0.285854
vt 0.181833 0.304381
vt 0.212467 0.291476
vt 0.102889 0.335082
vt 0.362963 0.250277
vt 0.136655 0.304194
vt 0.395993 0.259202
vt 0.169804 0.281765
vt 0.429914 0.273324
vt 0.202489 0.265568
vt 0.464724 0.293821
vt 0.234694 0.254533
vt 0.501199 0.322851
vt 0.266624 0.247573
vt 0.542139 0.365198
vt 0.298503 0.244481
vt 0.026327 0.426575
vt 0.065497 0.378800
vt 0.582082 0.413479
vt 0.330547 0.245443
vt 0.225365 0.223250
vt 0.515248 0.309047
vt 0.261230 0.214296
vt 0.551468 0.356913
vt 0.297349 0.210405
vt 0.022622 0.424001
vt 0.055904 0.371336
vt 0.589068 0.408644
vt 0.333685 0.211813
vt 0.088188 0.322439
vt 0.370189 0.218308
vt 0.120935 0.285694
vt 0.406814 0.230075
vt 0.154802 0.257983
vt 0.443433 0.248343
vt 0.189814 0.237415
vt 0.479487 0.274001
vt 0.379893 0.182182
vt 0.071269 0.310961
vt 0.101676 0.267373
vt 0.421057 0.197907
vt 0.135845 0.232931
vt 0.460784 0.221779
vt 0.173477 0.206516
vt 0.497794 0.254045
vt 0.213224 0.188029
vt 0.531614 0.296248
vt 0.254239 0.176293
vt 0.562148 0.350298
vt 0.295987 0.171298
vt 0.021141 0.423607
vt 0.045094 0.365581
vt 0.590554 0.408092
vt 0.338026 0.173340
vt 0.550939 0.284973
vt 0.197090 0.147665
vt 0.244988 0.131964
vt 0.573805 0.344677
vt 0.294345 0.125449
vt 0.015283 0.422951
vt 0.033387 0.360884
vt 0.596651 0.406951
vt 0.344095 0.128374
vt 0.051785 0.301166
vt 0.393153 0.140601
vt 0.077645 0.249514
vt 0.440078 0.162028
vt 0.111582 0.206648
vt 0.483271 0.193616
vt 0.152070 0.172298
vt 0.520510 0.234448
vt 0.029250 0.294027
vt 0.048797 0.233618
vt 0.411737 0.091610
vt 0.465923 0.121734
vt 0.080279 0.179611
vt 0.512804 0.164042
vt 0.123513 0.134272
vt 0.548629 0.216150
vt 0.175047 0.100366
vt 0.573315 0.276028
vt 0.232522 0.078965
vt 0.586451 0.340939
vt 0.292323 0.070521
vt 0.012948 0.423520
vt 0.020837 0.358108
vt 0.599198 0.407325
vt 0.352650 0.074494
vt 0.143416 0.042703
vt 0.215657 0.013703
vt 0.598907 0.270493
vt 0.599837 0.339496
vt 0.289801 0.003896
vt 0.011812 0.424743
vt 0.007728 0.357624
vt 0.600507 0.408501
vt 0.364570 0.008011
vt 0.003896 0.290489
vt 0.439038 0.031490
vt 0.013837 0.221338
vt 0.501552 0.076945
vt 0.038814 0.152451
vt 0.552468 0.133494
vt 0.084830 0.092598
vt 0.583093 0.200940
vt 0.536115 0.895121
vt 0.441336 0.887074
vt 0.494433 0.851110
vt 0.016436 0.779601
vt 0.090300 0.818664
vt 0.050168 0.848437
vt 0.538157 0.804106
vt 0.579823 0.830792
vt 0.098623 0.910058
vt 0.137460 0.862967
vt 0.608346 0.760619
vt 0.570944 0.747630
vt 0.193181 0.895427
vt 0.164534 0.954378
vt 0.589693 0.685235
vt 0.615780 0.688224
vt 0.238111 0.984873
vt 0.254145 0.914816
vt 0.597516 0.618921
vt 0.610999 0.619254
vt 0.320970 0.996104
vt 0.318357 0.920057
vt 0.003918 0.636060
vt 0.004206 0.565352
vt 0.017652 0.634771
vt 0.605959 0.550303
vt 0.382007 0.910483
vt 0.402786 0.979133
vt 0.003896 0.706769
vt 0.030215 0.701938
vt 0.473844 0.943658
vt 0.053380 0.763901
vt 0.584538 0.616218
vt 0.264273 0.858310
vt 0.316397 0.861400
vt 0.005471 0.566281
vt 0.030718 0.631102
vt 0.604817 0.551362
vt 0.368155 0.854893
vt 0.053453 0.693245
vt 0.417948 0.838477
vt 0.082997 0.745505
vt 0.464345 0.812020
vt 0.121099 0.788706
vt 0.505751 0.776519
vt 0.165066 0.821688
vt 0.540593 0.731427
vt 0.213355 0.845164
vt 0.566387 0.678194
vt 0.480526 0.749566
vt 0.144758 0.759931
vt 0.185331 0.784935
vt 0.515886 0.713515
vt 0.227735 0.802159
vt 0.546164 0.668386
vt 0.271127 0.811447
vt 0.572455 0.611924
vt 0.314842 0.813424
vt 0.010118 0.566941
vt 0.042783 0.625882
vt 0.600401 0.552434
vt 0.358298 0.808663
vt 0.073416 0.681998
vt 0.400883 0.796662
vt 0.106829 0.725810
vt 0.441897 0.776874
vt 0.014212 0.566263
vt 0.053815 0.619200
vt 0.599065 0.552237
vt 0.561373 0.605622
vt 0.350988 0.769215
vt 0.090453 0.669050
vt 0.388126 0.760173
vt 0.126064 0.705667
vt 0.424794 0.745081
vt 0.163073 0.732723
vt 0.460725 0.723767
vt 0.200504 0.751938
vt 0.495693 0.694804
vt 0.238216 0.764799
vt 0.528576 0.656658
vt 0.275951 0.771543
vt 0.313565 0.772840
vt 0.177367 0.707126
vt 0.212045 0.722049
vt 0.445036 0.699269
vt 0.479166 0.675890
vt 0.246003 0.731803
vt 0.513638 0.643736
vt 0.279428 0.736791
vt 0.551147 0.598589
vt 0.312490 0.737636
vt 0.018787 0.564575
vt 0.063755 0.611359
vt 0.592135 0.549941
vt 0.345406 0.734800
vt 0.104862 0.655039
vt 0.378376 0.727827
vt 0.141636 0.685577
vt 0.411533 0.716109
vt 0.341047 0.704200
vt 0.072210 0.601983
vt 0.117105 0.640380
vt 0.370792 0.698727
vt 0.154307 0.665787
vt 0.401086 0.689474
vt 0.188585 0.683045
vt 0.432503 0.676043
vt 0.220946 0.694709
vt 0.465580 0.657070
vt 0.251866 0.702210
vt 0.500826 0.630008
vt 0.281969 0.705939
vt 0.542301 0.589987
vt 0.311567 0.706466
vt 0.020154 0.563537
vt 0.590607 0.549161
vt 0.422450 0.654006
vt 0.454378 0.638540
vt 0.256294 0.675323
vt 0.490104 0.615836
vt 0.283833 0.678095
vt 0.534013 0.581194
vt 0.310765 0.678374
vt 0.027469 0.556862
vt 0.080119 0.592438
vt 0.583015 0.543310
vt 0.337582 0.676542
vt 0.127252 0.625408
vt 0.364835 0.672217
vt 0.164688 0.646448
vt 0.392695 0.664735
vt 0.197363 0.660370
vt 0.227930 0.669424
vt 0.032293 0.552199
vt 0.581511 0.541989
s 0
usemtl マテリアル
f 4/1/1 15/2/1 5/3/1
f 475/4/2 7/5/2 8/6/2
f 5/3/3 16/7/3 478/8/3
f 1/9/4 8/6/4 9/10/4
f 478/8/5 17/11/5 6/12/5
f 476/13/6 9/10/6 10/14/6
f 479/15/7 17/11/7 18/16/7
f 476/13/8 11/17/8 2/18/8
f 479/15/9 19/19/9 480/20/9
f 477/21/10 11/17/10 12/22/10
f 480/20/11 20/23/11 481/24/11
f 3/25/12 12/22/12 13/26/12
f 481/24/13 21/27/13 482/28/13
f 3/25/14 14/29/14 4/1/14
f 474/30/15 82/31/15 7/5/15
f 308/32/16 482/28/16 21/27/16
f 13/26/17 29/33/17 14/29/17
f 7/5/18 82/34/18 22/35/18
f 308/36/19 21/27/19 36/37/19
f 14/29/20 30/38/20 15/2/20
f 7/5/21 23/39/21 8/6/21
f 15/2/22 31/40/22 16/7/22
f 8/6/23 24/41/23 9/10/23
f 17/11/24 31/40/24 32/42/24
f 9/10/25 25/43/25 10/14/25
f 18/16/26 32/42/26 33/44/26
f 10/14/27 26/45/27 11/17/27
f 19/19/28 33/44/28 34/46/28
f 11/17/29 27/47/29 12/22/29
f 20/23/30 34/46/30 35/48/30
f 13/26/31 27/47/31 28/49/31
f 20/23/32 36/37/32 21/27/32
f 33/44/33 47/50/33 48/51/33
f 25/43/34 41/52/34 26/45/34
f 34/46/35 48/51/35 49/53/35
f 26/45/36 42/54/36 27/47/36
f 35/48/37 49/53/37 50/55/37
f 28/49/38 42/54/38 43/56/38
f 36/37/39 50/55/39 51/57/39
f 29/33/40 43/56/40 44/58/40
f 22/35/41 82/59/41 37/60/41
f 308/61/42 36/37/42 51/57/42
f 29/33/43 45/62/43 30/38/43
f 22/35/44 38/63/44 23/39/44
f 30/38/45 46/64/45 31/40/45
f 23/39/46 39/65/46 24/41/46
f 32/42/47 46/64/47 47/50/47
f 24/41/48 40/66/48 25/43/48
f 37/60/49 82/67/49 52/68/49
f 308/69/50 51/57/50 66/70/50
f 44/58/51 60/71/51 45/62/51
f 37/60/52 53/72/52 38/63/52
f 45/62/53 61/73/53 46/64/53
f 38/63/54 54/74/54 39/65/54
f 47/50/55 61/73/55 62/75/55
f 39/65/56 55/76/56 40/66/56
f 47/50/57 63/77/57 48/51/57
f 41/52/58 55/76/58 56/78/58
f 49/53/59 63/77/59 64/79/59
f 41/52/60 57/80/60 42/54/60
f 50/55/61 64/79/61 65/81/61
f 43/56/62 57/80/62 58/82/62
f 51/57/63 65/81/63 66/70/63
f 44/58/64 58/82/64 59/83/64
f 56/78/65 70/84/65 71/85/65
f 64/79/66 78/86/66 79/87/66
f 56/78/67 72/88/67 57/80/67
f 64/79/68 80/89/68 65/81/68
f 58/82/69 72/88/69 73/90/69
f 65/81/70 81/91/70 66/70/70
f 59/83/71 73/90/71 74/92/71
f 52/68/72 82/93/72 67/94/72
f 308/95/73 66/70/73 81/91/73
f 59/83/74 75/96/74 60/71/74
f 53/72/75 67/94/75 68/97/75
f 60/71/76 76/98/76 61/73/76
f 54/74/77 68/97/77 69/99/77
f 62/75/78 76/98/78 77/100/78
f 54/74/79 70/84/79 55/76/79
f 62/75/80 78/86/80 63/77/80
f 74/92/81 91/101/81 75/96/81
f 67/94/82 84/102/82 68/97/82
f 75/96/83 92/103/83 76/98/83
f 68/97/84 85/104/84 69/99/84
f 77/100/85 92/103/85 93/105/85
f 69/99/86 86/106/86 70/84/86
f 77/100/87 94/107/87 78/86/87
f 71/85/88 86/106/88 87/108/88
f 79/87/89 94/107/89 95/109/89
f 71/85/90 88/110/90 72/88/90
f 80/89/91 95/109/91 96/111/91
f 73/90/92 88/110/92 89/112/92
f 81/91/93 96/111/93 97/113/93
f 74/92/94 89/112/94 90/114/94
f 67/94/95 82/115/95 83/116/95
f 308/117/96 81/91/96 97/113/96
f 95/109/97 109/118/97 110/119/97
f 87/108/98 103/120/98 88/110/98
f 95/109/99 111/121/99 96/111/99
f 89/112/100 103/120/100 104/122/100
f 96/111/101 112/123/101 97/113/101
f 90/114/102 104/122/102 105/124/102
f 83/116/103 82/125/103 98/126/103
f 308/127/104 97/113/104 112/123/104
f 90/114/105 106/128/105 91/101/105
f 83/116/106 99/129/106 84/102/106
f 91/101/107 107/130/107 92/103/107
f 85/104/108 99/129/108 100/131/108
f 93/105/109 107/130/109 108/132/109
f 85/104/110 101/133/110 86/106/110
f 93/105/111 109/118/111 94/107/111
f 87/108/112 101/133/112 102/134/112
f 106/128/113 122/135/113 107/130/113
f 99/129/114 115/136/114 100/131/114
f 108/132/115 122/135/115 123/137/115
f 100/131/116 116/138/116 101/133/116
f 108/132/117 124/139/117 109/118/117
f 102/134/118 116/138/118 117/140/118
f 110/119/119 124/139/119 125/141/119
f 102/134/120 118/142/120 103/120/120
f 111/121/121 125/141/121 126/143/121
f 104/122/122 118/142/122 119/144/122
f 111/121/123 127/145/123 112/123/123
f 105/124/124 119/144/124 120/146/124
f 98/126/125 82/147/125 113/148/125
f 308/149/126 112/123/126 127/145/126
f 105/124/127 121/150/127 106/128/127
f 98/126/128 114/151/128 99/129/128
f 125/141/129 141/152/129 126/143/129
f 119/144/130 133/153/130 134/154/130
f 126/143/131 142/155/131 127/145/131
f 120/146/132 134/154/132 135/156/132
f 113/148/133 82/157/133 128/158/133
f 308/159/134 127/145/134 142/155/134
f 120/146/135 136/160/135 121/150/135
f 114/151/136 128/158/136 129/161/136
f 121/150/137 137/162/137 122/135/137
f 115/136/138 129/161/138 130/163/138
f 123/137/139 137/162/139 138/164/139
f 115/136/140 131/165/140 116/138/140
f 123/137/141 139/166/141 124/139/141
f 117/140/142 131/165/142 132/167/142
f 125/141/143 139/166/143 140/168/143
f 117/140/144 133/153/144 118/142/144
f 129/161/145 145/169/145 130/163/145
f 138/164/146 152/170/146 153/171/146
f 130/163/147 146/172/147 131/165/147
f 138/164/148 154/173/148 139/166/148
f 132/167/149 146/172/149 147/174/149
f 140/168/150 154/173/150 155/175/150
f 132/167/151 148/176/151 133/153/151
f 141/152/152 155/175/152 156/177/152
f 134/154/153 148/176/153 149/178/153
f 141/152/154 157/179/154 142/155/154
f 135/156/155 149/178/155 150/180/155
f 128/158/156 82/181/156 143/182/156
f 308/183/157 142/155/157 157/179/157
f 135/156/158 151/184/158 136/160/158
f 128/158/159 144/185/159 129/161/159
f 136/160/160 152/170/160 137/162/160
f 149/178/161 163/186/161 164/187/161
f 157/179/162 171/188/162 172/189/162
f 150/180/163 164/187/163 165/190/163
f 143/182/164 82/191/164 158/192/164
f 308/193/165 157/179/165 172/189/165
f 150/180/166 166/194/166 151/184/166
f 143/182/167 159/195/167 144/185/167
f 151/184/168 167/196/168 152/170/168
f 144/185/169 160/197/169 145/169/169
f 153/171/170 167/196/170 168/198/170
f 145/169/171 161/199/171 146/172/171
f 153/171/172 169/200/172 154/173/172
f 147/174/173 161/199/173 162/201/173
f 155/175/174 169/200/174 170/202/174
f 147/174/175 163/186/175 148/176/175
f 156/177/176 170/202/176 171/188/176
f 168/198/177 182/203/177 183/204/177
f 160/197/178 176/205/178 161/199/178
f 168/198/179 184/206/179 169/200/179
f 162/201/180 176/205/180 177/207/180
f 170/202/181 184/206/181 185/208/181
f 162/201/182 178/209/182 163/186/182
f 171/188/183 185/208/183 186/210/183
f 164/187/184 178/209/184 179/211/184
f 172/189/185 186/210/185 187/212/185
f 165/190/186 179/211/186 180/213/186
f 158/192/187 82/214/187 173/215/187
f 308/216/188 172/189/188 187/212/188
f 165/190/189 181/217/189 166/194/189
f 158/192/190 174/218/190 159/195/190
f 166/194/191 182/203/191 167/196/191
f 159/195/192 175/219/192 160/197/192
f 186/210/193 202/220/193 187/212/193
f 180/213/194 194/221/194 195/222/194
f 173/215/195 82/223/195 188/224/195
f 308/225/196 187/212/196 202/220/196
f 180/213/197 196/226/197 181/217/197
f 174/218/198 188/224/198 189/227/198
f 181/217/199 197/228/199 182/203/199
f 175/219/200 189/227/200 190/229/200
f 183/204/201 197/228/201 198/230/201
f 175/219/202 191/231/202 176/205/202
f 183/204/203 199/232/203 184/206/203
f 177/207/204 191/231/204 192/233/204
f 185/208/205 199/232/205 200/234/205
f 177/207/206 193/235/206 178/209/206
f 185/208/207 201/236/207 186/210/207
f 179/211/208 193/235/208 194/221/208
f 190/229/209 206/237/209 191/231/209
f 198/230/210 214/238/210 199/232/210
f 192/233/211 206/237/211 207/239/211
f 200/234/212 214/238/212 215/240/212
f 192/233/213 208/241/213 193/235/213
f 201/236/214 215/240/214 216/242/214
f 194/221/215 208/241/215 209/243/215
f 202/220/216 216/242/216 217/244/216
f 195/222/217 209/243/217 210/245/217
f 188/224/218 82/246/218 203/247/218
f 308/248/219 202/220/219 217/244/219
f 195/222/220 211/249/220 196/226/220
f 188/224/221 204/250/221 189/227/221
f 196/226/222 212/251/222 197/228/222
f 189/227/223 205/252/223 190/229/223
f 198/230/224 212/251/224 213/253/224
f 210/245/225 224/254/225 225/255/225
f 203/247/226 82/256/226 218/257/226
f 308/258/227 217/244/227 232/259/227
f 210/245/228 226/260/228 211/249/228
f 203/247/229 219/261/229 204/250/229
f 211/249/230 227/262/230 212/251/230
f 204/250/231 220/263/231 205/252/231
f 213/253/232 227/262/232 228/264/232
f 205/252/233 221/265/233 206/237/233
f 213/253/234 229/266/234 214/238/234
f 207/239/235 221/265/235 222/267/235
f 215/240/236 229/266/236 230/268/236
f 207/239/237 223/269/237 208/241/237
f 216/242/238 230/268/238 231/270/238
f 209/243/239 223/269/239 224/254/239
f 217/244/240 231/270/240 232/259/240
f 228/264/241 244/271/241 229/266/241
f 222/267/242 236/272/242 237/273/242
f 230/268/243 244/271/243 245/274/243
f 222/267/244 238/275/244 223/269/244
f 231/270/245 245/274/245 246/276/245
f 224/254/246 238/275/246 239/277/246
f 231/270/247 247/278/247 232/259/247
f 225/255/248 239/277/248 240/279/248
f 218/257/249 82/280/249 233/281/249
f 308/282/250 232/259/250 247/278/250
f 225/255/251 241/283/251 226/260/251
f 219/261/252 233/281/252 234/284/252
f 226/260/253 242/285/253 227/262/253
f 219/261/254 235/286/254 220/263/254
f 228/264/255 242/285/255 243/287/255
f 220/263/256 236/272/256 221/265/256
f 308/288/257 247/278/257 262/289/257
f 240/279/258 256/290/258 241/283/258
f 234/284/259 248/291/259 249/292/259
f 241/283/260 257/293/260 242/285/260
f 235/286/261 249/292/261 250/294/261
f 243/287/262 257/293/262 258/295/262
f 235/286/263 251/296/263 236/272/263
f 243/287/264 259/297/264 244/271/264
f 237/273/265 251/296/265 252/298/265
f 245/274/266 259/297/266 260/299/266
f 237/273/267 253/300/267 238/275/267
f 245/274/268 261/301/268 246/276/268
f 239/277/269 253/300/269 254/302/269
f 246/276/270 262/289/270 247/278/270
f 240/279/271 254/302/271 255/303/271
f 233/281/272 82/304/272 248/291/272
f 260/299/273 274/305/273 275/306/273
f 252/298/274 268/307/274 253/300/274
f 261/301/275 275/306/275 276/308/275
f 254/302/276 268/307/276 269/309/276
f 261/301/277 277/310/277 262/289/277
f 255/303/278 269/309/278 270/311/278
f 248/291/279 82/312/279 263/313/279
f 308/314/280 262/289/280 277/310/280
f 255/303/281 271/315/281 256/290/281
f 249/292/282 263/313/282 264/316/282
f 256/290/283 272/317/283 257/293/283
f 249/292/284 265/318/284 250/294/284
f 258/295/285 272/317/285 273/319/285
f 250/294/286 266/320/286 251/296/286
f 258/295/287 274/305/287 259/297/287
f 252/298/288 266/320/288 267/321/288
f 263/313/289 279/322/289 264/316/289
f 271/315/290 287/323/290 272/317/290
f 264/316/291 280/324/291 265/318/291
f 273/319/292 287/323/292 288/325/292
f 265/318/293 281/326/293 266/320/293
f 273/319/294 289/327/294 274/305/294
f 267/321/295 281/326/295 282/328/295
f 275/306/296 289/327/296 290/329/296
f 267/321/297 283/330/297 268/307/297
f 275/306/298 291/331/298 276/308/298
f 269/309/299 283/330/299 284/332/299
f 276/308/300 292/333/300 277/310/300
f 270/311/301 284/332/301 285/334/301
f 263/313/302 82/335/302 278/336/302
f 308/337/303 277/310/303 292/333/303
f 270/311/304 286/338/304 271/315/304
f 282/328/305 298/339/305 283/330/305
f 290/329/306 306/340/306 291/331/306
f 284/332/307 298/339/307 299/341/307
f 292/333/308 306/340/308 307/342/308
f 285/334/309 299/341/309 300/343/309
f 278/336/310 82/344/310 293/345/310
f 308/346/311 292/333/311 307/342/311
f 285/334/312 301/347/312 286/338/312
f 278/336/313 294/348/313 279/322/313
f 286/338/314 302/349/314 287/323/314
f 280/324/315 294/348/315 295/350/315
f 288/325/316 302/349/316 303/351/316
f 280/324/317 296/352/317 281/326/317
f 288/325/318 304/353/318 289/327/318
f 282/328/319 296/352/319 297/354/319
f 290/329/320 304/353/320 305/355/320
f 301/347/321 318/356/321 302/349/321
f 295/350/322 310/357/322 311/358/322
f 303/351/323 318/356/323 319/359/323
f 295/350/324 312/360/324 296/352/324
f 303/351/325 320/361/325 304/353/325
f 297/354/326 312/360/326 313/362/326
f 305/355/327 320/361/327 321/363/327
f 297/354/328 314/364/328 298/339/328
f 305/355/329 322/365/329 306/340/329
f 299/341/330 314/364/330 315/366/330
f 306/340/331 323/367/331 307/342/331
f 300/343/332 315/366/332 316/368/332
f 293/345/333 82/369/333 309/370/333
f 308/371/334 307/342/334 323/367/334
f 300/343/335 317/372/335 301/347/335
f 294/348/336 309/370/336 310/357/336
f 321/363/337 337/373/337 322/365/337
f 315/366/338 329/374/338 330/375/338
f 323/367/339 337/373/339 338/376/339
f 316/368/340 330/375/340 331/377/340
f 309/370/341 82/378/341 324/379/341
f 308/380/342 323/367/342 338/376/342
f 316/368/343 332/381/343 317/372/343
f 309/370/344 325/382/344 310/357/344
f 317/372/345 333/383/345 318/356/345
f 310/357/346 326/384/346 311/358/346
f 319/359/347 333/383/347 334/385/347
f 311/358/348 327/386/348 312/360/348
f 319/359/349 335/387/349 320/361/349
f 313/362/350 327/386/350 328/388/350
f 321/363/351 335/387/351 336/389/351
f 313/362/352 329/374/352 314/364/352
f 326/384/353 340/390/353 341/391/353
f 334/385/354 348/392/354 349/393/354
f 326/384/355 342/394/355 327/386/355
f 334/385/356 350/395/356 335/387/356
f 328/388/357 342/394/357 343/396/357
f 336/389/358 350/395/358 351/397/358
f 328/388/359 344/398/359 329/374/359
f 336/389/360 352/399/360 337/373/360
f 330/375/361 344/398/361 345/400/361
f 338/376/362 352/399/362 353/401/362
f 331/377/363 345/400/363 346/402/363
f 324/379/364 82/403/364 339/404/364
f 308/405/365 338/376/365 353/401/365
f 331/377/366 347/406/366 332/381/366
f 324/379/367 340/390/367 325/382/367
f 332/381/368 348/392/368 333/383/368
f 345/400/369 359/407/369 360/408/369
f 353/401/370 367/409/370 368/410/370
f 346/402/371 360/408/371 361/411/371
f 339/404/372 82/412/372 354/413/372
f 308/414/373 353/401/373 368/410/373
f 346/402/374 362/415/374 347/406/374
f 339/404/375 355/416/375 340/390/375
f 347/406/376 363/417/376 348/392/376
f 341/391/377 355/416/377 356/418/377
f 349/393/378 363/417/378 364/419/378
f 341/391/379 357/420/379 342/394/379
f 349/393/380 365/421/380 350/395/380
f 343/396/381 357/420/381 358/422/381
f 351/397/382 365/421/382 366/423/382
f 343/396/383 359/407/383 344/398/383
f 351/397/384 367/409/384 352/399/384
f 364/424/385 378/425/385 379/426/385
f 356/427/386 372/428/386 357/429/386
f 364/424/387 380/430/387 365/431/387
f 358/432/388 372/428/388 373/433/388
f 366/434/389 380/430/389 381/435/389
f 358/432/390 374/436/390 359/437/390
f 366/434/391 382/438/391 367/439/391
f 360/440/392 374/436/392 375/441/392
f 367/439/393 383/442/393 368/443/393
f 361/444/394 375/441/394 376/445/394
f 354/446/395 82/447/395 369/448/395
f 308/449/396 368/443/396 383/442/396
f 361/444/397 377/450/397 362/451/397
f 355/452/398 369/448/398 370/453/398
f 362/451/399 378/425/399 363/454/399
f 356/427/400 370/453/400 371/455/400
f 382/438/401 398/456/401 383/442/401
f 376/445/402 390/457/402 391/458/402
f 369/448/403 82/459/403 384/460/403
f 308/461/404 383/442/404 398/456/404
f 376/445/405 392/462/405 377/450/405
f 370/453/406 384/460/406 385/463/406
f 377/450/407 393/464/407 378/425/407
f 371/455/408 385/463/408 386/465/408
f 379/426/409 393/464/409 394/466/409
f 371/455/410 387/467/410 372/428/410
f 379/426/411 395/468/411 380/430/411
f 373/433/412 387/467/412 388/469/412
f 381/435/413 395/468/413 396/470/413
f 373/433/414 389/471/414 374/436/414
f 381/435/415 397/472/415 382/438/415
f 375/441/416 389/471/416 390/457/416
f 394/466/417 410/473/417 395/468/417
f 388/469/418 402/474/418 403/475/418
f 396/470/419 410/473/419 411/476/419
f 388/469/420 404/477/420 389/471/420
f 396/470/421 412/478/421 397/472/421
f 390/457/422 404/477/422 405/479/422
f 398/456/423 412/478/423 413/480/423
f 391/458/424 405/479/424 406/481/424
f 384/460/425 82/482/425 399/483/425
f 308/484/426 398/456/426 413/480/426
f 391/458/427 407/485/427 392/462/427
f 384/460/428 400/486/428 385/463/428
f 392/462/429 408/487/429 393/464/429
f 386/465/430 400/486/430 401/488/430
f 394/466/431 408/487/431 409/489/431
f 386/465/432 402/474/432 387/467/432
f 399/483/433 82/490/433 414/491/433
f 308/492/434 413/480/434 428/493/434
f 406/481/435 422/494/435 407/485/435
f 399/483/436 415/495/436 400/486/436
f 407/485/437 423/496/437 408/487/437
f 401/488/438 415/495/438 416/497/438
f 409/489/439 423/496/439 424/498/439
f 401/488/440 417/499/440 402/474/440
f 409/489/441 425/500/441 410/473/441
f 403/475/442 417/499/442 418/501/442
f 411/476/443 425/500/443 426/502/443
f 403/475/444 419/503/444 404/477/444
f 411/476/445 427/504/445 412/478/445
f 405/479/446 419/503/446 420/505/446
f 412/478/447 428/493/447 413/480/447
f 406/481/448 420/505/448 421/506/448
f 418/501/449 432/507/449 433/508/449
f 426/502/450 440/509/450 441/510/450
f 418/501/451 434/511/451 419/503/451
f 426/502/452 442/512/452 427/504/452
f 420/505/453 434/511/453 435/513/453
f 428/493/454 442/512/454 443/514/454
f 421/506/455 435/513/455 436/515/455
f 414/491/456 82/516/456 429/517/456
f 308/518/457 428/493/457 443/514/457
f 421/506/458 437/519/458 422/494/458
f 414/491/459 430/520/459 415/495/459
f 422/494/460 438/521/460 423/496/460
f 416/497/461 430/520/461 431/522/461
f 424/498/462 438/521/462 439/523/462
f 416/497/463 432/507/463 417/499/463
f 424/498/464 440/509/464 425/500/464
f 436/515/465 452/524/465 437/519/465
f 430/520/466 444/525/466 445/526/466
f 437/519/467 453/527/467 438/521/467
f 431/522/468 445/526/468 446/528/468
f 439/523/469 453/527/469 454/529/469
f 431/522/470 447/530/470 432/507/470
f 439/523/471 455/531/471 440/509/471
f 433/508/472 447/530/472 448/532/472
f 441/510/473 455/531/473 456/533/473
f 433/508/474 449/534/474 434/511/474
f 441/510/475 457/535/475 442/512/475
f 435/513/476 449/534/476 450/536/476
f 442/512/477 458/537/477 443/514/477
f 436/515/478 450/536/478 451/538/478
f 429/517/479 82/539/479 444/525/479
f 308/540/480 443/514/480 458/537/480
f 456/533/481 470/541/481 471/542/481
f 448/532/482 464/543/482 449/534/482
f 456/533/483 472/544/483 457/535/483
f 450/536/484 464/543/484 465/545/484
f 458/537/485 472/544/485 473/546/485
f 451/538/486 465/545/486 466/547/486
f 444/525/487 82/548/487 459/549/487
f 308/550/488 458/537/488 473/546/488
f 451/538/489 467/551/489 452/524/489
f 444/525/490 460/552/490 445/526/490
f 452/524/491 468/553/491 453/527/491
f 446/528/492 460/552/492 461/554/492
f 454/529/493 468/553/493 469/555/493
f 446/528/494 462/556/494 447/530/494
f 454/529/495 470/541/495 455/531/495
f 448/532/496 462/556/496 463/557/496
f 459/549/497 475/4/497 460/552/497
f 467/551/498 478/8/498 468/553/498
f 461/554/499 475/4/499 1/9/499
f 468/553/500 6/12/500 469/555/500
f 462/556/501 1/9/501 476/13/501
f 469/555/502 479/15/502 470/541/502
f 463/557/503 476/13/503 2/18/503
f 471/542/504 479/15/504 480/20/504
f 464/543/505 2/18/505 477/21/505
f 471/542/506 481/24/506 472/544/506
f 465/545/507 477/21/507 3/25/507
f 472/544/508 482/28/508 473/546/508
f 466/547/509 3/25/509 4/1/509
f 459/549/510 82/558/510 474/30/510
f 308/559/511 473/546/511 482/28/511
f 466/547/512 5/3/512 467/551/512
f 4/1/513 14/29/513 15/2/513
f 475/4/2 474/30/2 7/5/2
f 5/3/3 15/2/3 16/7/3
f 1/9/4 475/4/4 8/6/4
f 478/8/5 16/7/5 17/11/5
f 476/13/6 1/9/6 9/10/6
f 479/15/7 6/12/7 17/11/7
f 476/13/8 10/14/8 11/17/8
f 479/15/9 18/16/9 19/19/9
f 477/21/10 2/18/10 11/17/10
f 480/20/11 19/19/11 20/23/11
f 3/25/12 477/21/12 12/22/12
f 481/24/13 20/23/13 21/27/13
f 3/25/514 13/26/514 14/29/514
f 13/26/17 28/49/17 29/33/17
f 14/29/20 29/33/20 30/38/20
f 7/5/21 22/35/21 23/39/21
f 15/2/22 30/38/22 31/40/22
f 8/6/23 23/39/23 24/41/23
f 17/11/24 16/7/24 31/40/24
f 9/10/25 24/41/25 25/43/25
f 18/16/26 17/11/26 32/42/26
f 10/14/27 25/43/27 26/45/27
f 19/19/28 18/16/28 33/44/28
f 11/17/29 26/45/29 27/47/29
f 20/23/30 19/19/30 34/46/30
f 13/26/31 12/22/31 27/47/31
f 20/23/32 35/48/32 36/37/32
f 33/44/33 32/42/33 47/50/33
f 25/43/34 40/66/34 41/52/34
f 34/46/35 33/44/35 48/51/35
f 26/45/36 41/52/36 42/54/36
f 35/48/515 34/46/515 49/53/515
f 28/49/38 27/47/38 42/54/38
f 36/37/39 35/48/39 50/55/39
f 29/33/40 28/49/40 43/56/40
f 29/33/43 44/58/43 45/62/43
f 22/35/44 37/60/44 38/63/44
f 30/38/45 45/62/45 46/64/45
f 23/39/516 38/63/516 39/65/516
f 32/42/47 31/40/47 46/64/47
f 24/41/48 39/65/48 40/66/48
f 44/58/51 59/83/51 60/71/51
f 37/60/52 52/68/52 53/72/52
f 45/62/53 60/71/53 61/73/53
f 38/63/54 53/72/54 54/74/54
f 47/50/55 46/64/55 61/73/55
f 39/65/56 54/74/56 55/76/56
f 47/50/57 62/75/57 63/77/57
f 41/52/58 40/66/58 55/76/58
f 49/53/59 48/51/59 63/77/59
f 41/52/60 56/78/60 57/80/60
f 50/55/61 49/53/61 64/79/61
f 43/56/62 42/54/62 57/80/62
f 51/57/63 50/55/63 65/81/63
f 44/58/64 43/56/64 58/82/64
f 56/78/65 55/76/65 70/84/65
f 64/79/66 63/77/66 78/86/66
f 56/78/67 71/85/67 72/88/67
f 64/79/68 79/87/68 80/89/68
f 58/82/69 57/80/69 72/88/69
f 65/81/70 80/89/70 81/91/70
f 59/83/71 58/82/71 73/90/71
f 59/83/74 74/92/74 75/96/74
f 53/72/75 52/68/75 67/94/75
f 60/71/76 75/96/76 76/98/76
f 54/74/77 53/72/77 68/97/77
f 62/75/78 61/73/78 76/98/78
f 54/74/79 69/99/79 70/84/79
f 62/75/80 77/100/80 78/86/80
f 74/92/81 90/114/81 91/101/81
f 67/94/82 83/116/82 84/102/82
f 75/96/83 91/101/83 92/103/83
f 68/97/517 84/102/517 85/104/517
f 77/100/85 76/98/85 92/103/85
f 69/99/86 85/104/86 86/106/86
f 77/100/87 93/105/87 94/107/87
f 71/85/88 70/84/88 86/106/88
f 79/87/89 78/86/89 94/107/89
f 71/85/90 87/108/90 88/110/90
f 80/89/518 79/87/518 95/109/518
f 73/90/92 72/88/92 88/110/92
f 81/91/93 80/89/93 96/111/93
f 74/92/94 73/90/94 89/112/94
f 95/109/97 94/107/97 109/118/97
f 87/108/98 102/134/98 103/120/98
f 95/109/99 110/119/99 111/121/99
f 89/112/100 88/110/100 103/120/100
f 96/111/101 111/121/101 112/123/101
f 90/114/102 89/112/102 104/122/102
f 90/114/105 105/124/105 106/128/105
f 83/116/106 98/126/106 99/129/106
f 91/101/107 106/128/107 107/130/107
f 85/104/108 84/102/108 99/129/108
f 93/105/109 92/103/109 107/130/109
f 85/104/110 100/131/110 101/133/110
f 93/105/111 108/132/111 109/118/111
f 87/108/112 86/106/112 101/133/112
f 106/128/113 121/150/113 122/135/113
f 99/129/114 114/151/114 115/136/114
f 108/132/115 107/130/115 122/135/115
f 100/131/116 115/136/116 116/138/116
f 108/132/117 123/137/117 124/139/117
f 102/134/118 101/133/118 116/138/118
f 110/119/119 109/118/119 124/139/119
f 102/134/120 117/140/120 118/142/120
f 111/121/121 110/119/121 125/141/121
f 104/122/122 103/120/122 118/142/122
f 111/121/123 126/143/123 127/145/123
f 105/124/124 104/122/124 119/144/124
f 105/124/127 120/146/127 121/150/127
f 98/126/128 113/148/128 114/151/128
f 125/141/129 140/168/129 141/152/129
f 119/144/130 118/142/130 133/153/130
f 126/143/131 141/152/131 142/155/131
f 120/146/519 119/144/519 134/154/519
f 120/146/520 135/156/520 136/160/520
f 114/151/136 113/148/136 128/158/136
f 121/150/137 136/160/137 137/162/137
f 115/136/138 114/151/138 129/161/138
f 123/137/139 122/135/139 137/162/139
f 115/136/140 130/163/140 131/165/140
f 123/137/141 138/164/141 139/166/141
f 117/140/142 116/138/142 131/165/142
f 125/141/143 124/139/143 139/166/143
f 117/140/144 132/167/144 133/153/144
f 129/161/145 144/185/145 145/169/145
f 138/164/146 137/162/146 152/170/146
f 130/163/147 145/169/147 146/172/147
f 138/164/148 153/171/148 154/173/148
f 132/167/149 131/165/149 146/172/149
f 140/168/150 139/166/150 154/173/150
f 132/167/151 147/174/151 148/176/151
f 141/152/152 140/168/152 155/175/152
f 134/154/153 133/153/153 148/176/153
f 141/152/154 156/177/154 157/179/154
f 135/156/155 134/154/155 149/178/155
f 135/156/158 150/180/158 151/184/158
f 128/158/159 143/182/159 144/185/159
f 136/160/160 151/184/160 152/170/160
f 149/178/161 148/176/161 163/186/161
f 157/179/162 156/177/162 171/188/162
f 150/180/163 149/178/163 164/187/163
f 150/180/166 165/190/166 166/194/166
f 143/182/167 158/192/167 159/195/167
f 151/184/168 166/194/168 167/196/168
f 144/185/521 159/195/521 160/197/521
f 153/171/170 152/170/170 167/196/170
f 145/169/171 160/197/171 161/199/171
f 153/171/172 168/198/172 169/200/172
f 147/174/173 146/172/173 161/199/173
f 155/175/174 154/173/174 169/200/174
f 147/174/175 162/201/175 163/186/175
f 156/177/522 155/175/522 170/202/522
f 168/198/177 167/196/177 182/203/177
f 160/197/178 175/219/178 176/205/178
f 168/198/179 183/204/179 184/206/179
f 162/201/180 161/199/180 176/205/180
f 170/202/181 169/200/181 184/206/181
f 162/201/182 177/207/182 178/209/182
f 171/188/183 170/202/183 185/208/183
f 164/187/184 163/186/184 178/209/184
f 172/189/185 171/188/185 186/210/185
f 165/190/186 164/187/186 179/211/186
f 165/190/189 180/213/189 181/217/189
f 158/192/190 173/215/190 174/218/190
f 166/194/191 181/217/191 182/203/191
f 159/195/192 174/218/192 175/219/192
f 186/210/193 201/236/193 202/220/193
f 180/213/194 179/211/194 194/221/194
f 180/213/197 195/222/197 196/226/197
f 174/218/198 173/215/198 188/224/198
f 181/217/199 196/226/199 197/228/199
f 175/219/200 174/218/200 189/227/200
f 183/204/201 182/203/201 197/228/201
f 175/219/202 190/229/202 191/231/202
f 183/204/203 198/230/203 199/232/203
f 177/207/204 176/205/204 191/231/204
f 185/208/205 184/206/205 199/232/205
f 177/207/206 192/233/206 193/235/206
f 185/208/207 200/234/207 201/236/207
f 179/211/208 178/209/208 193/235/208
f 190/229/209 205/252/209 206/237/209
f 198/230/210 213/253/210 214/238/210
f 192/233/211 191/231/211 206/237/211
f 200/234/212 199/232/212 214/238/212
f 192/233/213 207/239/213 208/241/213
f 201/236/523 200/234/523 215/240/523
f 194/221/215 193/235/215 208/241/215
f 202/220/216 201/236/216 216/242/216
f 195/222/217 194/221/217 209/243/217
f 195/222/220 210/245/220 211/249/220
f 188/224/221 203/247/221 204/250/221
f 196/226/222 211/249/222 212/251/222
f 189/227/524 204/250/524 205/252/524
f 198/230/224 197/228/224 212/251/224
f 210/245/225 209/243/225 224/254/225
f 210/245/228 225/255/228 226/260/228
f 203/247/229 218/257/229 219/261/229
f 211/249/230 226/260/230 227/262/230
f 204/250/231 219/261/231 220/263/231
f 213/253/232 212/251/232 227/262/232
f 205/252/233 220/263/233 221/265/233
f 213/253/234 228/264/234 229/266/234
f 207/239/235 206/237/235 221/265/235
f 215/240/236 214/238/236 229/266/236
f 207/239/237 222/267/237 223/269/237
f 216/242/238 215/240/238 230/268/238
f 209/243/239 208/241/239 223/269/239
f 217/244/240 216/242/240 231/270/240
f 228/264/241 243/287/241 244/271/241
f 222/267/242 221/265/242 236/272/242
f 230/268/243 229/266/243 244/271/243
f 222/267/244 237/273/244 238/275/244
f 231/270/245 230/268/245 245/274/245
f 224/254/246 223/269/246 238/275/246
f 231/270/247 246/276/247 247/278/247
f 225/255/248 224/254/248 239/277/248
f 225/255/251 240/279/251 241/283/251
f 219/261/252 218/257/252 233/281/252
f 226/260/253 241/283/253 242/285/253
f 219/261/254 234/284/254 235/286/254
f 228/264/255 227/262/255 242/285/255
f 220/263/256 235/286/256 236/272/256
f 240/279/525 255/303/525 256/290/525
f 234/284/259 233/281/259 248/291/259
f 241/283/260 256/290/260 257/293/260
f 235/286/261 234/284/261 249/292/261
f 243/287/262 242/285/262 257/293/262
f 235/286/263 250/294/263 251/296/263
f 243/287/264 258/295/264 259/297/264
f 237/273/265 236/272/265 251/296/265
f 245/274/266 244/271/266 259/297/266
f 237/273/267 252/298/267 253/300/267
f 245/274/268 260/299/268 261/301/268
f 239/277/269 238/275/269 253/300/269
f 246/276/270 261/301/270 262/289/270
f 240/279/526 239/277/526 254/302/526
f 260/299/273 259/297/273 274/305/273
f 252/298/274 267/321/274 268/307/274
f 261/301/275 260/299/275 275/306/275
f 254/302/276 253/300/276 268/307/276
f 261/301/277 276/308/277 277/310/277
f 255/303/278 254/302/278 269/309/278
f 255/303/281 270/311/281 271/315/281
f 249/292/282 248/291/282 263/313/282
f 256/290/283 271/315/283 272/317/283
f 249/292/284 264/316/284 265/318/284
f 258/295/285 257/293/285 272/317/285
f 250/294/286 265/318/286 266/320/286
f 258/295/287 273/319/287 274/305/287
f 252/298/288 251/296/288 266/320/288
f 263/313/289 278/336/289 279/322/289
f 271/315/290 286/338/290 287/323/290
f 264/316/291 279/322/291 280/324/291
f 273/319/292 272/317/292 287/323/292
f 265/318/293 280/324/293 281/326/293
f 273/319/294 288/325/294 289/327/294
f 267/321/295 266/320/295 281/326/295
f 275/306/296 274/305/296 289/327/296
f 267/321/297 282/328/297 283/330/297
f 275/306/298 290/329/298 291/331/298
f 269/309/299 268/307/299 283/330/299
f 276/308/300 291/331/300 292/333/300
f 270/311/301 269/309/301 284/332/301
f 270/311/304 285/334/304 286/338/304
f 282/328/305 297/354/305 298/339/305
f 290/329/306 305/355/306 306/340/306
f 284/332/307 283/330/307 298/339/307
f 292/333/308 291/331/308 306/340/308
f 285/334/309 284/332/309 299/341/309
f 285/334/312 300/343/312 301/347/312
f 278/336/313 293/345/313 294/348/313
f 286/338/314 301/347/314 302/349/314
f 280/324/315 279/322/315 294/348/315
f 288/325/316 287/323/316 302/349/316
f 280/324/317 295/350/317 296/352/317
f 288/325/318 303/351/318 304/353/318
f 282/328/319 281/326/319 296/352/319
f 290/329/320 289/327/320 304/353/320
f 301/347/321 317/372/321 318/356/321
f 295/350/322 294/348/322 310/357/322
f 303/351/323 302/349/323 318/356/323
f 295/350/324 311/358/324 312/360/324
f 303/351/325 319/359/325 320/361/325
f 297/354/326 296/352/326 312/360/326
f 305/355/327 304/353/327 320/361/327
f 297/354/328 313/362/328 314/364/328
f 305/355/329 321/363/329 322/365/329
f 299/341/330 298/339/330 314/364/330
f 306/340/331 322/365/331 323/367/331
f 300/343/332 299/341/332 315/366/332
f 300/343/335 316/368/335 317/372/335
f 294/348/336 293/345/336 309/370/336
f 321/363/527 336/389/527 337/373/527
f 315/366/338 314/364/338 329/374/338
f 323/367/339 322/365/339 337/373/339
f 316/368/340 315/366/340 330/375/340
f 316/368/343 331/377/343 332/381/343
f 309/370/344 324/379/344 325/382/344
f 317/372/345 332/381/345 333/383/345
f 310/357/528 325/382/528 326/384/528
f 319/359/347 318/356/347 333/383/347
f 311/358/348 326/384/348 327/386/348
f 319/359/349 334/385/349 335/387/349
f 313/362/350 312/360/350 327/386/350
f 321/363/351 320/361/351 335/387/351
f 313/362/352 328/388/352 329/374/352
f 326/384/353 325/382/353 340/390/353
f 334/385/354 333/383/354 348/392/354
f 326/384/355 341/391/355 342/394/355
f 334/385/356 349/393/356 350/395/356
f 328/388/357 327/386/357 342/394/357
f 336/389/358 335/387/358 350/395/358
f 328/388/359 343/396/359 344/398/359
f 336/389/360 351/397/360 352/399/360
f 330/375/361 329/374/361 344/398/361
f 338/376/362 337/373/362 352/399/362
f 331/377/363 330/375/363 345/400/363
f 331/377/366 346/402/366 347/406/366
f 324/379/367 339/404/367 340/390/367
f 332/381/368 347/406/368 348/392/368
f 345/400/369 344/398/369 359/407/369
f 353/401/370 352/399/370 367/409/370
f 346/402/371 345/400/371 360/408/371
f 346/402/374 361/411/374 362/415/374
f 339/404/375 354/413/375 355/416/375
f 347/406/376 362/415/376 363/417/376
f 341/391/377 340/390/377 355/416/377
f 349/393/378 348/392/378 363/417/378
f 341/391/379 356/418/379 357/420/379
f 349/393/380 364/419/380 365/421/380
f 343/396/381 342/394/381 357/420/381
f 351/397/382 350/395/382 365/421/382
f 343/396/383 358/422/383 359/407/383
f 351/397/384 366/423/384 367/409/384
f 364/424/385 363/454/385 378/425/385
f 356/427/386 371/455/386 372/428/386
f 364/424/387 379/426/387 380/430/387
f 358/432/388 357/429/388 372/428/388
f 366/434/389 365/431/389 380/430/389
f 358/432/390 373/433/390 374/436/390
f 366/434/391 381/435/391 382/438/391
f 360/440/392 359/437/392 374/436/392
f 367/439/393 382/438/393 383/442/393
f 361/444/529 360/440/529 375/441/529
f 361/444/530 376/445/530 377/450/530
f 355/452/398 354/446/398 369/448/398
f 362/451/399 377/450/399 378/425/399
f 356/427/400 355/452/400 370/453/400
f 382/438/401 397/472/401 398/456/401
f 376/445/402 375/441/402 390/457/402
f 376/445/405 391/458/405 392/462/405
f 370/453/406 369/448/406 384/460/406
f 377/450/407 392/462/407 393/464/407
f 371/455/408 370/453/408 385/463/408
f 379/426/409 378/425/409 393/464/409
f 371/455/410 386/465/410 387/467/410
f 379/426/411 394/466/411 395/468/411
f 373/433/412 372/428/412 387/467/412
f 381/435/413 380/430/413 395/468/413
f 373/433/414 388/469/414 389/471/414
f 381/435/415 396/470/415 397/472/415
f 375/441/416 374/436/416 389/471/416
f 394/466/417 409/489/417 410/473/417
f 388/469/418 387/467/418 402/474/418
f 396/470/419 395/468/419 410/473/419
f 388/469/420 403/475/420 404/477/420
f 396/470/421 411/476/421 412/478/421
f 390/457/422 389/471/422 404/477/422
f 398/456/423 397/472/423 412/478/423
f 391/458/424 390/457/424 405/479/424
f 391/458/427 406/481/427 407/485/427
f 384/460/428 399/483/428 400/486/428
f 392/462/429 407/485/429 408/487/429
f 386/465/430 385/463/430 400/486/430
f 394/466/431 393/464/431 408/487/431
f 386/465/432 401/488/432 402/474/432
f 406/481/435 421/506/435 422/494/435
f 399/483/436 414/491/436 415/495/436
f 407/485/437 422/494/437 423/496/437
f 401/488/438 400/486/438 415/495/438
f 409/489/439 408/487/439 423/496/439
f 401/488/440 416/497/440 417/499/440
f 409/489/441 424/498/441 425/500/441
f 403/475/442 402/474/442 417/499/442
f 411/476/443 410/473/443 425/500/443
f 403/475/444 418/501/444 419/503/444
f 411/476/445 426/502/445 427/504/445
f 405/479/446 404/477/446 419/503/446
f 412/478/447 427/504/447 428/493/447
f 406/481/448 405/479/448 420/505/448
f 418/501/449 417/499/449 432/507/449
f 426/502/450 425/500/450 440/509/450
f 418/501/451 433/508/451 434/511/451
f 426/502/452 441/510/452 442/512/452
f 420/505/453 419/503/453 434/511/453
f 428/493/454 427/504/454 442/512/454
f 421/506/455 420/505/455 435/513/455
f 421/506/458 436/515/458 437/519/458
f 414/491/459 429/517/459 430/520/459
f 422/494/460 437/519/460 438/521/460
f 416/497/461 415/495/461 430/520/461
f 424/498/462 423/496/462 438/521/462
f 416/497/463 431/522/463 432/507/463
f 424/498/464 439/523/464 440/509/464
f 436/515/465 451/538/465 452/524/465
f 430/520/466 429/517/466 444/525/466
f 437/519/467 452/524/467 453/527/467
f 431/522/531 430/520/531 445/526/531
f 439/523/469 438/521/469 453/527/469
f 431/522/470 446/528/470 447/530/470
f 439/523/471 454/529/471 455/531/471
f 433/508/472 432/507/472 447/530/472
f 441/510/473 440/509/473 455/531/473
f 433/508/474 448/532/474 449/534/474
f 441/510/532 456/533/532 457/535/532
f 435/513/476 434/511/476 449/534/476
f 442/512/477 457/535/477 458/537/477
f 436/515/478 435/513/478 450/536/478
f 456/533/481 455/531/481 470/541/481
f 448/532/482 463/557/482 464/543/482
f 456/533/483 471/542/483 472/544/483
f 450/536/484 449/534/484 464/543/484
f 458/537/485 457/535/485 472/544/485
f 451/538/486 450/536/486 465/545/486
f 451/538/489 466/547/489 467/551/489
f 444/525/490 459/549/490 460/552/490
f 452/524/491 467/551/491 468/553/491
f 446/528/492 445/526/492 460/552/492
f 454/529/493 453/527/493 468/553/493
f 446/528/494 461/554/494 462/556/494
f 454/529/495 469/555/495 470/541/495
f 448/532/496 447/530/496 462/556/496
f 459/549/497 474/30/497 475/4/497
f 467/551/498 5/3/498 478/8/498
f 461/554/499 460/552/499 475/4/499
f 468/553/500 478/8/500 6/12/500
f 462/556/501 461/554/501 1/9/501
f 469/555/502 6/12/502 479/15/502
f 463/557/503 462/556/503 476/13/503
f 471/542/504 470/541/504 479/15/504
f 464/543/505 463/557/505 2/18/505
f 471/542/506 480/20/506 481/24/506
f 465/545/507 464/543/507 477/21/507
f 472/544/508 481/24/508 482/28/508
f 466/547/509 465/545/509 3/25/509
f 466/547/512 4/1/512 5/3/512
