# Blender 4.1.1
# www.blender.org
mtllib sharkTop.mtl
o 立方体
v -10.394199 0.672611 10.335300
v -56.859406 0.917827 10.330538
v -10.393269 0.485285 -8.396899
v -56.858482 0.730501 -8.401663
v -9.921432 90.236443 9.439667
v -56.386650 90.481659 9.434904
v -9.920502 90.049110 -9.292534
v -56.385712 90.294342 -9.297297
v -12.758625 75.818878 -7.978384
v -12.691771 73.838776 -7.801112
v -12.627485 71.937927 -7.315755
v -12.568268 70.189377 -6.540962
v -12.516386 68.660301 -5.506509
v -12.473824 67.409485 -4.252149
v -12.442217 66.484985 -2.826086
v -12.422791 65.922318 -1.283123
v -12.416286 65.743134 0.317445
v -12.422949 65.954292 1.914107
v -12.442530 66.547691 3.445507
v -12.474276 67.500542 4.852795
v -12.516964 68.776184 6.081886
v -12.568947 70.325645 7.085546
v -12.628237 72.089348 7.825212
v -12.692570 73.999504 8.272449
v -12.759439 75.982750 8.410082
v -12.826294 77.962837 8.232809
v -12.890566 79.863670 7.747453
v -12.949789 81.612221 6.972658
v -13.001673 83.141281 5.938209
v -13.044231 84.392128 4.683846
v -13.075838 85.316589 3.257784
v -13.095266 85.879265 1.714819
v -13.101774 86.058434 0.114253
v -13.095106 85.847313 -1.482411
v -13.075525 85.253868 -3.013811
v -13.043779 84.301041 -4.421096
v -13.001097 83.025406 -5.650187
v -12.949112 81.475967 -6.653850
v -12.889814 79.712257 -7.393514
v -12.825495 77.802101 -7.840753
v 15.836245 76.313011 0.213149
v -12.262783 54.332199 -7.763488
v -12.195917 52.352123 -7.586217
v -12.131649 50.451263 -7.100860
v -12.072430 48.702713 -6.326066
v -12.020540 47.173649 -5.291614
v -11.977976 45.922829 -4.037253
v -11.946375 44.998325 -2.611191
v -11.926949 44.435677 -1.068227
v -11.920444 44.256466 0.532341
v -11.927107 44.467651 2.129002
v -11.946688 45.061035 3.660403
v -11.978430 46.013870 5.067691
v -12.021116 47.289536 6.296782
v -12.073107 48.838982 7.300441
v -12.132402 50.602676 8.040107
v -12.196716 52.512856 8.487346
v -12.263597 54.496090 8.624977
v -12.330452 56.476181 8.447705
v -12.394730 58.377022 7.962349
v -12.453945 60.125587 7.187554
v -12.505836 61.654648 6.153103
v -12.548395 62.905449 4.898743
v -12.580000 63.829964 3.472678
v -12.599421 64.392632 1.929716
v -12.605936 64.571808 0.329149
v -12.599262 64.360649 -1.267515
v -12.579687 63.767235 -2.798915
v -12.547943 62.814400 -4.206201
v -12.505260 61.538765 -5.435291
v -12.453268 59.989311 -6.438953
v -12.393976 58.225601 -7.178617
v -12.329653 56.315437 -7.625858
v 16.332104 54.826359 0.428045
v -12.310308 33.698364 -7.557148
v -12.243454 31.718281 -7.379877
v -12.179176 29.817440 -6.894519
v -12.119957 28.068878 -6.119726
v -12.068073 26.539818 -5.085274
v -12.025503 25.288998 -3.830913
v -11.993902 24.364506 -2.404850
v -11.974482 23.801838 -0.861887
v -11.967964 23.622652 0.738681
v -11.974640 23.833809 2.335343
v -11.994215 24.427216 3.866742
v -12.025957 25.380047 5.274031
v -12.068649 26.655704 6.503121
v -12.120634 28.205147 7.506783
v -12.179930 29.968853 8.246448
v -12.244253 31.879021 8.693686
v -12.311123 33.862255 8.831318
v -12.377985 35.842346 8.654045
v -12.442257 37.743195 8.168689
v -12.501472 39.491741 7.393894
v -12.553362 41.020813 6.359444
v -12.595926 42.271614 5.105084
v -12.627522 43.196129 3.679019
v -12.646954 43.758785 2.136055
v -12.653465 43.937977 0.535489
v -12.646795 43.726814 -1.061174
v -12.627211 43.133411 -2.592575
v -12.595472 42.180573 -3.999860
v -12.552786 40.904926 -5.228952
v -12.500795 39.355476 -6.232614
v -12.441504 37.591778 -6.972278
v -12.377186 35.681606 -7.419517
v 16.284576 34.192524 0.634385
vn -0.0053 -0.9999 0.0100
vn -0.0000 -0.0100 -1.0000
vn 0.0053 0.9999 -0.0100
vn -0.0000 0.0100 1.0000
vn 1.0000 -0.0053 0.0001
vn -1.0000 0.0053 -0.0001
vn 0.2758 -0.0765 -0.9582
vn 0.2816 -0.2284 -0.9319
vn 0.2907 -0.3794 -0.8784
vn 0.3025 -0.5270 -0.7942
vn 0.3161 -0.6664 -0.6753
vn 0.3299 -0.7888 -0.5187
vn 0.3414 -0.8816 -0.3258
vn 0.3481 -0.9315 -0.1057
vn 0.3481 -0.9292 0.1243
vn 0.3414 -0.8749 0.3434
vn 0.3298 -0.7782 0.5344
vn 0.3160 -0.6528 0.6885
vn 0.3024 -0.5110 0.8046
vn 0.2906 -0.3617 0.8858
vn 0.2815 -0.2098 0.9363
vn 0.2757 -0.0573 0.9595
vn 0.2733 0.0949 0.9572
vn 0.2743 0.2466 0.9295
vn 0.2784 0.3970 0.8746
vn 0.2854 0.5437 0.7893
vn 0.2944 0.6817 0.6698
vn 0.3040 0.8025 0.5135
vn 0.3122 0.8938 0.3220
vn 0.3171 0.9426 0.1042
vn 0.3171 0.9404 -0.1230
vn 0.3123 0.8871 -0.3398
vn 0.3040 0.7920 -0.5294
vn 0.2945 0.6682 -0.6833
vn 0.2855 0.5278 -0.8000
vn 0.2785 0.3794 -0.8823
vn -0.9994 -0.0337 0.0003
vn 0.2744 0.2280 -0.9342
vn 0.2734 0.0758 -0.9589
vn 0.3481 -0.9292 0.1244
vn 0.3123 0.8872 -0.3398
vn -0.0000 0.0100 0.9999
vt 0.500000 0.009148
vt 0.254574 0.254574
vt 0.254574 0.009148
vt 0.500000 0.254574
vt 0.254574 0.500000
vt 0.500000 0.500000
vt 0.254574 0.745426
vt 0.500000 0.745426
vt 0.254574 0.990852
vt 0.009148 0.745426
vt 0.009148 0.500000
vt 0.745426 0.500000
vt 0.970650 0.449450
vt 0.873837 0.351574
vt 0.975676 0.440650
vt 0.978919 0.427342
vt 0.980626 0.409276
vt 0.980124 0.387193
vt 0.976370 0.362371
vt 0.968305 0.336425
vt 0.955187 0.311209
vt 0.936951 0.288644
vt 0.914440 0.270342
vt 0.889261 0.257151
vt 0.863339 0.249010
vt 0.838528 0.245183
vt 0.816447 0.244617
vt 0.798376 0.246271
vt 0.785059 0.249476
vt 0.776243 0.254476
vt 0.770429 0.262814
vt 0.766288 0.275987
vt 0.763788 0.294190
vt 0.763722 0.316650
vt 0.767199 0.342039
vt 0.775291 0.368665
vt 0.788705 0.394579
vt 0.807440 0.417778
vt 0.830584 0.436581
vt 0.856459 0.450070
vt 0.883061 0.458239
vt 0.908440 0.461790
vt 0.930900 0.461790
vt 0.949110 0.459343
vt 0.778405 0.733246
vt 0.783483 0.723452
vt 0.809404 0.734040
vt 0.962295 0.455241
vt 0.970650 0.213981
vt 0.873838 0.116105
vt 0.975676 0.205180
vt 0.978919 0.191872
vt 0.980626 0.173807
vt 0.980124 0.151724
vt 0.976370 0.126902
vt 0.968305 0.100956
vt 0.955187 0.075739
vt 0.936951 0.053175
vt 0.914440 0.034873
vt 0.889261 0.021681
vt 0.863339 0.013540
vt 0.838528 0.009714
vt 0.816447 0.009148
vt 0.798376 0.010802
vt 0.785059 0.014007
vt 0.776244 0.019007
vt 0.770429 0.027345
vt 0.766288 0.040518
vt 0.763788 0.058721
vt 0.763722 0.081181
vt 0.767199 0.106570
vt 0.775291 0.133195
vt 0.788705 0.159110
vt 0.807440 0.182308
vt 0.830584 0.201111
vt 0.856459 0.214601
vt 0.883061 0.222770
vt 0.908440 0.226321
vt 0.930900 0.226321
vt 0.949110 0.223874
vt 0.852498 0.733246
vt 0.857575 0.723452
vt 0.883497 0.734040
vt 0.962295 0.219771
vt 0.970650 0.684919
vt 0.873837 0.587043
vt 0.975676 0.676119
vt 0.978919 0.662811
vt 0.980626 0.644745
vt 0.980124 0.622662
vt 0.976370 0.597840
vt 0.968305 0.571895
vt 0.955187 0.546678
vt 0.936951 0.524113
vt 0.914440 0.505811
vt 0.889261 0.492620
vt 0.863339 0.484479
vt 0.838528 0.480652
vt 0.816447 0.480086
vt 0.798376 0.481741
vt 0.785059 0.484945
vt 0.776244 0.489945
vt 0.770429 0.498283
vt 0.766288 0.511456
vt 0.763788 0.529659
vt 0.763722 0.552119
vt 0.767199 0.577509
vt 0.775291 0.604134
vt 0.788705 0.630049
vt 0.807440 0.653247
vt 0.830584 0.672050
vt 0.856459 0.685539
vt 0.883061 0.693709
vt 0.908440 0.697260
vt 0.930900 0.697260
vt 0.949110 0.694812
vt 0.926590 0.733246
vt 0.931667 0.723452
vt 0.957589 0.734040
vt 0.962295 0.690710
vt 0.500000 0.990852
vt 0.745426 0.745426
vt 0.788872 0.717479
vt 0.794368 0.715556
vt 0.799758 0.717757
vt 0.804835 0.723998
vt 0.813290 0.747495
vt 0.773836 0.746485
vt 0.816343 0.763848
vt 0.769950 0.762660
vt 0.818446 0.782469
vt 0.819518 0.802643
vt 0.766897 0.781149
vt 0.819518 0.823594
vt 0.763722 0.822166
vt 0.818446 0.844518
vt 0.763722 0.843117
vt 0.816343 0.864611
vt 0.813290 0.883100
vt 0.764794 0.863291
vt 0.809404 0.899275
vt 0.769950 0.898264
vt 0.804835 0.912514
vt 0.773836 0.911720
vt 0.799758 0.922308
vt 0.794368 0.928281
vt 0.778406 0.921761
vt 0.788873 0.930204
vt 0.783483 0.928003
vt 0.766897 0.881912
vt 0.764794 0.801241
vt 0.862965 0.717479
vt 0.868460 0.715556
vt 0.873850 0.717757
vt 0.878927 0.723999
vt 0.887383 0.747495
vt 0.847929 0.746485
vt 0.890436 0.763848
vt 0.844043 0.762660
vt 0.892539 0.782468
vt 0.893611 0.802642
vt 0.840990 0.781149
vt 0.893611 0.823594
vt 0.837815 0.822166
vt 0.892539 0.844518
vt 0.837815 0.843117
vt 0.890436 0.864611
vt 0.887383 0.883100
vt 0.838887 0.863291
vt 0.883497 0.899274
vt 0.844043 0.898264
vt 0.878927 0.912513
vt 0.847929 0.911720
vt 0.873850 0.922308
vt 0.868460 0.928281
vt 0.852498 0.921761
vt 0.862965 0.930204
vt 0.857575 0.928002
vt 0.840990 0.881912
vt 0.838887 0.801241
vt 0.937057 0.717479
vt 0.942553 0.715556
vt 0.947942 0.717757
vt 0.953020 0.723999
vt 0.961475 0.747495
vt 0.922021 0.746485
vt 0.964528 0.763848
vt 0.918135 0.762660
vt 0.966631 0.782469
vt 0.967703 0.802642
vt 0.915082 0.781149
vt 0.967703 0.823594
vt 0.911907 0.822166
vt 0.966631 0.844518
vt 0.911907 0.843117
vt 0.964528 0.864611
vt 0.961475 0.883100
vt 0.912979 0.863291
vt 0.957589 0.899274
vt 0.918135 0.898264
vt 0.953020 0.912513
vt 0.922021 0.911720
vt 0.947943 0.922308
vt 0.942553 0.928281
vt 0.926590 0.921761
vt 0.937057 0.930204
vt 0.931667 0.928002
vt 0.915082 0.881912
vt 0.912979 0.801241
s 0
usemtl マテリアル
f 2/1/1 3/2/1 1/3/1
f 4/4/2 7/5/2 3/2/2
f 8/6/3 5/7/3 7/5/3
f 6/8/4 1/9/4 5/7/4
f 7/5/5 1/10/5 3/11/5
f 4/12/6 6/8/6 8/6/6
f 9/13/7 41/14/7 10/15/7
f 10/15/8 41/14/8 11/16/8
f 11/16/9 41/14/9 12/17/9
f 12/17/10 41/14/10 13/18/10
f 13/18/11 41/14/11 14/19/11
f 14/19/12 41/14/12 15/20/12
f 15/20/13 41/14/13 16/21/13
f 16/21/14 41/14/14 17/22/14
f 17/22/15 41/14/15 18/23/15
f 18/23/16 41/14/16 19/24/16
f 19/24/17 41/14/17 20/25/17
f 20/25/18 41/14/18 21/26/18
f 21/26/19 41/14/19 22/27/19
f 22/27/20 41/14/20 23/28/20
f 23/28/21 41/14/21 24/29/21
f 24/29/22 41/14/22 25/30/22
f 25/30/23 41/14/23 26/31/23
f 26/31/24 41/14/24 27/32/24
f 27/32/25 41/14/25 28/33/25
f 28/33/26 41/14/26 29/34/26
f 29/34/27 41/14/27 30/35/27
f 30/35/28 41/14/28 31/36/28
f 31/36/29 41/14/29 32/37/29
f 32/37/30 41/14/30 33/38/30
f 33/38/31 41/14/31 34/39/31
f 34/39/32 41/14/32 35/40/32
f 35/40/33 41/14/33 36/41/33
f 36/41/34 41/14/34 37/42/34
f 37/42/35 41/14/35 38/43/35
f 38/43/36 41/14/36 39/44/36
f 38/45/37 39/46/37 12/47/37
f 39/44/38 41/14/38 40/48/38
f 40/48/39 41/14/39 9/13/39
f 42/49/7 74/50/7 43/51/7
f 43/51/8 74/50/8 44/52/8
f 44/52/9 74/50/9 45/53/9
f 45/53/10 74/50/10 46/54/10
f 46/54/11 74/50/11 47/55/11
f 47/55/12 74/50/12 48/56/12
f 48/56/13 74/50/13 49/57/13
f 49/57/14 74/50/14 50/58/14
f 50/58/40 74/50/40 51/59/40
f 51/59/16 74/50/16 52/60/16
f 52/60/17 74/50/17 53/61/17
f 53/61/18 74/50/18 54/62/18
f 54/62/19 74/50/19 55/63/19
f 55/63/20 74/50/20 56/64/20
f 56/64/21 74/50/21 57/65/21
f 57/65/22 74/50/22 58/66/22
f 58/66/23 74/50/23 59/67/23
f 59/67/24 74/50/24 60/68/24
f 60/68/25 74/50/25 61/69/25
f 61/69/26 74/50/26 62/70/26
f 62/70/27 74/50/27 63/71/27
f 63/71/28 74/50/28 64/72/28
f 64/72/29 74/50/29 65/73/29
f 65/73/30 74/50/30 66/74/30
f 66/74/31 74/50/31 67/75/31
f 67/75/41 74/50/41 68/76/41
f 68/76/33 74/50/33 69/77/33
f 69/77/34 74/50/34 70/78/34
f 70/78/35 74/50/35 71/79/35
f 71/79/36 74/50/36 72/80/36
f 71/81/37 72/82/37 45/83/37
f 72/80/38 74/50/38 73/84/38
f 73/84/39 74/50/39 42/49/39
f 75/85/7 107/86/7 76/87/7
f 76/87/8 107/86/8 77/88/8
f 77/88/9 107/86/9 78/89/9
f 78/89/10 107/86/10 79/90/10
f 79/90/11 107/86/11 80/91/11
f 80/91/12 107/86/12 81/92/12
f 81/92/13 107/86/13 82/93/13
f 82/93/14 107/86/14 83/94/14
f 83/94/15 107/86/15 84/95/15
f 84/95/16 107/86/16 85/96/16
f 85/96/17 107/86/17 86/97/17
f 86/97/18 107/86/18 87/98/18
f 87/98/19 107/86/19 88/99/19
f 88/99/20 107/86/20 89/100/20
f 89/100/21 107/86/21 90/101/21
f 90/101/22 107/86/22 91/102/22
f 91/102/23 107/86/23 92/103/23
f 92/103/24 107/86/24 93/104/24
f 93/104/25 107/86/25 94/105/25
f 94/105/26 107/86/26 95/106/26
f 95/106/27 107/86/27 96/107/27
f 96/107/28 107/86/28 97/108/28
f 97/108/29 107/86/29 98/109/29
f 98/109/30 107/86/30 99/110/30
f 99/110/31 107/86/31 100/111/31
f 100/111/41 107/86/41 101/112/41
f 101/112/33 107/86/33 102/113/33
f 102/113/34 107/86/34 103/114/34
f 103/114/35 107/86/35 104/115/35
f 104/115/36 107/86/36 105/116/36
f 104/117/37 105/118/37 78/119/37
f 105/116/38 107/86/38 106/120/38
f 106/120/39 107/86/39 75/85/39
f 2/1/1 4/4/1 3/2/1
f 4/4/2 8/6/2 7/5/2
f 8/6/3 6/8/3 5/7/3
f 6/8/42 2/121/42 1/9/42
f 7/5/5 5/7/5 1/10/5
f 4/12/6 2/122/6 6/8/6
f 40/123/37 9/124/37 10/125/37
f 10/125/37 11/126/37 40/123/37
f 11/126/37 12/47/37 39/46/37
f 40/123/37 11/126/37 39/46/37
f 12/47/37 13/127/37 37/128/37
f 13/127/37 14/129/37 36/130/37
f 14/129/37 15/131/37 36/130/37
f 15/131/37 16/132/37 35/133/37
f 36/130/37 15/131/37 35/133/37
f 16/132/37 17/134/37 33/135/37
f 17/134/37 18/136/37 32/137/37
f 18/136/37 19/138/37 32/137/37
f 19/138/37 20/139/37 31/140/37
f 32/137/37 19/138/37 31/140/37
f 20/139/37 21/141/37 29/142/37
f 21/141/37 22/143/37 28/144/37
f 22/143/37 23/145/37 28/144/37
f 23/145/37 24/146/37 27/147/37
f 28/144/37 23/145/37 27/147/37
f 24/146/37 25/148/37 26/149/37
f 26/149/37 27/147/37 24/146/37
f 28/144/37 29/142/37 21/141/37
f 29/142/37 30/150/37 20/139/37
f 30/150/37 31/140/37 20/139/37
f 32/137/37 33/135/37 17/134/37
f 33/135/37 34/151/37 16/132/37
f 34/151/37 35/133/37 16/132/37
f 36/130/37 37/128/37 13/127/37
f 37/128/37 38/45/37 12/47/37
f 73/152/37 42/153/37 43/154/37
f 43/154/37 44/155/37 73/152/37
f 44/155/37 45/83/37 72/82/37
f 73/152/37 44/155/37 72/82/37
f 45/83/37 46/156/37 70/157/37
f 46/156/37 47/158/37 69/159/37
f 47/158/37 48/160/37 69/159/37
f 48/160/37 49/161/37 68/162/37
f 69/159/37 48/160/37 68/162/37
f 49/161/37 50/163/37 66/164/37
f 50/163/37 51/165/37 65/166/37
f 51/165/37 52/167/37 65/166/37
f 52/167/37 53/168/37 64/169/37
f 65/166/37 52/167/37 64/169/37
f 53/168/37 54/170/37 62/171/37
f 54/170/37 55/172/37 61/173/37
f 55/172/37 56/174/37 61/173/37
f 56/174/37 57/175/37 60/176/37
f 61/173/37 56/174/37 60/176/37
f 57/175/37 58/177/37 59/178/37
f 59/178/37 60/176/37 57/175/37
f 61/173/37 62/171/37 54/170/37
f 62/171/37 63/179/37 53/168/37
f 63/179/37 64/169/37 53/168/37
f 65/166/37 66/164/37 50/163/37
f 66/164/37 67/180/37 49/161/37
f 67/180/37 68/162/37 49/161/37
f 69/159/37 70/157/37 46/156/37
f 70/157/37 71/81/37 45/83/37
f 106/181/37 75/182/37 76/183/37
f 76/183/37 77/184/37 106/181/37
f 77/184/37 78/119/37 105/118/37
f 106/181/37 77/184/37 105/118/37
f 78/119/37 79/185/37 103/186/37
f 79/185/37 80/187/37 102/188/37
f 80/187/37 81/189/37 102/188/37
f 81/189/37 82/190/37 101/191/37
f 102/188/37 81/189/37 101/191/37
f 82/190/37 83/192/37 99/193/37
f 83/192/37 84/194/37 98/195/37
f 84/194/37 85/196/37 98/195/37
f 85/196/37 86/197/37 97/198/37
f 98/195/37 85/196/37 97/198/37
f 86/197/37 87/199/37 95/200/37
f 87/199/37 88/201/37 94/202/37
f 88/201/37 89/203/37 94/202/37
f 89/203/37 90/204/37 93/205/37
f 94/202/37 89/203/37 93/205/37
f 90/204/37 91/206/37 92/207/37
f 92/207/37 93/205/37 90/204/37
f 94/202/37 95/200/37 87/199/37
f 95/200/37 96/208/37 86/197/37
f 96/208/37 97/198/37 86/197/37
f 98/195/37 99/193/37 83/192/37
f 99/193/37 100/209/37 82/190/37
f 100/209/37 101/191/37 82/190/37
f 102/188/37 103/186/37 79/185/37
f 103/186/37 104/117/37 78/119/37
