# Blender 4.1.1
# www.blender.org
mtllib InsideHugu.mtl
o 球
v 0.000000 0.849052 -0.663936
v 0.000000 0.567318 -0.993650
v 0.000000 0.199216 -1.172090
v 0.000000 0.000000 -1.195053
v 0.000000 -0.199216 -1.172090
v 0.000000 -0.567318 -0.993650
v 0.045484 1.001525 -0.228663
v 0.089220 0.943416 -0.448540
v 0.129527 0.849052 -0.651178
v 0.164857 0.722059 -0.828793
v 0.193852 0.567318 -0.974557
v 0.215396 0.390776 -1.082870
v 0.228663 0.199216 -1.149569
v 0.233143 0.000000 -1.172090
v 0.228663 -0.199216 -1.149569
v 0.215396 -0.390776 -1.082870
v 0.193852 -0.567318 -0.974557
v 0.164857 -0.722059 -0.828793
v 0.129527 -0.849052 -0.651178
v 0.089220 -0.943416 -0.448540
v 0.045484 -1.001525 -0.228663
v 0.089220 1.001525 -0.215396
v 0.175011 0.943416 -0.422515
v 0.254077 0.849052 -0.613397
v 0.323379 0.722059 -0.780706
v 0.380253 0.567318 -0.918013
v 0.422515 0.390776 -1.020041
v 0.448539 0.199216 -1.082870
v 0.457327 0.000000 -1.104085
v 0.448539 -0.199216 -1.082870
v 0.422515 -0.390776 -1.020041
v 0.380253 -0.708082 -1.145631
v 0.323379 -0.722059 -0.780706
v 0.254077 -0.849052 -0.613397
v 0.175011 -0.943416 -0.422515
v 0.089220 -1.001525 -0.215396
v 0.129527 1.001525 -0.193852
v 0.254077 0.943416 -0.380253
v 0.368863 0.849052 -0.552042
v 0.469473 0.722059 -0.702617
v 0.552042 0.567318 -0.826190
v 0.613397 0.390776 -0.918013
v 0.651178 0.199216 -0.974557
v 0.663936 0.000000 -0.993650
v 0.651178 -0.199216 -0.974557
v 0.613397 -0.390776 -0.918013
v 0.552042 -0.567318 -0.826190
v 0.469473 -0.722059 -0.702617
v 0.368863 -0.982818 -0.552042
v 0.254077 -0.943416 -0.380253
v 0.129527 -1.001525 -0.193852
v 0.164857 1.001525 -0.164857
v 0.323379 0.943416 -0.323379
v 0.469473 0.849052 -0.469473
v 0.597526 0.722059 -0.597526
v 0.702617 0.567318 -0.702616
v 0.780706 0.390776 -0.780706
v 0.828793 0.199216 -0.828793
v 0.845030 0.000000 -0.845030
v 0.828793 -0.199216 -0.828793
v 0.780706 -0.390776 -0.780706
v 0.702617 -0.567318 -0.702616
v 0.597526 -0.722059 -0.597526
v 0.469473 -0.849052 -0.469473
v 0.323379 -0.943416 -0.323379
v 0.164857 -1.001525 -0.164857
v 0.193852 1.001525 -0.129527
v 0.380253 0.943416 -0.254077
v 0.552042 0.849052 -0.368863
v 0.702617 0.722059 -0.469473
v 0.826190 0.567318 -0.552042
v 0.918013 0.390776 -0.613397
v 0.974557 0.199216 -0.651178
v 0.993650 0.000000 -0.663935
v 0.974557 -0.199216 -0.651178
v 0.918013 -0.390776 -0.613397
v 0.826190 -0.567318 -0.552042
v 0.702617 -0.722059 -0.469473
v 0.552042 -0.849052 -0.368863
v 0.380253 -0.943416 -0.254077
v 0.193852 -1.001525 -0.129527
v 0.000000 1.021146 0.000000
v 0.215396 1.001525 -0.089220
v 0.422515 0.943416 -0.175011
v 0.613397 0.849052 -0.254077
v 0.780706 0.722059 -0.323379
v 0.918013 0.567318 -0.380253
v 1.020041 0.390776 -0.422515
v 1.082870 0.199216 -0.448539
v 1.104085 0.000000 -0.457327
v 1.082870 -0.199216 -0.448539
v 1.020041 -0.390776 -0.422515
v 0.918013 -0.567318 -0.380253
v 0.780706 -0.953189 -0.323379
v 0.613397 -0.849052 -0.254077
v 0.422515 -0.943416 -0.175011
v 0.215396 -1.001525 -0.089220
v 0.228663 1.001525 -0.045484
v 0.448539 0.943416 -0.089220
v 0.651178 0.849052 -0.129527
v 0.828793 0.722059 -0.164857
v 0.974557 0.567318 -0.193851
v 1.082870 0.390776 -0.215396
v 1.149569 0.199216 -0.228663
v 1.172090 0.000000 -0.233143
v 1.149569 -0.199216 -0.228663
v 1.082870 -0.390776 -0.215396
v 0.974557 -0.567318 -0.193851
v 0.828793 -0.722059 -0.164857
v 0.651178 -0.849052 -0.129527
v 0.448539 -0.943416 -0.089220
v 0.228663 -1.001525 -0.045484
v 0.233143 1.001525 0.000000
v 0.457327 0.943416 0.000000
v 0.663936 0.849052 0.000000
v 0.845030 0.722059 -0.000000
v 0.993650 0.567318 0.000000
v 1.104085 0.390776 -0.000000
v 1.172090 0.199216 0.000000
v 1.195052 0.000000 0.000000
v 1.172090 -0.199216 0.000000
v 1.195141 -0.539008 -0.000000
v 0.993650 -0.567318 0.000000
v 0.845030 -0.722059 -0.000000
v 0.663936 -0.849052 0.000000
v 0.457327 -0.943416 0.000000
v 0.233143 -1.001525 0.000000
v 0.228663 1.001525 0.045484
v 0.448539 0.943416 0.089220
v 0.651178 0.849052 0.129527
v 0.828793 0.722059 0.164857
v 0.974557 0.567318 0.193852
v 1.082870 0.390776 0.215396
v 1.149568 0.199216 0.228664
v 1.172090 0.000000 0.233143
v 1.149568 -0.199216 0.228664
v 1.082870 -0.390776 0.215396
v 0.974557 -0.567318 0.193852
v 0.828793 -0.722059 0.164857
v 0.651178 -0.849052 0.129527
v 0.448539 -0.943416 0.089220
v 0.228663 -1.001525 0.045484
v 0.215396 1.001525 0.089220
v 0.422515 0.943416 0.175011
v 0.613396 0.849052 0.254077
v 0.780706 0.722059 0.323379
v 0.918013 0.567318 0.380253
v 1.020041 0.390776 0.422515
v 1.082870 0.199216 0.448540
v 1.104084 0.000000 0.457327
v 1.082870 -0.199216 0.448540
v 1.020041 -0.390776 0.422515
v 0.918013 -0.567318 0.380253
v 0.971296 -0.722059 0.323379
v 0.613396 -0.849052 0.254077
v 0.422515 -0.943416 0.175011
v 0.215396 -1.160246 0.089220
v 0.193851 1.001525 0.129527
v 0.380253 0.943416 0.254077
v 0.552042 0.849052 0.368863
v 0.702617 0.722059 0.469473
v 0.826190 0.567318 0.552042
v 0.918013 0.390776 0.613396
v 0.974557 0.199216 0.651178
v 0.993650 0.000000 0.663936
v 0.974557 -0.199216 0.651178
v 0.918013 -0.390776 0.613396
v 0.826190 -0.567318 0.552042
v 0.702617 -0.722059 0.469473
v 0.552042 -0.849052 0.368863
v 0.380253 -0.943416 0.254077
v 0.193851 -1.001525 0.129527
v 0.164857 1.001525 0.164857
v 0.323379 0.943416 0.323379
v 0.469473 0.849052 0.469473
v 0.597526 0.722059 0.597526
v 0.702616 0.567318 0.702616
v 0.780706 0.390776 0.780706
v 0.828793 0.199216 0.828793
v 0.845029 0.000000 0.845030
v 0.828793 -0.199216 0.828793
v 0.780706 -0.390776 0.780706
v 0.702616 -0.567318 0.702616
v 0.597526 -0.722059 0.597526
v 0.469473 -0.849052 0.469473
v 0.323379 -0.943416 0.323379
v 0.164857 -1.001525 0.164857
v 0.129527 1.001525 0.193851
v 0.254077 0.943416 0.380253
v 0.368863 0.849052 0.552042
v 0.469473 0.722059 0.702617
v 0.552042 0.567318 0.826190
v 0.613397 0.390776 0.918013
v 0.651178 0.199216 0.974557
v 0.663935 0.000000 0.993650
v 0.651178 -0.199216 0.974557
v 0.613397 -0.390776 0.918013
v 0.552042 -0.567318 1.141283
v 0.469473 -0.722059 0.702617
v 0.368863 -0.849052 0.552042
v 0.254077 -0.943416 0.380253
v 0.129527 -1.001525 0.193851
v 0.089220 1.001525 0.215396
v 0.175011 0.943416 0.422515
v 0.254077 0.849052 0.613396
v 0.323379 0.722059 0.780706
v 0.380253 0.567318 0.918013
v 0.422515 0.390776 1.020041
v 0.448539 0.199216 1.082870
v 0.457326 0.000000 1.104084
v 0.448539 -0.199216 1.082870
v 0.422515 -0.390776 1.020041
v 0.380253 -0.567318 0.918013
v 0.323379 -0.722059 0.780706
v 0.254077 -1.045978 0.613396
v 0.175011 -0.943416 0.422515
v 0.089220 -1.001525 0.215396
v 0.045484 1.001525 0.228663
v 0.089220 0.943416 0.448539
v 0.129527 0.849052 0.651178
v 0.164857 0.722059 0.828793
v 0.193851 0.567318 0.974557
v 0.215396 0.390776 1.082870
v 0.228663 0.199216 1.149568
v 0.233143 0.000000 1.172090
v 0.228663 -0.199216 1.149568
v 0.215396 -0.390776 1.082870
v 0.193851 -0.567318 0.974557
v 0.164857 -0.722059 0.828793
v 0.129527 -0.849052 0.651178
v 0.089220 -0.943416 0.448539
v 0.045484 -1.001525 0.228663
v -0.000000 1.001525 0.233143
v -0.000000 0.943416 0.457327
v -0.000000 0.849052 0.663935
v -0.000000 0.722059 0.845030
v -0.000000 0.567318 0.993650
v 0.000000 0.390776 1.104084
v -0.000000 0.199216 1.172090
v -0.000000 0.000000 1.195052
v -0.000000 -0.199216 1.172090
v 0.000000 -0.390776 1.104084
v -0.000000 -0.567318 0.993650
v -0.000000 -0.722059 0.845030
v -0.000000 -0.849052 0.663935
v -0.000000 -0.943416 0.457327
v -0.000000 -1.001525 0.233143
v -0.045484 1.001525 0.228663
v -0.089220 0.943416 0.448539
v -0.129527 0.849052 0.651178
v -0.164857 0.722059 0.828793
v -0.193852 0.567318 0.974557
v -0.215396 0.390776 1.082870
v -0.228664 0.199216 1.149568
v -0.233143 0.000000 1.172089
v -0.228664 -0.199216 1.149568
v -0.215396 -0.390776 1.082870
v -0.193852 -0.567318 0.974557
v -0.164857 -0.996932 0.828793
v -0.129527 -0.849052 0.651178
v -0.089220 -0.943416 0.448539
v -0.045484 -1.001525 0.228663
v -0.089220 1.001525 0.215396
v -0.175011 0.943416 0.422515
v -0.254077 0.849052 0.613396
v -0.323379 0.722059 0.780706
v -0.380253 0.567318 0.918012
v -0.422515 0.390776 1.020041
v -0.448539 0.199216 1.082870
v -0.457327 0.000000 1.104084
v -0.448539 -0.199216 1.082870
v -0.422515 -0.390776 1.020041
v -0.380253 -0.567318 0.918012
v -0.323379 -0.722059 0.780706
v -0.254077 -0.849052 0.613396
v -0.175011 -1.068166 0.422515
v -0.089220 -1.001525 0.215396
v -0.129527 1.001525 0.193851
v -0.254077 0.943416 0.380253
v -0.368863 0.849052 0.552042
v -0.469473 0.722059 0.702616
v -0.552042 0.567318 0.826189
v -0.613396 0.390776 0.918013
v -0.651178 0.199216 0.974557
v -0.663936 0.000000 0.993649
v -0.651178 -0.199216 0.974557
v -0.613396 -0.390776 0.918013
v -0.740652 -0.731919 0.826189
v -0.469473 -0.722059 0.702616
v -0.368863 -0.849052 0.552042
v -0.254077 -0.943416 0.380253
v -0.129527 -1.001525 0.193851
v -0.164857 1.001525 0.164857
v -0.323379 0.943416 0.323379
v -0.469473 0.849052 0.469473
v -0.597526 0.722059 0.597526
v -0.702616 0.567318 0.702616
v -0.780706 0.390776 0.780706
v -0.828793 0.199216 0.828792
v -0.845030 0.000000 0.845029
v -0.828793 -0.199216 0.828792
v -0.780706 -0.390776 0.780706
v -0.702616 -0.567318 0.702616
v -0.597526 -0.722059 0.597526
v -0.469473 -0.849052 0.469473
v -0.323379 -0.943416 0.323379
v -0.164857 -1.001525 0.164857
v 0.000000 -1.021146 0.000000
v -0.193851 1.001525 0.129527
v -0.380253 0.943416 0.254077
v -0.552042 0.849052 0.368863
v -0.702616 0.722059 0.469473
v -0.826190 0.567318 0.552042
v -0.918012 0.390776 0.613396
v -0.974557 0.199216 0.651178
v -0.993650 0.000000 0.663935
v -0.974557 -0.199216 0.651178
v -0.918012 -0.390776 0.613396
v -0.826190 -0.567318 0.552042
v -0.702616 -0.722059 0.469473
v -0.552042 -0.849052 0.368863
v -0.380253 -0.943416 0.254077
v -0.193851 -1.001525 0.129527
v -0.215396 1.001525 0.089220
v -0.422515 0.943416 0.175011
v -0.613396 0.849052 0.254077
v -0.780706 0.722059 0.323379
v -0.918012 0.567318 0.380253
v -1.020041 0.390776 0.422515
v -1.082870 0.199216 0.448539
v -1.104084 0.000000 0.457326
v -1.082870 -0.199216 0.448539
v -1.020041 -0.390776 0.422515
v -0.918012 -0.567318 0.380253
v -0.780706 -0.722059 0.323379
v -0.613396 -0.849052 0.254077
v -0.422515 -1.113643 0.175011
v -0.215396 -1.001525 0.089220
v -0.228663 1.001525 0.045484
v -0.448539 0.943416 0.089220
v -0.651178 0.849052 0.129527
v -0.828793 0.722059 0.164857
v -0.974557 0.567318 0.193851
v -1.082870 0.390776 0.215396
v -1.149568 0.199216 0.228663
v -1.172089 0.000000 0.233142
v -1.149568 -0.199216 0.228663
v -1.082870 -0.390776 0.215396
v -0.974557 -0.567318 0.193851
v -0.828793 -0.722059 0.164857
v -0.651178 -0.849052 0.129527
v -0.448539 -0.943416 0.089220
v -0.228663 -1.001525 0.045484
v -0.233143 1.001525 -0.000000
v -0.457327 0.943416 -0.000000
v -0.663935 0.849052 -0.000000
v -0.845030 0.722059 -0.000000
v -0.993650 0.567318 -0.000000
v -1.104084 0.390776 -0.000000
v -1.172090 0.199216 -0.000000
v -1.195052 0.000000 -0.000001
v -1.172090 -0.199216 -0.000000
v -1.104084 -0.390776 -0.000000
v -1.287611 -0.567318 -0.000000
v -0.845030 -0.722059 -0.000000
v -0.663935 -0.849052 -0.000000
v -0.457327 -0.943416 -0.000000
v -0.233143 -1.001525 -0.000000
v -0.228663 1.001525 -0.045484
v -0.448539 0.943416 -0.089220
v -0.651178 0.849052 -0.129528
v -0.828793 0.722059 -0.164857
v -0.974557 0.567318 -0.193852
v -1.082870 0.390776 -0.215396
v -1.149568 0.199216 -0.228664
v -1.172089 0.000000 -0.233144
v -1.149568 -0.199216 -0.228664
v -1.082870 -0.390776 -0.215396
v -0.974557 -0.567318 -0.193852
v -0.828793 -0.722059 -0.164857
v -0.651178 -0.849052 -0.129528
v -0.448539 -0.943416 -0.089220
v -0.228663 -1.001525 -0.045484
v -0.215396 1.001525 -0.089220
v -0.422515 0.943416 -0.175011
v -0.613396 0.849052 -0.254077
v -0.780706 0.722059 -0.323379
v -0.918012 0.567318 -0.380253
v -1.020041 0.390776 -0.422515
v -1.082869 0.199216 -0.448540
v -1.104083 0.000000 -0.457327
v -1.082869 -0.199216 -0.448540
v -1.020041 -0.390776 -0.422515
v -0.918012 -0.567318 -0.380253
v -0.780706 -0.722059 -0.323379
v -0.613396 -1.022190 -0.254077
v -0.422515 -0.943416 -0.175011
v -0.215396 -1.001525 -0.089220
v -0.193851 1.001525 -0.129527
v -0.380253 0.943416 -0.254077
v -0.552042 0.849052 -0.368863
v -0.702616 0.722059 -0.469473
v -0.826189 0.567318 -0.552042
v -0.918012 0.390776 -0.613396
v -0.974557 0.199216 -0.651178
v -0.993649 0.000000 -0.663935
v -0.974557 -0.199216 -0.651178
v -0.918012 -0.390776 -0.613396
v -1.144477 -0.706320 -0.702955
v -0.702616 -0.722059 -0.469473
v -0.552042 -0.849052 -0.368863
v -0.380253 -0.943416 -0.254077
v -0.193851 -1.001525 -0.129527
v -0.164857 1.001525 -0.164857
v -0.323379 0.943416 -0.323379
v -0.469473 0.849052 -0.469473
v -0.597526 0.722059 -0.597526
v -0.702616 0.567318 -0.702616
v -0.780705 0.390776 -0.780705
v -0.828792 0.199216 -0.828793
v -0.845029 0.000000 -0.845030
v -0.828792 -0.199216 -0.828793
v -0.780705 -0.390776 -0.780705
v -0.702616 -0.567318 -0.702616
v -0.597526 -0.722059 -0.597526
v -0.469473 -0.849052 -0.469473
v -0.323379 -0.943416 -0.323379
v -0.164857 -1.001525 -0.164857
v -0.129527 1.001525 -0.193851
v -0.254077 0.943416 -0.380253
v -0.368862 0.849052 -0.552042
v -0.469473 0.722059 -0.702616
v -0.552042 0.567318 -0.826189
v -0.613396 0.390776 -0.918012
v -0.651178 0.199216 -0.974557
v -0.663935 0.000000 -0.993649
v -0.651178 -0.199216 -0.974557
v -0.613396 -0.390776 -0.918012
v -0.552042 -0.567318 -0.826189
v -0.469473 -0.722059 -0.702616
v -0.368862 -0.849052 -0.552042
v -0.254077 -0.943416 -0.380253
v -0.129527 -1.001525 -0.193851
v -0.089220 1.001525 -0.215396
v -0.175011 0.943416 -0.422515
v -0.254077 0.849052 -0.613396
v -0.323379 0.722059 -0.780706
v -0.380253 0.567318 -0.918012
v -0.422515 0.390776 -1.020041
v -0.448539 0.199216 -1.082870
v -0.457326 0.000000 -1.104084
v -0.448539 -0.199216 -1.082870
v -0.422515 -0.390776 -1.020041
v -0.380253 -0.567318 -1.119344
v -0.323379 -0.722059 -0.780706
v -0.254077 -0.849052 -0.613396
v -0.175011 -0.943416 -0.422515
v -0.089220 -1.001525 -0.215396
v -0.045484 1.001525 -0.228663
v -0.089220 0.943416 -0.448539
v -0.129527 0.849052 -0.651178
v -0.164857 0.722059 -0.828793
v -0.193851 0.567318 -0.974557
v -0.215396 0.390776 -1.082870
v -0.228663 0.199216 -1.149568
v -0.233142 0.000000 -1.172089
v -0.228663 -0.199216 -1.149568
v -0.215396 -0.390776 -1.082870
v -0.193851 -0.567318 -0.974557
v -0.164857 -0.722059 -0.828793
v -0.129527 -0.849052 -0.651178
v -0.089220 -1.097123 -0.448539
v -0.045484 -1.001525 -0.228663
v 0.000000 1.001525 -0.233143
v 0.000000 0.943416 -0.457327
v 0.000000 0.722059 -0.845030
v 0.000000 0.390776 -1.104084
v 0.000000 -0.390776 -1.104084
v 0.000000 -0.722059 -0.845030
v 0.000000 -0.849052 -0.663935
v 0.000000 -0.943416 -0.457327
v 0.000000 -1.001525 -0.233143
vn 0.0083 -0.9964 -0.0839
vn 0.0974 -0.1140 -0.9887
vn 0.0247 0.9677 -0.2508
vn 0.0924 -0.3331 -0.9383
vn 0.0409 0.9089 -0.4151
vn 0.0832 -0.5285 -0.8449
vn 0.0565 0.8174 -0.5732
vn 0.0709 -0.6910 -0.7194
vn 0.0709 0.6910 -0.7194
vn 0.0565 -0.8174 -0.5732
vn 0.0832 0.5285 -0.8449
vn 0.0409 -0.9089 -0.4151
vn 0.0924 0.3331 -0.9383
vn 0.0247 -0.9677 -0.2508
vn 0.0974 0.1140 -0.9887
vn 0.0083 0.9964 -0.0839
vn 0.0732 -0.9677 -0.2412
vn 0.2884 0.1140 -0.9507
vn 0.0245 0.9964 -0.0806
vn 0.0245 -0.9964 -0.0806
vn 0.2884 -0.1140 -0.9507
vn 0.0732 0.9677 -0.2412
vn 0.2737 -0.3331 -0.9023
vn 0.1211 0.9089 -0.3991
vn -0.4535 0.3796 -0.8064
vn 0.1672 0.8174 -0.5512
vn 0.0111 -0.9993 -0.0365
vn 0.2098 0.6910 -0.6918
vn 0.1672 -0.8174 -0.5512
vn 0.2464 0.5285 -0.8124
vn 0.1211 -0.9089 -0.3991
vn 0.2737 0.3331 -0.9023
vn 0.2715 0.8174 -0.5080
vn 0.3408 -0.6910 -0.6375
vn 0.3408 0.6910 -0.6375
vn -0.0837 -0.4739 -0.8766
vn 0.4002 0.5285 -0.7487
vn -0.0887 -0.9821 0.1660
vn 0.4445 0.3331 -0.8315
vn 0.1188 -0.9677 -0.2223
vn 0.4683 0.1140 -0.8762
vn 0.0397 0.9964 -0.0743
vn 0.0397 -0.9964 -0.0743
vn 0.4683 -0.1140 -0.8762
vn 0.1188 0.9677 -0.2223
vn 0.4445 -0.3331 -0.8315
vn 0.1966 0.9089 -0.3679
vn 0.8580 -0.4378 -0.2685
vn 0.6303 0.1140 -0.7680
vn 0.0535 0.9964 -0.0651
vn 0.0535 -0.9964 -0.0651
vn 0.6303 -0.1140 -0.7680
vn 0.1599 0.9677 -0.1948
vn 0.5982 -0.3331 -0.7289
vn 0.2646 0.9089 -0.3224
vn 0.5386 -0.5285 -0.6562
vn 0.3654 0.8174 -0.4453
vn 0.4586 -0.6910 -0.5588
vn 0.4586 0.6910 -0.5588
vn 0.7567 -0.6428 0.1193
vn 0.5386 0.5285 -0.6562
vn 0.2646 -0.9089 -0.3224
vn 0.5982 0.3331 -0.7289
vn 0.1599 -0.9677 -0.1948
vn 0.5588 -0.6910 -0.4586
vn 0.5588 0.6910 -0.4586
vn 0.4453 -0.8174 -0.3654
vn 0.6562 0.5285 -0.5386
vn 0.3224 -0.9089 -0.2646
vn 0.7289 0.3331 -0.5982
vn 0.1948 -0.9677 -0.1599
vn 0.7680 0.1140 -0.6303
vn 0.0651 0.9964 -0.0535
vn 0.0651 -0.9964 -0.0535
vn 0.7680 -0.1140 -0.6303
vn 0.1948 0.9677 -0.1599
vn 0.7289 -0.3331 -0.5982
vn 0.3224 0.9089 -0.2646
vn 0.6562 -0.5285 -0.5386
vn 0.4453 0.8174 -0.3654
vn 0.0743 -0.9964 -0.0397
vn 0.8762 -0.1140 -0.4683
vn 0.2223 0.9677 -0.1188
vn 0.8315 -0.3331 -0.4445
vn 0.3679 0.9089 -0.1966
vn 0.7487 -0.5285 -0.4002
vn 0.5080 0.8174 -0.2715
vn 0.0740 -0.5148 -0.8541
vn 0.6375 0.6910 -0.3408
vn -0.4412 -0.8658 0.2358
vn 0.7487 0.5285 -0.4002
vn 0.3679 -0.9089 -0.1966
vn 0.8316 0.3331 -0.4445
vn 0.2223 -0.9677 -0.1188
vn 0.8762 0.1140 -0.4683
vn 0.0743 0.9964 -0.0397
vn 0.5512 -0.8174 -0.1672
vn 0.8124 0.5285 -0.2464
vn 0.3991 -0.9089 -0.1211
vn 0.9023 0.3331 -0.2737
vn 0.2412 -0.9677 -0.0732
vn 0.9507 0.1140 -0.2884
vn 0.0806 0.9964 -0.0245
vn 0.0806 -0.9964 -0.0245
vn 0.9507 -0.1140 -0.2884
vn 0.2412 0.9677 -0.0732
vn 0.9023 -0.3331 -0.2737
vn 0.3991 0.9089 -0.1211
vn 0.8124 -0.5285 -0.2464
vn 0.5512 0.8174 -0.1672
vn 0.9365 -0.3088 0.1661
vn 0.6918 0.6910 -0.2098
vn 0.2508 0.9677 -0.0247
vn 0.7451 -0.3007 -0.5953
vn 0.4151 0.9089 -0.0409
vn 0.1391 -0.9902 -0.0137
vn 0.5732 0.8174 -0.0565
vn 0.7194 -0.6910 -0.0709
vn 0.7194 0.6910 -0.0709
vn 0.5732 -0.8174 -0.0565
vn 0.8449 0.5285 -0.0832
vn 0.4151 -0.9089 -0.0409
vn 0.9383 0.3331 -0.0924
vn 0.2508 -0.9677 -0.0247
vn 0.9887 0.1140 -0.0974
vn 0.0839 0.9964 -0.0083
vn 0.0839 -0.9964 -0.0083
vn 0.9887 -0.1140 -0.0974
vn 0.8449 0.5285 0.0832
vn 0.4151 -0.9089 0.0409
vn 0.9383 0.3331 0.0924
vn 0.2508 -0.9677 0.0247
vn 0.9887 0.1140 0.0974
vn 0.0839 0.9964 0.0083
vn 0.0839 -0.9964 0.0083
vn 0.9887 -0.1140 0.0974
vn 0.2508 0.9677 0.0247
vn 0.9017 0.0612 0.4279
vn 0.4151 0.9089 0.0409
vn 0.8449 -0.5285 0.0832
vn 0.5732 0.8174 0.0565
vn 0.7194 -0.6910 0.0709
vn 0.7194 0.6910 0.0709
vn 0.5732 -0.8174 0.0565
vn 0.9023 -0.3331 0.2737
vn 0.3991 0.9089 0.1211
vn 0.8124 -0.5285 0.2464
vn 0.5512 0.8174 0.1672
vn 0.6446 -0.4987 -0.5795
vn 0.6918 0.6910 0.2098
vn 0.3163 -0.9438 0.0960
vn 0.8124 0.5285 0.2464
vn 0.3991 -0.9089 0.1211
vn 0.9023 0.3331 0.2737
vn 0.2573 -0.2766 -0.9259
vn 0.9507 0.1140 0.2884
vn 0.0806 0.9964 0.0245
vn 0.2102 -0.2760 -0.9379
vn 0.9507 -0.1140 0.2884
vn 0.2412 0.9677 0.0732
vn 0.3679 -0.9089 0.1966
vn 0.8315 0.3331 0.4445
vn -0.4728 -0.2766 0.8366
vn 0.8762 0.1140 0.4683
vn 0.0743 0.9964 0.0397
vn -0.5145 -0.2760 0.8118
vn 0.8762 -0.1140 0.4683
vn 0.2223 0.9677 0.1188
vn 0.8315 -0.3331 0.4445
vn 0.3679 0.9089 0.1966
vn 0.7487 -0.5285 0.4002
vn 0.5080 0.8174 0.2715
vn 0.4718 -0.1565 0.8677
vn 0.6375 0.6910 0.3408
vn 0.5080 -0.8174 0.2715
vn 0.7487 0.5285 0.4002
vn 0.3224 0.9089 0.2646
vn 0.6562 -0.5285 0.5386
vn 0.4453 0.8174 0.3654
vn 0.5588 -0.6910 0.4586
vn 0.5588 0.6910 0.4586
vn 0.4453 -0.8174 0.3654
vn 0.6562 0.5285 0.5386
vn 0.3224 -0.9089 0.2646
vn 0.7289 0.3331 0.5982
vn 0.1948 -0.9677 0.1599
vn 0.7680 0.1140 0.6303
vn 0.0651 0.9964 0.0535
vn 0.0651 -0.9964 0.0535
vn 0.7680 -0.1140 0.6303
vn 0.1948 0.9677 0.1599
vn 0.7289 -0.3331 0.5982
vn 0.5982 0.3331 0.7289
vn 0.1599 -0.9677 0.1948
vn 0.6303 0.1140 0.7680
vn 0.0535 0.9964 0.0651
vn 0.0535 -0.9964 0.0651
vn 0.6303 -0.1140 0.7680
vn 0.1599 0.9677 0.1948
vn 0.5982 -0.3331 0.7289
vn 0.2646 0.9089 0.3224
vn 0.9427 0.0816 0.3236
vn 0.3654 0.8174 0.4453
vn 0.4586 -0.6910 0.5588
vn 0.4586 0.6910 0.5588
vn 0.3654 -0.8174 0.4453
vn 0.5386 0.5285 0.6562
vn 0.2646 -0.9089 0.3224
vn -0.7823 -0.1606 0.6019
vn 0.2715 0.8174 0.5080
vn 0.1610 -0.9399 0.3012
vn 0.3408 0.6910 0.6375
vn 0.8465 -0.3759 0.3771
vn 0.4002 0.5285 0.7487
vn -0.2104 -0.8949 -0.3937
vn 0.4445 0.3331 0.8316
vn 0.1188 -0.9677 0.2223
vn 0.4683 0.1140 0.8762
vn 0.0397 0.9964 0.0743
vn 0.0397 -0.9964 0.0743
vn 0.4683 -0.1140 0.8762
vn 0.1188 0.9677 0.2223
vn 0.4445 -0.3331 0.8315
vn 0.1966 0.9089 0.3679
vn 0.0732 -0.9677 0.2412
vn 0.2884 0.1140 0.9507
vn 0.0245 0.9964 0.0806
vn 0.0245 -0.9964 0.0806
vn 0.2884 -0.1140 0.9507
vn 0.0732 0.9677 0.2412
vn 0.2737 -0.3331 0.9023
vn 0.1211 0.9089 0.3991
vn 0.2464 -0.5285 0.8124
vn 0.1672 0.8174 0.5512
vn 0.2098 -0.6910 0.6918
vn 0.2098 0.6910 0.6918
vn -0.6783 -0.5272 0.5119
vn 0.2464 0.5285 0.8124
vn 0.1211 -0.9089 0.3991
vn 0.2737 0.3331 0.9023
vn 0.0709 -0.6910 0.7194
vn 0.0709 0.6910 0.7194
vn 0.0565 -0.8174 0.5732
vn 0.0832 0.5285 0.8449
vn 0.0409 -0.9089 0.4151
vn 0.0924 0.3331 0.9383
vn 0.0247 -0.9677 0.2508
vn 0.0974 0.1140 0.9887
vn 0.0083 0.9964 0.0839
vn 0.0083 -0.9964 0.0839
vn 0.0974 -0.1140 0.9887
vn 0.0247 0.9677 0.2508
vn 0.0924 -0.3331 0.9383
vn 0.0409 0.9089 0.4151
vn 0.0832 -0.5285 0.8449
vn 0.0565 0.8174 0.5732
vn -0.0083 0.9964 0.0839
vn -0.0083 -0.9964 0.0839
vn -0.0974 -0.1140 0.9887
vn -0.0247 0.9677 0.2508
vn -0.0924 -0.3331 0.9383
vn -0.0409 0.9089 0.4151
vn -0.0832 -0.5285 0.8449
vn -0.0565 0.8174 0.5732
vn 0.7350 -0.4697 0.4890
vn -0.0709 0.6910 0.7194
vn 0.0622 -0.7731 -0.6313
vn -0.0832 0.5285 0.8449
vn -0.0409 -0.9089 0.4151
vn -0.0924 0.3331 0.9383
vn -0.0247 -0.9677 0.2508
vn -0.0974 0.1140 0.9887
vn -0.2098 0.6910 0.6918
vn -0.1672 -0.8174 0.5512
vn -0.2464 0.5285 0.8124
vn 0.4693 -0.4777 0.7427
vn -0.2737 0.3331 0.9023
vn -0.0732 -0.9677 0.2412
vn -0.2884 0.1140 0.9507
vn -0.0245 0.9964 0.0806
vn -0.0245 -0.9964 0.0806
vn -0.2884 -0.1140 0.9507
vn -0.0732 0.9677 0.2412
vn -0.2737 -0.3331 0.9023
vn -0.1211 0.9089 0.3991
vn -0.2464 -0.5285 0.8124
vn -0.1672 0.8174 0.5512
vn -0.6830 -0.2756 0.6764
vn -0.4683 -0.1140 0.8762
vn -0.1188 0.9677 0.2223
vn -0.4445 -0.3331 0.8315
vn -0.1966 0.9089 0.3679
vn -0.1537 -0.2030 0.9670
vn -0.2715 0.8174 0.5080
vn -0.3408 -0.6910 0.6375
vn -0.3408 0.6910 0.6375
vn -0.2715 -0.8174 0.5080
vn -0.4002 0.5285 0.7487
vn -0.8570 -0.4777 0.1933
vn -0.4445 0.3331 0.8316
vn 0.1349 -0.9582 -0.2524
vn -0.4683 0.1140 0.8762
vn -0.0397 0.9964 0.0743
vn -0.0397 -0.9964 0.0743
vn -0.3654 -0.8174 0.4453
vn -0.5386 0.5285 0.6562
vn -0.2646 -0.9089 0.3224
vn -0.5982 0.3331 0.7289
vn -0.1599 -0.9677 0.1948
vn -0.6303 0.1140 0.7680
vn -0.0535 0.9964 0.0651
vn -0.0535 -0.9964 0.0651
vn -0.6303 -0.1140 0.7680
vn -0.1599 0.9677 0.1948
vn -0.5982 -0.3331 0.7289
vn -0.2646 0.9089 0.3224
vn -0.8589 -0.1655 -0.4848
vn -0.3654 0.8174 0.4453
vn 0.0234 -0.9993 -0.0285
vn -0.4586 0.6910 0.5588
vn -0.1948 0.9677 0.1599
vn -0.7289 -0.3331 0.5982
vn -0.3224 0.9089 0.2646
vn -0.6562 -0.5285 0.5386
vn -0.4453 0.8174 0.3654
vn -0.5588 -0.6910 0.4586
vn -0.5588 0.6910 0.4586
vn -0.4453 -0.8174 0.3654
vn -0.6562 0.5285 0.5386
vn -0.3224 -0.9089 0.2646
vn -0.7289 0.3331 0.5982
vn -0.1948 -0.9677 0.1599
vn -0.7680 0.1140 0.6303
vn -0.0651 0.9964 0.0535
vn -0.0651 -0.9964 0.0535
vn -0.7680 -0.1140 0.6303
vn -0.7487 0.5285 0.4002
vn 0.3029 -0.4623 0.8334
vn -0.8316 0.3331 0.4445
vn 0.3960 -0.8935 -0.2117
vn -0.8762 0.1140 0.4683
vn -0.0743 0.9964 0.0397
vn -0.0743 -0.9964 0.0397
vn -0.8762 -0.1140 0.4683
vn -0.2223 0.9677 0.1188
vn -0.8315 -0.3331 0.4445
vn -0.3679 0.9089 0.1966
vn -0.7487 -0.5285 0.4002
vn -0.5080 0.8174 0.2715
vn -0.6375 -0.6910 0.3408
vn -0.6375 0.6910 0.3408
vn -0.5080 -0.8174 0.2715
vn -0.9023 -0.3331 0.2737
vn -0.3991 0.9089 0.1211
vn -0.8124 -0.5285 0.2464
vn -0.5512 0.8174 0.1672
vn -0.6918 -0.6910 0.2098
vn -0.6918 0.6910 0.2098
vn -0.5512 -0.8174 0.1672
vn -0.8124 0.5285 0.2464
vn -0.7535 -0.3841 -0.5336
vn -0.9023 0.3331 0.2737
vn -0.2412 -0.9677 0.0732
vn -0.9507 0.1140 0.2884
vn -0.0806 0.9964 0.0245
vn -0.0806 -0.9964 0.0245
vn -0.9507 -0.1140 0.2884
vn -0.2412 0.9677 0.0732
vn -0.4151 -0.9089 0.0409
vn -0.9383 0.3331 0.0924
vn -0.2508 -0.9677 0.0247
vn -0.9887 0.1140 0.0974
vn -0.0839 0.9964 0.0083
vn -0.0839 -0.9964 0.0083
vn -0.9887 -0.1140 0.0974
vn -0.2508 0.9677 0.0247
vn -0.9383 -0.3331 0.0924
vn -0.4151 0.9089 0.0409
vn -0.4618 0.4801 0.7458
vn -0.5732 0.8174 0.0565
vn -0.7194 -0.6910 0.0709
vn -0.7194 0.6910 0.0709
vn -0.5732 -0.8174 0.0565
vn -0.8449 0.5285 0.0832
vn -0.4842 -0.3925 -0.7820
vn -0.5732 0.8174 -0.0565
vn -0.3299 -0.9435 -0.0325
vn -0.7194 0.6910 -0.0709
vn -0.5732 -0.8174 -0.0565
vn -0.8449 0.5285 -0.0832
vn -0.4151 -0.9089 -0.0409
vn -0.9383 0.3331 -0.0924
vn -0.2508 -0.9677 -0.0247
vn -0.9887 0.1140 -0.0974
vn -0.0839 0.9964 -0.0083
vn -0.0839 -0.9964 -0.0083
vn -0.9887 -0.1140 -0.0974
vn -0.2508 0.9677 -0.0247
vn -0.9383 -0.3331 -0.0924
vn -0.4151 0.9089 -0.0409
vn -0.2412 -0.9677 -0.0732
vn -0.9507 0.1140 -0.2884
vn -0.0806 0.9964 -0.0245
vn -0.0806 -0.9964 -0.0245
vn -0.9507 -0.1140 -0.2884
vn -0.2412 0.9677 -0.0732
vn -0.9023 -0.3331 -0.2737
vn -0.3991 0.9089 -0.1211
vn -0.8124 -0.5285 -0.2464
vn -0.5512 0.8174 -0.1672
vn -0.6918 -0.6910 -0.2098
vn -0.6918 0.6910 -0.2098
vn -0.8597 -0.4084 0.3069
vn -0.8124 0.5285 -0.2464
vn -0.3991 -0.9089 -0.1211
vn -0.9023 0.3331 -0.2737
vn -0.5080 0.8174 -0.2715
vn -0.6375 -0.6910 -0.3408
vn -0.6375 0.6910 -0.3408
vn 0.0688 -0.5681 -0.8201
vn -0.7487 0.5285 -0.4002
vn 0.3155 -0.9338 0.1686
vn -0.8315 0.3331 -0.4445
vn -0.2223 -0.9677 -0.1188
vn -0.8762 0.1140 -0.4683
vn -0.0743 0.9964 -0.0397
vn -0.0743 -0.9964 -0.0397
vn -0.8762 -0.1140 -0.4683
vn -0.2223 0.9677 -0.1188
vn -0.8315 -0.3331 -0.4445
vn -0.3679 0.9089 -0.1966
vn -0.8035 0.4746 0.3594
vn -0.7680 0.1140 -0.6303
vn -0.0651 0.9964 -0.0535
vn -0.0651 -0.9964 -0.0535
vn -0.7680 -0.1140 -0.6303
vn -0.1948 0.9677 -0.1599
vn -0.7289 -0.3331 -0.5982
vn -0.3224 0.9089 -0.2646
vn 0.1138 -0.3594 -0.9262
vn -0.4453 0.8174 -0.3654
vn -0.0248 -0.9995 -0.0204
vn -0.5588 0.6910 -0.4586
vn -0.4453 -0.8174 -0.3654
vn -0.6562 0.5285 -0.5386
vn -0.3224 -0.9089 -0.2646
vn -0.7289 0.3331 -0.5982
vn -0.1948 -0.9677 -0.1599
vn -0.4586 -0.6910 -0.5588
vn -0.4586 0.6910 -0.5588
vn -0.3654 -0.8174 -0.4453
vn -0.5386 0.5285 -0.6562
vn -0.2646 -0.9089 -0.3224
vn -0.5982 0.3331 -0.7289
vn -0.1599 -0.9677 -0.1948
vn -0.6303 0.1140 -0.7680
vn -0.0535 0.9964 -0.0651
vn -0.0535 -0.9964 -0.0651
vn -0.6303 -0.1140 -0.7680
vn -0.1599 0.9677 -0.1948
vn -0.5982 -0.3331 -0.7289
vn -0.2646 0.9089 -0.3224
vn -0.5386 -0.5285 -0.6562
vn -0.3654 0.8174 -0.4453
vn -0.0397 0.9964 -0.0743
vn -0.0397 -0.9964 -0.0743
vn -0.4683 -0.1140 -0.8762
vn -0.1188 0.9677 -0.2223
vn -0.4445 -0.3331 -0.8315
vn -0.1966 0.9089 -0.3679
vn -0.8602 0.0776 -0.5041
vn -0.2715 0.8174 -0.5080
vn -0.3408 -0.6910 -0.6375
vn -0.3408 0.6910 -0.6375
vn -0.2715 -0.8174 -0.5080
vn -0.4002 0.5285 -0.7487
vn -0.1966 -0.9089 -0.3679
vn -0.4445 0.3331 -0.8316
vn -0.1188 -0.9677 -0.2223
vn -0.4683 0.1140 -0.8762
vn -0.2098 0.6910 -0.6918
vn -0.1672 -0.8174 -0.5512
vn -0.2464 0.5285 -0.8124
vn -0.8599 -0.4985 0.1097
vn -0.2737 0.3331 -0.9023
vn 0.1143 -0.9192 0.3769
vn -0.2884 0.1140 -0.9507
vn -0.0245 0.9964 -0.0806
vn -0.0245 -0.9964 -0.0806
vn -0.2884 -0.1140 -0.9507
vn -0.0732 0.9677 -0.2412
vn -0.2737 -0.3331 -0.9023
vn -0.1211 0.9089 -0.3991
vn 0.5676 -0.3791 -0.7308
vn -0.1672 0.8174 -0.5512
vn -0.1201 -0.9104 -0.3959
vn -0.0974 -0.1140 -0.9887
vn -0.0247 0.9677 -0.2508
vn -0.0924 -0.3331 -0.9383
vn -0.0409 0.9089 -0.4151
vn -0.0832 -0.5285 -0.8449
vn -0.0565 0.8174 -0.5732
vn -0.0709 -0.6910 -0.7194
vn -0.0709 0.6910 -0.7194
vn -0.0565 -0.8174 -0.5732
vn -0.0832 0.5285 -0.8449
vn 0.6508 -0.4141 -0.6364
vn -0.0924 0.3331 -0.9383
vn 0.0386 -0.9192 0.3920
vn -0.0974 0.1140 -0.9887
vn -0.0083 0.9964 -0.0839
vn -0.0083 -0.9964 -0.0839
vn 0.2464 -0.5285 -0.8124
vn -0.7637 -0.3610 -0.5351
vn 0.5673 -0.8215 0.0569
vn 0.2715 -0.8174 -0.5080
vn -0.4992 -0.6766 -0.5413
vn 0.4532 0.2752 -0.8479
vn 0.5219 -0.5686 -0.6359
vn 0.5130 -0.6960 0.5024
vn 0.8316 -0.3331 -0.4445
vn 0.8235 -0.3579 -0.4402
vn -0.0871 -0.5531 -0.8285
vn 0.8315 0.3331 -0.4445
vn -0.0093 -0.5643 0.8255
vn 0.6918 -0.6910 -0.2098
vn 0.9929 0.0674 -0.0978
vn 0.6193 -0.4578 -0.6379
vn 0.9383 -0.3331 0.0924
vn 0.1111 -0.7907 0.6020
vn 0.9340 0.2175 0.2833
vn 0.5655 -0.6495 -0.5083
vn 0.6669 -0.7171 0.2023
vn 0.6147 -0.7171 0.3285
vn 0.6375 -0.6910 0.3408
vn 0.2295 -0.8771 0.4220
vn 0.5386 -0.5285 0.6562
vn 0.5433 -0.8186 0.1865
vn 0.3415 0.6893 0.6389
vn -0.7689 -0.2424 0.5916
vn 0.2715 -0.8174 0.5080
vn 0.8046 -0.5435 -0.2391
vn 0.4445 0.3331 0.8315
vn 0.4445 -0.3331 0.8316
vn 0.2537 -0.4862 0.8362
vn -0.8389 -0.5414 0.0566
vn -0.0927 -0.3255 0.9410
vn 0.7946 -0.4971 0.3486
vn -0.6829 -0.4888 -0.5428
vn -0.1211 -0.9089 0.3991
vn 0.8009 -0.5810 0.1448
vn -0.2098 -0.6910 0.6918
vn -0.4445 -0.3331 0.8316
vn -0.4002 -0.5285 0.7487
vn 0.2547 -0.8323 0.4924
vn -0.1966 -0.9089 0.3679
vn -0.4445 0.3331 0.8315
vn -0.7482 -0.5821 -0.3185
vn -0.6341 0.0286 0.7727
vn -0.8259 -0.2038 -0.5257
vn -0.6964 -0.6136 0.3722
vn -0.8315 0.3331 0.4445
vn 0.3867 -0.4657 0.7960
vn -0.8316 -0.3331 0.4445
vn -0.3991 -0.9089 0.1211
vn -0.1149 -0.4610 -0.8799
vn -0.8449 -0.5285 0.0832
vn -0.2913 -0.8330 0.4704
vn -0.6917 0.7190 -0.0681
vn -0.4404 -0.5481 -0.7111
vn -0.5512 -0.8174 -0.1672
vn -0.0861 -0.5941 0.7998
vn -0.3209 -0.7670 0.5556
vn -0.7561 -0.5148 -0.4041
vn 0.1992 -0.5896 -0.7828
vn -0.7487 -0.5285 -0.4002
vn -0.6229 0.5922 -0.5112
vn 0.1524 -0.4823 -0.8626
vn -0.4445 -0.3331 -0.8316
vn -0.4002 -0.5285 -0.7487
vn -0.4959 -0.8183 -0.2906
vn -0.4445 0.3331 -0.8315
vn -0.2235 -0.6381 -0.7368
vn -0.8391 -0.5033 0.2064
vn -0.2628 0.4245 -0.8665
vn 0.5193 -0.5324 -0.6685
vn -0.0409 -0.9089 -0.4151
vn 0.8542 -0.5033 -0.1305
vt 0.575291 0.586242
vt 0.522882 0.610760
vt 0.519119 0.600118
vt 0.301381 0.668196
vt 0.325502 0.645047
vt 0.325996 0.668527
vt 0.132695 0.617310
vt 0.092307 0.578746
vt 0.139895 0.602932
vt 0.349006 0.643977
vt 0.351193 0.666693
vt 0.167938 0.635487
vt 0.175134 0.617893
vt 0.372582 0.641262
vt 0.376410 0.662336
vt 0.198167 0.647899
vt 0.204906 0.627952
vt 0.405358 0.656164
vt 0.399887 0.635458
vt 0.231292 0.634985
vt 0.226068 0.656461
vt 0.431255 0.628144
vt 0.437181 0.646236
vt 0.251880 0.662484
vt 0.256003 0.639726
vt 0.467108 0.616546
vt 0.471787 0.631774
vt 0.276802 0.666347
vt 0.279423 0.642816
vt 0.302429 0.644591
vt 0.087076 0.589132
vt 0.036706 0.557251
vt 0.516203 0.588678
vt 0.303496 0.622326
vt 0.042317 0.547116
vt 0.097497 0.568438
vt 0.576017 0.579522
vt 0.325623 0.623072
vt 0.146132 0.588570
vt 0.348352 0.622945
vt 0.181129 0.600703
vt 0.373241 0.621869
vt 0.210157 0.608764
vt 0.397929 0.614266
vt 0.235612 0.614362
vt 0.426761 0.610691
vt 0.259179 0.618237
vt 0.462948 0.601433
vt 0.281564 0.620709
vt 0.214421 0.590107
vt 0.372067 0.598027
vt 0.396296 0.596304
vt 0.238961 0.594565
vt 0.431823 0.590502
vt 0.261742 0.597610
vt 0.460150 0.584426
vt 0.283324 0.599582
vt 0.513455 0.577674
vt 0.304451 0.600761
vt 0.045835 0.540886
vt 0.101864 0.557883
vt 0.570965 0.569160
vt 0.325817 0.601340
vt 0.151213 0.574168
vt 0.348354 0.600839
vt 0.185905 0.583808
vt 0.284679 0.579110
vt 0.305147 0.579941
vt 0.048875 0.534347
vt 0.105425 0.547146
vt 0.570564 0.562560
vt 0.511607 0.566299
vt 0.325819 0.580321
vt 0.155270 0.559757
vt 0.347362 0.579984
vt 0.189568 0.567196
vt 0.370432 0.578613
vt 0.217556 0.571916
vt 0.395177 0.576086
vt 0.241665 0.575305
vt 0.422994 0.572488
vt 0.263753 0.577635
vt 0.458786 0.569541
vt 0.393228 0.558534
vt 0.219918 0.554065
vt 0.243635 0.556504
vt 0.420787 0.555444
vt 0.265238 0.558163
vt 0.458770 0.553943
vt 0.285667 0.559184
vt 0.511634 0.554926
vt 0.305637 0.559730
vt 0.049218 0.532170
vt 0.107263 0.535948
vt 0.569637 0.560746
vt 0.325789 0.559992
vt 0.158008 0.545284
vt 0.346781 0.559794
vt 0.192440 0.550709
vt 0.369857 0.559675
vt 0.569833 0.549999
vt 0.511785 0.543532
vt 0.325692 0.540036
vt 0.160266 0.530881
vt 0.346245 0.539573
vt 0.194265 0.534411
vt 0.368251 0.538030
vt 0.221534 0.536465
vt 0.402285 0.540903
vt 0.244962 0.538029
vt 0.420515 0.536361
vt 0.266233 0.539066
vt 0.459146 0.538190
vt 0.286317 0.539663
vt 0.305928 0.539933
vt 0.051505 0.519600
vt 0.109376 0.524811
vt 0.392541 0.518597
vt 0.421063 0.519478
vt 0.266769 0.520219
vt 0.461188 0.522215
vt 0.286652 0.520423
vt 0.513784 0.532351
vt 0.306091 0.520498
vt 0.053254 0.512185
vt 0.110760 0.513674
vt 0.569824 0.548141
vt 0.325722 0.520596
vt 0.161199 0.516511
vt 0.345572 0.520624
vt 0.195443 0.518183
vt 0.367488 0.519521
vt 0.222452 0.519044
vt 0.245697 0.519771
vt 0.161758 0.502192
vt 0.352540 0.502396
vt 0.195679 0.502043
vt 0.367830 0.500114
vt 0.222685 0.501706
vt 0.392349 0.500499
vt 0.245864 0.501624
vt 0.421980 0.501110
vt 0.266864 0.501489
vt 0.463666 0.505006
vt 0.286671 0.501264
vt 0.516861 0.521261
vt 0.306004 0.500958
vt 0.054271 0.504646
vt 0.111438 0.502535
vt 0.571898 0.542505
vt 0.325482 0.500521
vt 0.266517 0.482798
vt 0.468753 0.486220
vt 0.286369 0.482186
vt 0.521227 0.510330
vt 0.305774 0.481674
vt 0.053898 0.502282
vt 0.110392 0.491358
vt 0.574805 0.538065
vt 0.325456 0.481415
vt 0.161100 0.487888
vt 0.346252 0.480931
vt 0.195321 0.485878
vt 0.368600 0.481155
vt 0.222255 0.484392
vt 0.392642 0.483188
vt 0.245473 0.483497
vt 0.422271 0.482899
vt 0.345724 0.461473
vt 0.194046 0.469671
vt 0.367765 0.461201
vt 0.221136 0.467001
vt 0.382340 0.468233
vt 0.244519 0.465288
vt 0.423382 0.463611
vt 0.265734 0.464018
vt 0.468849 0.465686
vt 0.285759 0.463020
vt 0.554023 0.469434
vt 0.305323 0.462271
vt 0.052694 0.489323
vt 0.109689 0.480117
vt 0.575717 0.544278
vt 0.325093 0.461865
vt 0.159963 0.473563
vt 0.423704 0.444360
vt 0.469524 0.445066
vt 0.264503 0.445024
vt 0.284843 0.443629
vt 0.525169 0.426149
vt 0.304708 0.442663
vt 0.052236 0.481793
vt 0.108270 0.468993
vt 0.581993 0.397342
vt 0.324710 0.442240
vt 0.157960 0.459235
vt 0.345396 0.442113
vt 0.191985 0.453411
vt 0.367433 0.442274
vt 0.219309 0.449484
vt 0.392211 0.442864
vt 0.242982 0.446894
vt 0.189057 0.437060
vt 0.345482 0.422332
vt 0.367419 0.422968
vt 0.216725 0.431748
vt 0.393501 0.423904
vt 0.240819 0.428199
vt 0.424057 0.425895
vt 0.262798 0.425673
vt 0.466369 0.425406
vt 0.283621 0.423849
vt 0.521848 0.414758
vt 0.303979 0.422661
vt 0.051244 0.474573
vt 0.106102 0.458027
vt 0.581618 0.403515
vt 0.324449 0.422250
vt 0.155062 0.444897
vt 0.260567 0.405804
vt 0.282068 0.403499
vt 0.520501 0.403036
vt 0.303163 0.402079
vt 0.050231 0.472393
vt 0.102249 0.447453
vt 0.580972 0.402025
vt 0.324427 0.401732
vt 0.150843 0.430645
vt 0.346167 0.402246
vt 0.185326 0.420537
vt 0.362437 0.392851
vt 0.213312 0.413700
vt 0.395346 0.404787
vt 0.237961 0.409069
vt 0.424516 0.407698
vt 0.465682 0.407242
vt 0.349050 0.380368
vt 0.372334 0.379741
vt 0.208935 0.395206
vt 0.397132 0.384286
vt 0.234306 0.389355
vt 0.436461 0.387711
vt 0.257726 0.385231
vt 0.466601 0.387972
vt 0.280114 0.382349
vt 0.519910 0.392225
vt 0.302197 0.380624
vt 0.045771 0.461358
vt 0.098475 0.436752
vt 0.575357 0.394616
vt 0.324661 0.380225
vt 0.145922 0.416327
vt 0.180382 0.403741
vt 0.468879 0.372735
vt 0.520460 0.381005
vt 0.277633 0.360147
vt 0.300826 0.357927
vt 0.043251 0.455118
vt 0.093858 0.426379
vt 0.577423 0.389418
vt 0.324372 0.357156
vt 0.139833 0.402059
vt 0.348863 0.357496
vt 0.174276 0.386714
vt 0.374270 0.359039
vt 0.203461 0.376212
vt 0.402187 0.361766
vt 0.229715 0.368911
vt 0.432190 0.365030
vt 0.254153 0.363755
vt 0.404403 0.342576
vt 0.196700 0.356616
vt 0.224009 0.347573
vt 0.434266 0.346015
vt 0.249696 0.341169
vt 0.472280 0.357467
vt 0.274526 0.336692
vt 0.522818 0.370236
vt 0.299120 0.333944
vt 0.041792 0.453270
vt 0.087646 0.416782
vt 0.576575 0.387652
vt 0.324070 0.333011
vt 0.132536 0.387864
vt 0.349897 0.333728
vt 0.166801 0.369437
vt 0.377471 0.337266
vt 0.032062 0.447441
vt 0.080663 0.407079
vt 0.578126 0.382665
vt 0.526284 0.359734
vt 0.323788 0.307160
vt 0.123425 0.373981
vt 0.351452 0.307793
vt 0.157883 0.351952
vt 0.380126 0.309950
vt 0.188401 0.336326
vt 0.419515 0.325273
vt 0.216947 0.325146
vt 0.441877 0.325907
vt 0.244172 0.317211
vt 0.477507 0.342886
vt 0.270694 0.311676
vt 0.297052 0.308307
vt 0.178176 0.315180
vt 0.208207 0.301386
vt 0.416678 0.293541
vt 0.450299 0.307427
vt 0.237331 0.291547
vt 0.491292 0.327376
vt 0.266004 0.284713
vt 0.530617 0.350174
vt 0.294666 0.280668
vt 0.032990 0.442587
vt 0.072862 0.398499
vt 0.577220 0.377062
vt 0.323717 0.279576
vt 0.113094 0.360278
vt 0.353384 0.281189
vt 0.146835 0.334118
vt 0.384338 0.286128
vt 0.324134 0.249310
vt 0.100817 0.347071
vt 0.356809 0.252206
vt 0.133502 0.316115
vt 0.400710 0.247134
vt 0.165607 0.293145
vt 0.424049 0.270218
vt 0.197347 0.276028
vt 0.459272 0.286791
vt 0.228819 0.263740
vt 0.494698 0.307123
vt 0.260238 0.255227
vt 0.537671 0.338450
vt 0.291924 0.250316
vt 0.026215 0.437077
vt 0.064484 0.390176
vt 0.593956 0.380296
vt 0.433506 0.241871
vt 0.471631 0.266352
vt 0.218111 0.233232
vt 0.504513 0.294361
vt 0.253036 0.222470
vt 0.544228 0.329160
vt 0.288624 0.216334
vt 0.022789 0.434532
vt 0.055078 0.382924
vt 0.588342 0.367254
vt 0.325129 0.215071
vt 0.086226 0.334864
vt 0.363489 0.217808
vt 0.117630 0.298289
vt 0.398897 0.224281
vt 0.150107 0.270202
vt 0.183744 0.248759
vt 0.044517 0.377366
vt 0.069526 0.323887
vt 0.368738 0.181045
vt 0.098375 0.280820
vt 0.410487 0.192824
vt 0.130773 0.246306
vt 0.450632 0.214811
vt 0.166494 0.219185
vt 0.489055 0.246317
vt 0.204445 0.199303
vt 0.516037 0.282929
vt 0.243880 0.185508
vt 0.552130 0.321174
vt 0.284508 0.177756
vt 0.021439 0.434025
vt 0.588916 0.365475
vt 0.326218 0.176316
vt 0.186704 0.160964
vt 0.538008 0.274587
vt 0.232090 0.143021
vt 0.563363 0.312918
vt 0.279407 0.133197
vt 0.015968 0.433377
vt 0.033098 0.372888
vt 0.599862 0.374352
vt 0.328096 0.131661
vt 0.050411 0.314630
vt 0.377661 0.138458
vt 0.074612 0.264017
vt 0.427298 0.155469
vt 0.106379 0.221555
vt 0.471878 0.185732
vt 0.144307 0.186869
vt 0.510914 0.223118
vt 0.390105 0.087636
vt 0.028451 0.308015
vt 0.046357 0.249264
vt 0.452127 0.110392
vt 0.075372 0.196444
vt 0.499377 0.156538
vt 0.115315 0.151458
vt 0.534462 0.204228
vt 0.163131 0.116734
vt 0.561137 0.252301
vt 0.216737 0.093058
vt 0.573693 0.309239
vt 0.273055 0.080748
vt 0.013788 0.433851
vt 0.020894 0.370299
vt 0.587296 0.363774
vt 0.330876 0.078988
vt 0.582976 0.246116
vt 0.130376 0.063718
vt 0.196758 0.032578
vt 0.585588 0.307607
vt 0.265488 0.018428
vt 0.012730 0.434956
vt 0.008185 0.369945
vt 0.587969 0.369106
vt 0.334885 0.016258
vt 0.003885 0.304916
vt 0.404425 0.029148
vt 0.012460 0.238108
vt 0.478726 0.003845
vt 0.034938 0.171627
vt 0.535304 0.131332
vt 0.076900 0.113177
vt 0.563756 0.188851
vt 0.496323 0.984526
vt 0.409720 0.918140
vt 0.468817 0.883957
vt 0.012068 0.771772
vt 0.078671 0.812481
vt 0.039542 0.837662
vt 0.515386 0.837894
vt 0.555899 0.859934
vt 0.080334 0.897596
vt 0.119587 0.856997
vt 0.581116 0.798800
vt 0.548852 0.786090
vt 0.168669 0.891635
vt 0.137350 0.943265
vt 0.568455 0.730954
vt 0.591867 0.735861
vt 0.201379 0.977292
vt 0.223241 0.915485
vt 0.583682 0.670169
vt 0.595984 0.672135
vt 0.273811 0.996155
vt 0.282157 0.928217
vt 0.006885 0.636745
vt 0.010174 0.570371
vt 0.019834 0.636120
vt 0.599862 0.608394
vt 0.343581 0.929570
vt 0.347419 0.994543
vt 0.003845 0.703131
vt 0.028741 0.699814
vt 0.415585 0.984078
vt 0.047380 0.759107
vt 0.572007 0.666049
vt 0.238714 0.863910
vt 0.287855 0.872780
vt 0.011286 0.571253
vt 0.032266 0.633226
vt 0.598866 0.608552
vt 0.338815 0.873210
vt 0.050999 0.692736
vt 0.391288 0.863027
vt 0.076187 0.743483
vt 0.441288 0.841675
vt 0.109438 0.786431
vt 0.485843 0.809372
vt 0.148480 0.820551
vt 0.523498 0.752896
vt 0.191957 0.846595
vt 0.548223 0.722859
vt 0.133641 0.760830
vt 0.462025 0.778109
vt 0.170390 0.787396
vt 0.494632 0.744497
vt 0.209321 0.807198
vt 0.528701 0.710757
vt 0.249944 0.820091
vt 0.561810 0.660700
vt 0.291905 0.826598
vt 0.015496 0.572034
vt 0.043828 0.628805
vt 0.594195 0.611354
vt 0.335061 0.826922
vt 0.070369 0.683064
vt 0.378860 0.818818
vt 0.099775 0.726226
vt 0.413865 0.796917
vt 0.258316 0.782103
vt 0.294788 0.786945
vt 0.019215 0.571534
vt 0.054480 0.622937
vt 0.593970 0.611433
vt 0.552857 0.653518
vt 0.331970 0.787145
vt 0.087108 0.671593
vt 0.369986 0.781149
vt 0.119142 0.708172
vt 0.404336 0.765319
vt 0.152811 0.736148
vt 0.442825 0.751393
vt 0.187289 0.757069
vt 0.479038 0.726474
vt 0.222482 0.772330
vt 0.514612 0.697109
vt 0.429973 0.725252
vt 0.168098 0.712540
vt 0.200499 0.729167
vt 0.466191 0.706475
vt 0.232610 0.741085
vt 0.502608 0.683244
vt 0.264680 0.748607
vt 0.544324 0.645300
vt 0.296879 0.752240
vt 0.023391 0.570113
vt 0.064144 0.615895
vt 0.590511 0.605882
vt 0.329433 0.752263
vt 0.101440 0.658920
vt 0.362254 0.747884
vt 0.135082 0.689839
vt 0.394705 0.738447
vt 0.024554 0.569137
vt 0.072469 0.607319
vt 0.590055 0.604226
vt 0.537220 0.635640
vt 0.327845 0.721872
vt 0.113754 0.645455
vt 0.357430 0.719018
vt 0.148258 0.671513
vt 0.376933 0.705308
vt 0.180351 0.690017
vt 0.420128 0.701023
vt 0.210955 0.703320
vt 0.456492 0.686137
vt 0.240511 0.712759
vt 0.492690 0.669281
vt 0.269635 0.718668
vt 0.298630 0.721576
vt 0.190153 0.668547
vt 0.219363 0.679164
vt 0.411075 0.677558
vt 0.445508 0.664453
vt 0.246734 0.686782
vt 0.487445 0.647791
vt 0.273583 0.691465
vt 0.529773 0.623371
vt 0.300126 0.693803
vt 0.031406 0.563210
vt 0.080252 0.598506
vt 0.596082 0.591516
vt 0.326870 0.694147
vt 0.124084 0.631519
vt 0.354664 0.691608
vt 0.159208 0.653382
vt 0.381084 0.684007
vt 0.035843 0.559008
vt 0.590662 0.581915
s 0
usemtl マテリアル
f 308/1/1 482/2/1 21/3/1
f 4/4/2 15/5/2 5/6/2
f 475/7/3 7/8/3 8/9/3
f 5/6/4 16/10/4 478/11/4
f 1/12/5 8/9/5 9/13/5
f 478/11/6 17/14/6 6/15/6
f 476/16/7 9/13/7 10/17/7
f 479/18/8 17/14/8 18/19/8
f 476/16/9 11/20/9 2/21/9
f 479/18/10 19/22/10 480/23/10
f 477/24/11 11/20/11 12/25/11
f 480/23/12 20/26/12 481/27/12
f 3/28/13 12/25/13 13/29/13
f 481/27/14 21/3/14 482/2/14
f 3/28/15 14/30/15 4/4/15
f 474/31/16 82/32/16 7/8/16
f 20/26/17 36/33/17 21/3/17
f 13/29/18 29/34/18 14/30/18
f 7/8/19 82/35/19 22/36/19
f 308/37/20 21/3/20 36/33/20
f 14/30/21 30/38/21 15/5/21
f 7/8/22 23/39/22 8/9/22
f 15/5/23 31/40/23 16/10/23
f 8/9/24 24/41/24 9/13/24
f 17/14/25 31/40/25 32/42/25
f 9/13/26 25/43/26 10/17/26
f 18/19/27 32/42/27 33/44/27
f 10/17/28 26/45/28 11/20/28
f 19/22/29 33/44/29 34/46/29
f 11/20/30 27/47/30 12/25/30
f 20/26/31 34/46/31 35/48/31
f 13/29/32 27/47/32 28/49/32
f 24/41/33 40/50/33 25/43/33
f 33/44/34 47/51/34 48/52/34
f 25/43/35 41/53/35 26/45/35
f 34/46/36 48/52/36 49/54/36
f 26/45/37 42/55/37 27/47/37
f 35/48/38 49/54/38 50/56/38
f 28/49/39 42/55/39 43/57/39
f 36/33/40 50/56/40 51/58/40
f 29/34/41 43/57/41 44/59/41
f 22/36/42 82/60/42 37/61/42
f 308/62/43 36/33/43 51/58/43
f 29/34/44 45/63/44 30/38/44
f 22/36/45 38/64/45 23/39/45
f 30/38/46 46/65/46 31/40/46
f 23/39/47 39/66/47 24/41/47
f 32/42/48 46/65/48 47/51/48
f 44/59/49 58/67/49 59/68/49
f 37/61/50 82/69/50 52/70/50
f 308/71/51 51/58/51 66/72/51
f 44/59/52 60/73/52 45/63/52
f 37/61/53 53/74/53 38/64/53
f 45/63/54 61/75/54 46/65/54
f 38/64/55 54/76/55 39/66/55
f 47/51/56 61/75/56 62/77/56
f 39/66/57 55/78/57 40/50/57
f 47/51/58 63/79/58 48/52/58
f 41/53/59 55/78/59 56/80/59
f 49/54/60 63/79/60 64/81/60
f 41/53/61 57/82/61 42/55/61
f 50/56/62 64/81/62 65/83/62
f 43/57/63 57/82/63 58/67/63
f 51/58/64 65/83/64 66/72/64
f 62/77/65 78/84/65 63/79/65
f 56/80/66 70/85/66 71/86/66
f 64/81/67 78/84/67 79/87/67
f 56/80/68 72/88/68 57/82/68
f 64/81/69 80/89/69 65/83/69
f 58/67/70 72/88/70 73/90/70
f 65/83/71 81/91/71 66/72/71
f 59/68/72 73/90/72 74/92/72
f 52/70/73 82/93/73 67/94/73
f 308/95/74 66/72/74 81/91/74
f 59/68/75 75/96/75 60/73/75
f 53/74/76 67/94/76 68/97/76
f 60/73/77 76/98/77 61/75/77
f 54/76/78 68/97/78 69/99/78
f 62/77/79 76/98/79 77/100/79
f 54/76/80 70/85/80 55/78/80
f 308/101/81 81/91/81 97/102/81
f 74/92/82 91/103/82 75/96/82
f 67/94/83 84/104/83 68/97/83
f 75/96/84 92/105/84 76/98/84
f 68/97/85 85/106/85 69/99/85
f 77/100/86 92/105/86 93/107/86
f 69/99/87 86/108/87 70/85/87
f 77/100/88 94/109/88 78/84/88
f 71/86/89 86/108/89 87/110/89
f 79/87/90 94/109/90 95/111/90
f 71/86/91 88/112/91 72/88/91
f 80/89/92 95/111/92 96/113/92
f 73/90/93 88/112/93 89/114/93
f 81/91/94 96/113/94 97/102/94
f 74/92/95 89/114/95 90/115/95
f 67/94/96 82/116/96 83/117/96
f 95/111/97 109/118/97 110/119/97
f 87/110/98 103/120/98 88/112/98
f 95/111/99 111/121/99 96/113/99
f 89/114/100 103/120/100 104/122/100
f 96/113/101 112/123/101 97/102/101
f 90/115/102 104/122/102 105/124/102
f 83/117/103 82/125/103 98/126/103
f 308/127/104 97/102/104 112/123/104
f 90/115/105 106/128/105 91/103/105
f 83/117/106 99/129/106 84/104/106
f 91/103/107 107/130/107 92/105/107
f 85/106/108 99/129/108 100/131/108
f 93/107/109 107/130/109 108/132/109
f 85/106/110 101/133/110 86/108/110
f 93/107/111 109/118/111 94/109/111
f 87/110/112 101/133/112 102/134/112
f 98/126/113 114/135/113 99/129/113
f 106/128/114 122/136/114 107/130/114
f 99/129/115 115/137/115 100/131/115
f 108/132/116 122/136/116 123/138/116
f 100/131/117 116/139/117 101/133/117
f 108/132/118 124/140/118 109/118/118
f 102/134/119 116/139/119 117/141/119
f 110/119/120 124/140/120 125/142/120
f 102/134/121 118/143/121 103/120/121
f 111/121/122 125/142/122 126/144/122
f 104/122/123 118/143/123 119/145/123
f 111/121/124 127/146/124 112/123/124
f 105/124/125 119/145/125 120/147/125
f 98/126/126 82/148/126 113/149/126
f 308/150/127 112/123/127 127/146/127
f 105/124/128 121/151/128 106/128/128
f 117/141/129 133/152/129 118/143/129
f 125/142/130 141/153/130 126/144/130
f 119/145/131 133/152/131 134/154/131
f 126/144/132 142/155/132 127/146/132
f 120/147/133 134/154/133 135/156/133
f 113/149/134 82/157/134 128/158/134
f 308/159/135 127/146/135 142/155/135
f 120/147/136 136/160/136 121/151/136
f 114/135/137 128/158/137 129/161/137
f 121/151/138 137/162/138 122/136/138
f 115/137/139 129/161/139 130/163/139
f 123/138/140 137/162/140 138/164/140
f 115/137/141 131/165/141 116/139/141
f 123/138/142 139/166/142 124/140/142
f 117/141/143 131/165/143 132/167/143
f 125/142/144 139/166/144 140/168/144
f 136/160/145 152/169/145 137/162/145
f 129/161/146 145/170/146 130/163/146
f 138/164/147 152/169/147 153/171/147
f 130/163/148 146/172/148 131/165/148
f 138/164/149 154/173/149 139/166/149
f 132/167/150 146/172/150 147/174/150
f 140/168/151 154/173/151 155/175/151
f 132/167/152 148/176/152 133/152/152
f 141/153/153 155/175/153 156/177/153
f 134/154/154 148/176/154 149/178/154
f 141/153/155 157/179/155 142/155/155
f 135/156/156 149/178/156 150/180/156
f 128/158/157 82/181/157 143/182/157
f 308/183/158 142/155/158 157/179/158
f 135/156/159 151/184/159 136/160/159
f 128/158/160 144/185/160 129/161/160
f 156/177/161 170/186/161 171/187/161
f 149/178/162 163/188/162 164/189/162
f 157/179/163 171/187/163 172/190/163
f 150/180/164 164/189/164 165/191/164
f 143/182/165 82/192/165 158/193/165
f 308/194/166 157/179/166 172/190/166
f 150/180/167 166/195/167 151/184/167
f 143/182/168 159/196/168 144/185/168
f 151/184/169 167/197/169 152/169/169
f 144/185/170 160/198/170 145/170/170
f 153/171/171 167/197/171 168/199/171
f 145/170/172 161/200/172 146/172/172
f 153/171/173 169/201/173 154/173/173
f 147/174/174 161/200/174 162/202/174
f 155/175/175 169/201/175 170/186/175
f 147/174/176 163/188/176 148/176/176
f 159/196/177 175/203/177 160/198/177
f 168/199/178 182/204/178 183/205/178
f 160/198/179 176/206/179 161/200/179
f 168/199/180 184/207/180 169/201/180
f 162/202/181 176/206/181 177/208/181
f 170/186/182 184/207/182 185/209/182
f 162/202/183 178/210/183 163/188/183
f 171/187/184 185/209/184 186/211/184
f 164/189/185 178/210/185 179/212/185
f 172/190/186 186/211/186 187/213/186
f 165/191/187 179/212/187 180/214/187
f 158/193/188 82/215/188 173/216/188
f 308/217/189 172/190/189 187/213/189
f 165/191/190 181/218/190 166/195/190
f 158/193/191 174/219/191 159/196/191
f 166/195/192 182/204/192 167/197/192
f 179/212/193 193/220/193 194/221/193
f 186/211/194 202/222/194 187/213/194
f 180/214/195 194/221/195 195/223/195
f 173/216/196 82/224/196 188/225/196
f 308/226/197 187/213/197 202/222/197
f 180/214/198 196/227/198 181/218/198
f 174/219/199 188/225/199 189/228/199
f 181/218/200 197/229/200 182/204/200
f 175/203/201 189/228/201 190/230/201
f 183/205/202 197/229/202 198/231/202
f 175/203/203 191/232/203 176/206/203
f 183/205/204 199/233/204 184/207/204
f 177/208/205 191/232/205 192/234/205
f 185/209/206 199/233/206 200/235/206
f 177/208/207 193/220/207 178/210/207
f 185/209/208 201/236/208 186/211/208
f 198/231/209 212/237/209 213/238/209
f 190/230/210 206/239/210 191/232/210
f 198/231/211 214/240/211 199/233/211
f 192/234/212 206/239/212 207/241/212
f 200/235/213 214/240/213 215/242/213
f 192/234/214 208/243/214 193/220/214
f 201/236/215 215/242/215 216/244/215
f 194/221/216 208/243/216 209/245/216
f 202/222/217 216/244/217 217/246/217
f 195/223/218 209/245/218 210/247/218
f 188/225/219 82/248/219 203/249/219
f 308/250/220 202/222/220 217/246/220
f 195/223/221 211/251/221 196/227/221
f 188/225/222 204/252/222 189/228/222
f 196/227/223 212/237/223 197/229/223
f 189/228/224 205/253/224 190/230/224
f 217/246/225 231/254/225 232/255/225
f 210/247/226 224/256/226 225/257/226
f 203/249/227 82/258/227 218/259/227
f 308/260/228 217/246/228 232/255/228
f 210/247/229 226/261/229 211/251/229
f 203/249/230 219/262/230 204/252/230
f 211/251/231 227/263/231 212/237/231
f 204/252/232 220/264/232 205/253/232
f 213/238/233 227/263/233 228/265/233
f 205/253/234 221/266/234 206/239/234
f 213/238/235 229/267/235 214/240/235
f 207/241/236 221/266/236 222/268/236
f 215/242/237 229/267/237 230/269/237
f 207/241/238 223/270/238 208/243/238
f 216/244/239 230/269/239 231/254/239
f 209/245/240 223/270/240 224/256/240
f 228/265/241 244/271/241 229/267/241
f 222/268/242 236/272/242 237/273/242
f 230/269/243 244/271/243 245/274/243
f 222/268/244 238/275/244 223/270/244
f 231/254/245 245/274/245 246/276/245
f 224/256/246 238/275/246 239/277/246
f 231/254/247 247/278/247 232/255/247
f 225/257/248 239/277/248 240/279/248
f 218/259/249 82/280/249 233/281/249
f 308/282/250 232/255/250 247/278/250
f 225/257/251 241/283/251 226/261/251
f 219/262/252 233/281/252 234/284/252
f 226/261/253 242/285/253 227/263/253
f 219/262/254 235/286/254 220/264/254
f 228/265/255 242/285/255 243/287/255
f 220/264/256 236/272/256 221/266/256
f 233/281/257 82/288/257 248/289/257
f 308/290/258 247/278/258 262/291/258
f 240/279/259 256/292/259 241/283/259
f 234/284/260 248/289/260 249/293/260
f 241/283/261 257/294/261 242/285/261
f 235/286/262 249/293/262 250/295/262
f 243/287/263 257/294/263 258/296/263
f 235/286/264 251/297/264 236/272/264
f 243/287/265 259/298/265 244/271/265
f 237/273/266 251/297/266 252/299/266
f 245/274/267 259/298/267 260/300/267
f 237/273/268 253/301/268 238/275/268
f 245/274/269 261/302/269 246/276/269
f 239/277/270 253/301/270 254/303/270
f 246/276/271 262/291/271 247/278/271
f 240/279/272 254/303/272 255/304/272
f 252/299/273 266/305/273 267/306/273
f 260/300/274 274/307/274 275/308/274
f 252/299/275 268/309/275 253/301/275
f 261/302/276 275/308/276 276/310/276
f 254/303/277 268/309/277 269/311/277
f 261/302/278 277/312/278 262/291/278
f 255/304/279 269/311/279 270/313/279
f 248/289/280 82/314/280 263/315/280
f 308/316/281 262/291/281 277/312/281
f 255/304/282 271/317/282 256/292/282
f 249/293/283 263/315/283 264/318/283
f 256/292/284 272/319/284 257/294/284
f 249/293/285 265/320/285 250/295/285
f 258/296/286 272/319/286 273/321/286
f 250/295/287 266/305/287 251/297/287
f 258/296/288 274/307/288 259/298/288
f 270/313/289 286/322/289 271/317/289
f 263/315/290 279/323/290 264/318/290
f 271/317/291 287/324/291 272/319/291
f 264/318/292 280/325/292 265/320/292
f 273/321/293 287/324/293 288/326/293
f 265/320/294 281/327/294 266/305/294
f 273/321/295 289/328/295 274/307/295
f 267/306/296 281/327/296 282/329/296
f 275/308/297 289/328/297 290/330/297
f 267/306/298 283/331/298 268/309/298
f 275/308/299 291/332/299 276/310/299
f 269/311/300 283/331/300 284/333/300
f 276/310/301 292/334/301 277/312/301
f 270/313/302 284/333/302 285/335/302
f 263/315/303 82/336/303 278/337/303
f 308/338/304 277/312/304 292/334/304
f 290/330/305 304/339/305 305/340/305
f 282/329/306 298/341/306 283/331/306
f 290/330/307 306/342/307 291/332/307
f 284/333/308 298/341/308 299/343/308
f 292/334/309 306/342/309 307/344/309
f 285/335/310 299/343/310 300/345/310
f 278/337/311 82/346/311 293/347/311
f 308/348/312 292/334/312 307/344/312
f 285/335/313 301/349/313 286/322/313
f 278/337/314 294/350/314 279/323/314
f 286/322/315 302/351/315 287/324/315
f 280/325/316 294/350/316 295/352/316
f 288/326/317 302/351/317 303/353/317
f 280/325/318 296/354/318 281/327/318
f 288/326/319 304/339/319 289/328/319
f 282/329/320 296/354/320 297/355/320
f 294/350/321 309/356/321 310/357/321
f 301/349/322 318/358/322 302/351/322
f 295/352/323 310/357/323 311/359/323
f 303/353/324 318/358/324 319/360/324
f 295/352/325 312/361/325 296/354/325
f 303/353/326 320/362/326 304/339/326
f 297/355/327 312/361/327 313/363/327
f 305/340/328 320/362/328 321/364/328
f 297/355/329 314/365/329 298/341/329
f 305/340/330 322/366/330 306/342/330
f 299/343/331 314/365/331 315/367/331
f 306/342/332 323/368/332 307/344/332
f 300/345/333 315/367/333 316/369/333
f 293/347/334 82/370/334 309/356/334
f 308/371/335 307/344/335 323/368/335
f 300/345/336 317/372/336 301/349/336
f 313/363/337 329/373/337 314/365/337
f 321/364/338 337/374/338 322/366/338
f 315/367/339 329/373/339 330/375/339
f 323/368/340 337/374/340 338/376/340
f 316/369/341 330/375/341 331/377/341
f 309/356/342 82/378/342 324/379/342
f 308/380/343 323/368/343 338/376/343
f 316/369/344 332/381/344 317/372/344
f 309/356/345 325/382/345 310/357/345
f 317/372/346 333/383/346 318/358/346
f 310/357/347 326/384/347 311/359/347
f 319/360/348 333/383/348 334/385/348
f 311/359/349 327/386/349 312/361/349
f 319/360/350 335/387/350 320/362/350
f 313/363/351 327/386/351 328/388/351
f 321/364/352 335/387/352 336/389/352
f 332/381/353 348/390/353 333/383/353
f 326/384/354 340/391/354 341/392/354
f 334/385/355 348/390/355 349/393/355
f 326/384/356 342/394/356 327/386/356
f 334/385/357 350/395/357 335/387/357
f 328/388/358 342/394/358 343/396/358
f 336/389/359 350/395/359 351/397/359
f 328/388/360 344/398/360 329/373/360
f 336/389/361 352/399/361 337/374/361
f 330/375/362 344/398/362 345/400/362
f 338/376/363 352/399/363 353/401/363
f 331/377/364 345/400/364 346/402/364
f 324/379/365 82/403/365 339/404/365
f 308/405/366 338/376/366 353/401/366
f 331/377/367 347/406/367 332/381/367
f 324/379/368 340/391/368 325/382/368
f 351/397/369 367/407/369 352/399/369
f 345/400/370 359/408/370 360/409/370
f 353/401/371 367/407/371 368/410/371
f 346/402/372 360/409/372 361/411/372
f 339/404/373 82/412/373 354/413/373
f 308/414/374 353/401/374 368/410/374
f 346/402/375 362/415/375 347/406/375
f 339/404/376 355/416/376 340/391/376
f 347/406/377 363/417/377 348/390/377
f 341/392/378 355/416/378 356/418/378
f 349/393/379 363/417/379 364/419/379
f 341/392/380 357/420/380 342/394/380
f 349/393/381 365/421/381 350/395/381
f 343/396/382 357/420/382 358/422/382
f 351/397/383 365/421/383 366/423/383
f 343/396/384 359/408/384 344/398/384
f 364/424/385 378/425/385 379/426/385
f 356/427/386 372/428/386 357/429/386
f 364/424/387 380/430/387 365/431/387
f 358/432/388 372/428/388 373/433/388
f 366/434/389 380/430/389 381/435/389
f 358/432/390 374/436/390 359/437/390
f 366/434/391 382/438/391 367/439/391
f 360/440/392 374/436/392 375/441/392
f 367/439/393 383/442/393 368/443/393
f 361/444/394 375/441/394 376/445/394
f 354/446/395 82/447/395 369/448/395
f 308/449/396 368/443/396 383/442/396
f 361/444/397 377/450/397 362/451/397
f 355/452/398 369/448/398 370/453/398
f 362/451/399 378/425/399 363/454/399
f 356/427/400 370/453/400 371/455/400
f 382/438/401 398/456/401 383/442/401
f 376/445/402 390/457/402 391/458/402
f 369/448/403 82/459/403 384/460/403
f 308/461/404 383/442/404 398/456/404
f 376/445/405 392/462/405 377/450/405
f 370/453/406 384/460/406 385/463/406
f 377/450/407 393/464/407 378/425/407
f 371/455/408 385/463/408 386/465/408
f 379/426/409 393/464/409 394/466/409
f 371/455/410 387/467/410 372/428/410
f 379/426/411 395/468/411 380/430/411
f 373/433/412 387/467/412 388/469/412
f 381/435/413 395/468/413 396/470/413
f 373/433/414 389/471/414 374/436/414
f 381/435/415 397/472/415 382/438/415
f 375/441/416 389/471/416 390/457/416
f 386/465/417 402/473/417 387/467/417
f 394/466/418 410/474/418 395/468/418
f 388/469/419 402/473/419 403/475/419
f 396/470/420 410/474/420 411/476/420
f 388/469/421 404/477/421 389/471/421
f 396/470/422 412/478/422 397/472/422
f 390/457/423 404/477/423 405/479/423
f 398/456/424 412/478/424 413/480/424
f 391/458/425 405/479/425 406/481/425
f 384/460/426 82/482/426 399/483/426
f 308/484/427 398/456/427 413/480/427
f 391/458/428 407/485/428 392/462/428
f 384/460/429 400/486/429 385/463/429
f 392/462/430 408/487/430 393/464/430
f 386/465/431 400/486/431 401/488/431
f 394/466/432 408/487/432 409/489/432
f 406/481/433 420/490/433 421/491/433
f 399/483/434 82/492/434 414/493/434
f 308/494/435 413/480/435 428/495/435
f 406/481/436 422/496/436 407/485/436
f 399/483/437 415/497/437 400/486/437
f 407/485/438 423/498/438 408/487/438
f 401/488/439 415/497/439 416/499/439
f 409/489/440 423/498/440 424/500/440
f 401/488/441 417/501/441 402/473/441
f 409/489/442 425/502/442 410/474/442
f 403/475/443 417/501/443 418/503/443
f 411/476/444 425/502/444 426/504/444
f 403/475/445 419/505/445 404/477/445
f 411/476/446 427/506/446 412/478/446
f 405/479/447 419/505/447 420/490/447
f 412/478/448 428/495/448 413/480/448
f 424/500/449 440/507/449 425/502/449
f 418/503/450 432/508/450 433/509/450
f 426/504/451 440/507/451 441/510/451
f 418/503/452 434/511/452 419/505/452
f 426/504/453 442/512/453 427/506/453
f 420/490/454 434/511/454 435/513/454
f 428/495/455 442/512/455 443/514/455
f 421/491/456 435/513/456 436/515/456
f 414/493/457 82/516/457 429/517/457
f 308/518/458 428/495/458 443/514/458
f 421/491/459 437/519/459 422/496/459
f 414/493/460 430/520/460 415/497/460
f 422/496/461 438/521/461 423/498/461
f 416/499/462 430/520/462 431/522/462
f 424/500/463 438/521/463 439/523/463
f 416/499/464 432/508/464 417/501/464
f 429/517/465 82/524/465 444/525/465
f 308/526/466 443/514/466 458/527/466
f 436/515/467 452/528/467 437/519/467
f 430/520/468 444/525/468 445/529/468
f 437/519/469 453/530/469 438/521/469
f 431/522/470 445/529/470 446/531/470
f 439/523/471 453/530/471 454/532/471
f 431/522/472 447/533/472 432/508/472
f 439/523/473 455/534/473 440/507/473
f 433/509/474 447/533/474 448/535/474
f 441/510/475 455/534/475 456/536/475
f 433/509/476 449/537/476 434/511/476
f 441/510/477 457/538/477 442/512/477
f 435/513/478 449/537/478 450/539/478
f 442/512/479 458/527/479 443/514/479
f 436/515/480 450/539/480 451/540/480
f 448/535/481 462/541/481 463/542/481
f 456/536/482 470/543/482 471/544/482
f 448/535/483 464/545/483 449/537/483
f 456/536/484 472/546/484 457/538/484
f 450/539/485 464/545/485 465/547/485
f 458/527/486 472/546/486 473/548/486
f 451/540/487 465/547/487 466/549/487
f 444/525/488 82/550/488 459/551/488
f 308/552/489 458/527/489 473/548/489
f 451/540/490 467/553/490 452/528/490
f 444/525/491 460/554/491 445/529/491
f 452/528/492 468/555/492 453/530/492
f 446/531/493 460/554/493 461/556/493
f 454/532/494 468/555/494 469/557/494
f 446/531/495 462/541/495 447/533/495
f 454/532/496 470/543/496 455/534/496
f 466/549/497 5/6/497 467/553/497
f 459/551/498 475/7/498 460/554/498
f 467/553/499 478/11/499 468/555/499
f 461/556/500 475/7/500 1/12/500
f 468/555/501 6/15/501 469/557/501
f 462/541/502 1/12/502 476/16/502
f 469/557/503 479/18/503 470/543/503
f 463/542/504 476/16/504 2/21/504
f 471/544/505 479/18/505 480/23/505
f 464/545/506 2/21/506 477/24/506
f 471/544/507 481/27/507 472/546/507
f 465/547/508 477/24/508 3/28/508
f 472/546/509 482/2/509 473/548/509
f 466/549/510 3/28/510 4/4/510
f 459/551/511 82/558/511 474/31/511
f 308/559/512 473/548/512 482/2/512
f 4/4/2 14/30/2 15/5/2
f 475/7/3 474/31/3 7/8/3
f 5/6/4 15/5/4 16/10/4
f 1/12/5 475/7/5 8/9/5
f 478/11/6 16/10/6 17/14/6
f 476/16/7 1/12/7 9/13/7
f 479/18/8 6/15/8 17/14/8
f 476/16/9 10/17/9 11/20/9
f 479/18/10 18/19/10 19/22/10
f 477/24/11 2/21/11 11/20/11
f 480/23/12 19/22/12 20/26/12
f 3/28/13 477/24/13 12/25/13
f 481/27/14 20/26/14 21/3/14
f 3/28/15 13/29/15 14/30/15
f 20/26/17 35/48/17 36/33/17
f 13/29/18 28/49/18 29/34/18
f 14/30/21 29/34/21 30/38/21
f 7/8/22 22/36/22 23/39/22
f 15/5/23 30/38/23 31/40/23
f 8/9/24 23/39/24 24/41/24
f 17/14/513 16/10/513 31/40/513
f 9/13/26 24/41/26 25/43/26
f 18/19/514 17/14/514 32/42/514
f 10/17/28 25/43/28 26/45/28
f 19/22/29 18/19/29 33/44/29
f 11/20/30 26/45/30 27/47/30
f 20/26/31 19/22/31 34/46/31
f 13/29/32 12/25/32 27/47/32
f 24/41/33 39/66/33 40/50/33
f 33/44/515 32/42/515 47/51/515
f 25/43/35 40/50/35 41/53/35
f 34/46/516 33/44/516 48/52/516
f 26/45/37 41/53/37 42/55/37
f 35/48/517 34/46/517 49/54/517
f 28/49/39 27/47/39 42/55/39
f 36/33/40 35/48/40 50/56/40
f 29/34/41 28/49/41 43/57/41
f 29/34/44 44/59/44 45/63/44
f 22/36/45 37/61/45 38/64/45
f 30/38/46 45/63/46 46/65/46
f 23/39/47 38/64/47 39/66/47
f 32/42/518 31/40/518 46/65/518
f 44/59/49 43/57/49 58/67/49
f 44/59/52 59/68/52 60/73/52
f 37/61/53 52/70/53 53/74/53
f 45/63/54 60/73/54 61/75/54
f 38/64/55 53/74/55 54/76/55
f 47/51/56 46/65/56 61/75/56
f 39/66/57 54/76/57 55/78/57
f 47/51/58 62/77/58 63/79/58
f 41/53/59 40/50/59 55/78/59
f 49/54/519 48/52/519 63/79/519
f 41/53/61 56/80/61 57/82/61
f 50/56/520 49/54/520 64/81/520
f 43/57/63 42/55/63 57/82/63
f 51/58/64 50/56/64 65/83/64
f 62/77/65 77/100/65 78/84/65
f 56/80/66 55/78/66 70/85/66
f 64/81/67 63/79/67 78/84/67
f 56/80/68 71/86/68 72/88/68
f 64/81/69 79/87/69 80/89/69
f 58/67/70 57/82/70 72/88/70
f 65/83/71 80/89/71 81/91/71
f 59/68/72 58/67/72 73/90/72
f 59/68/75 74/92/75 75/96/75
f 53/74/76 52/70/76 67/94/76
f 60/73/77 75/96/77 76/98/77
f 54/76/78 53/74/78 68/97/78
f 62/77/79 61/75/79 76/98/79
f 54/76/80 69/99/80 70/85/80
f 74/92/82 90/115/82 91/103/82
f 67/94/83 83/117/83 84/104/83
f 75/96/521 91/103/521 92/105/521
f 68/97/85 84/104/85 85/106/85
f 77/100/86 76/98/86 92/105/86
f 69/99/87 85/106/87 86/108/87
f 77/100/522 93/107/522 94/109/522
f 71/86/89 70/85/89 86/108/89
f 79/87/523 78/84/523 94/109/523
f 71/86/91 87/110/91 88/112/91
f 80/89/92 79/87/92 95/111/92
f 73/90/524 72/88/524 88/112/524
f 81/91/94 80/89/94 96/113/94
f 74/92/95 73/90/95 89/114/95
f 95/111/525 94/109/525 109/118/525
f 87/110/98 102/134/98 103/120/98
f 95/111/99 110/119/99 111/121/99
f 89/114/100 88/112/100 103/120/100
f 96/113/101 111/121/101 112/123/101
f 90/115/102 89/114/102 104/122/102
f 90/115/105 105/124/105 106/128/105
f 83/117/106 98/126/106 99/129/106
f 91/103/107 106/128/107 107/130/107
f 85/106/108 84/104/108 99/129/108
f 93/107/109 92/105/109 107/130/109
f 85/106/110 100/131/110 101/133/110
f 93/107/526 108/132/526 109/118/526
f 87/110/112 86/108/112 101/133/112
f 98/126/113 113/149/113 114/135/113
f 106/128/527 121/151/527 122/136/527
f 99/129/115 114/135/115 115/137/115
f 108/132/528 107/130/528 122/136/528
f 100/131/117 115/137/117 116/139/117
f 108/132/118 123/138/118 124/140/118
f 102/134/119 101/133/119 116/139/119
f 110/119/120 109/118/120 124/140/120
f 102/134/121 117/141/121 118/143/121
f 111/121/122 110/119/122 125/142/122
f 104/122/123 103/120/123 118/143/123
f 111/121/124 126/144/124 127/146/124
f 105/124/125 104/122/125 119/145/125
f 105/124/128 120/147/128 121/151/128
f 117/141/129 132/167/129 133/152/129
f 125/142/130 140/168/130 141/153/130
f 119/145/131 118/143/131 133/152/131
f 126/144/132 141/153/132 142/155/132
f 120/147/133 119/145/133 134/154/133
f 120/147/136 135/156/136 136/160/136
f 114/135/137 113/149/137 128/158/137
f 121/151/529 136/160/529 137/162/529
f 115/137/139 114/135/139 129/161/139
f 123/138/530 122/136/530 137/162/530
f 115/137/141 130/163/141 131/165/141
f 123/138/142 138/164/142 139/166/142
f 117/141/143 116/139/143 131/165/143
f 125/142/144 124/140/144 139/166/144
f 136/160/145 151/184/145 152/169/145
f 129/161/146 144/185/146 145/170/146
f 138/164/147 137/162/147 152/169/147
f 130/163/148 145/170/148 146/172/148
f 138/164/531 153/171/531 154/173/531
f 132/167/150 131/165/150 146/172/150
f 140/168/532 139/166/532 154/173/532
f 132/167/152 147/174/152 148/176/152
f 141/153/153 140/168/153 155/175/153
f 134/154/154 133/152/154 148/176/154
f 141/153/533 156/177/533 157/179/533
f 135/156/156 134/154/156 149/178/156
f 135/156/159 150/180/159 151/184/159
f 128/158/160 143/182/160 144/185/160
f 156/177/161 155/175/161 170/186/161
f 149/178/162 148/176/162 163/188/162
f 157/179/534 156/177/534 171/187/534
f 150/180/164 149/178/164 164/189/164
f 150/180/167 165/191/167 166/195/167
f 143/182/168 158/193/168 159/196/168
f 151/184/169 166/195/169 167/197/169
f 144/185/170 159/196/170 160/198/170
f 153/171/171 152/169/171 167/197/171
f 145/170/172 160/198/172 161/200/172
f 153/171/535 168/199/535 169/201/535
f 147/174/174 146/172/174 161/200/174
f 155/175/536 154/173/536 169/201/536
f 147/174/176 162/202/176 163/188/176
f 159/196/177 174/219/177 175/203/177
f 168/199/178 167/197/178 182/204/178
f 160/198/179 175/203/179 176/206/179
f 168/199/180 183/205/180 184/207/180
f 162/202/181 161/200/181 176/206/181
f 170/186/182 169/201/182 184/207/182
f 162/202/183 177/208/183 178/210/183
f 171/187/184 170/186/184 185/209/184
f 164/189/185 163/188/185 178/210/185
f 172/190/186 171/187/186 186/211/186
f 165/191/187 164/189/187 179/212/187
f 165/191/190 180/214/190 181/218/190
f 158/193/191 173/216/191 174/219/191
f 166/195/192 181/218/192 182/204/192
f 179/212/193 178/210/193 193/220/193
f 186/211/194 201/236/194 202/222/194
f 180/214/195 179/212/195 194/221/195
f 180/214/198 195/223/198 196/227/198
f 174/219/199 173/216/199 188/225/199
f 181/218/200 196/227/200 197/229/200
f 175/203/201 174/219/201 189/228/201
f 183/205/537 182/204/537 197/229/537
f 175/203/203 190/230/203 191/232/203
f 183/205/538 198/231/538 199/233/538
f 177/208/205 176/206/205 191/232/205
f 185/209/206 184/207/206 199/233/206
f 177/208/207 192/234/207 193/220/207
f 185/209/208 200/235/208 201/236/208
f 198/231/539 197/229/539 212/237/539
f 190/230/210 205/253/210 206/239/210
f 198/231/540 213/238/540 214/240/540
f 192/234/212 191/232/212 206/239/212
f 200/235/541 199/233/541 214/240/541
f 192/234/214 207/241/214 208/243/214
f 201/236/542 200/235/542 215/242/542
f 194/221/543 193/220/543 208/243/543
f 202/222/217 201/236/217 216/244/217
f 195/223/218 194/221/218 209/245/218
f 195/223/221 210/247/221 211/251/221
f 188/225/222 203/249/222 204/252/222
f 196/227/544 211/251/544 212/237/544
f 189/228/224 204/252/224 205/253/224
f 217/246/225 216/244/225 231/254/225
f 210/247/226 209/245/226 224/256/226
f 210/247/229 225/257/229 226/261/229
f 203/249/230 218/259/230 219/262/230
f 211/251/231 226/261/231 227/263/231
f 204/252/232 219/262/232 220/264/232
f 213/238/233 212/237/233 227/263/233
f 205/253/234 220/264/234 221/266/234
f 213/238/235 228/265/235 229/267/235
f 207/241/236 206/239/236 221/266/236
f 215/242/545 214/240/545 229/267/545
f 207/241/238 222/268/238 223/270/238
f 216/244/546 215/242/546 230/269/546
f 209/245/240 208/243/240 223/270/240
f 228/265/241 243/287/241 244/271/241
f 222/268/242 221/266/242 236/272/242
f 230/269/243 229/267/243 244/271/243
f 222/268/244 237/273/244 238/275/244
f 231/254/245 230/269/245 245/274/245
f 224/256/246 223/270/246 238/275/246
f 231/254/247 246/276/247 247/278/247
f 225/257/248 224/256/248 239/277/248
f 225/257/251 240/279/251 241/283/251
f 219/262/252 218/259/252 233/281/252
f 226/261/253 241/283/253 242/285/253
f 219/262/254 234/284/254 235/286/254
f 228/265/255 227/263/255 242/285/255
f 220/264/256 235/286/256 236/272/256
f 240/279/259 255/304/259 256/292/259
f 234/284/260 233/281/260 248/289/260
f 241/283/261 256/292/261 257/294/261
f 235/286/262 234/284/262 249/293/262
f 243/287/263 242/285/263 257/294/263
f 235/286/264 250/295/264 251/297/264
f 243/287/547 258/296/547 259/298/547
f 237/273/266 236/272/266 251/297/266
f 245/274/548 244/271/548 259/298/548
f 237/273/268 252/299/268 253/301/268
f 245/274/269 260/300/269 261/302/269
f 239/277/270 238/275/270 253/301/270
f 246/276/271 261/302/271 262/291/271
f 240/279/272 239/277/272 254/303/272
f 252/299/273 251/297/273 266/305/273
f 260/300/549 259/298/549 274/307/549
f 252/299/275 267/306/275 268/309/275
f 261/302/550 260/300/550 275/308/550
f 254/303/277 253/301/277 268/309/277
f 261/302/551 276/310/551 277/312/551
f 255/304/279 254/303/279 269/311/279
f 255/304/282 270/313/282 271/317/282
f 249/293/283 248/289/283 263/315/283
f 256/292/284 271/317/284 272/319/284
f 249/293/285 264/318/285 265/320/285
f 258/296/286 257/294/286 272/319/286
f 250/295/287 265/320/287 266/305/287
f 258/296/552 273/321/552 274/307/552
f 270/313/289 285/335/289 286/322/289
f 263/315/290 278/337/290 279/323/290
f 271/317/553 286/322/553 287/324/553
f 264/318/292 279/323/292 280/325/292
f 273/321/554 272/319/554 287/324/554
f 265/320/294 280/325/294 281/327/294
f 273/321/555 288/326/555 289/328/555
f 267/306/296 266/305/296 281/327/296
f 275/308/297 274/307/297 289/328/297
f 267/306/298 282/329/298 283/331/298
f 275/308/556 290/330/556 291/332/556
f 269/311/557 268/309/557 283/331/557
f 276/310/558 291/332/558 292/334/558
f 270/313/302 269/311/302 284/333/302
f 290/330/305 289/328/305 304/339/305
f 282/329/306 297/355/306 298/341/306
f 290/330/307 305/340/307 306/342/307
f 284/333/308 283/331/308 298/341/308
f 292/334/309 291/332/309 306/342/309
f 285/335/310 284/333/310 299/343/310
f 285/335/313 300/345/313 301/349/313
f 278/337/314 293/347/314 294/350/314
f 286/322/315 301/349/315 302/351/315
f 280/325/316 279/323/316 294/350/316
f 288/326/559 287/324/559 302/351/559
f 280/325/318 295/352/318 296/354/318
f 288/326/560 303/353/560 304/339/560
f 282/329/320 281/327/320 296/354/320
f 294/350/321 293/347/321 309/356/321
f 301/349/322 317/372/322 318/358/322
f 295/352/323 294/350/323 310/357/323
f 303/353/324 302/351/324 318/358/324
f 295/352/325 311/359/325 312/361/325
f 303/353/326 319/360/326 320/362/326
f 297/355/327 296/354/327 312/361/327
f 305/340/328 304/339/328 320/362/328
f 297/355/329 313/363/329 314/365/329
f 305/340/330 321/364/330 322/366/330
f 299/343/331 298/341/331 314/365/331
f 306/342/332 322/366/332 323/368/332
f 300/345/333 299/343/333 315/367/333
f 300/345/336 316/369/336 317/372/336
f 313/363/337 328/388/337 329/373/337
f 321/364/561 336/389/561 337/374/561
f 315/367/562 314/365/562 329/373/562
f 323/368/563 322/366/563 337/374/563
f 316/369/341 315/367/341 330/375/341
f 316/369/344 331/377/344 332/381/344
f 309/356/345 324/379/345 325/382/345
f 317/372/564 332/381/564 333/383/564
f 310/357/347 325/382/347 326/384/347
f 319/360/348 318/358/348 333/383/348
f 311/359/349 326/384/349 327/386/349
f 319/360/350 334/385/350 335/387/350
f 313/363/351 312/361/351 327/386/351
f 321/364/352 320/362/352 335/387/352
f 332/381/353 347/406/353 348/390/353
f 326/384/354 325/382/354 340/391/354
f 334/385/355 333/383/355 348/390/355
f 326/384/356 341/392/356 342/394/356
f 334/385/357 349/393/357 350/395/357
f 328/388/358 327/386/358 342/394/358
f 336/389/359 335/387/359 350/395/359
f 328/388/360 343/396/360 344/398/360
f 336/389/565 351/397/565 352/399/565
f 330/375/362 329/373/362 344/398/362
f 338/376/566 337/374/566 352/399/566
f 331/377/364 330/375/364 345/400/364
f 331/377/367 346/402/367 347/406/367
f 324/379/368 339/404/368 340/391/368
f 351/397/369 366/423/369 367/407/369
f 345/400/370 344/398/370 359/408/370
f 353/401/371 352/399/371 367/407/371
f 346/402/372 345/400/372 360/409/372
f 346/402/375 361/411/375 362/415/375
f 339/404/376 354/413/376 355/416/376
f 347/406/377 362/415/377 363/417/377
f 341/392/378 340/391/378 355/416/378
f 349/393/567 348/390/567 363/417/567
f 341/392/380 356/418/380 357/420/380
f 349/393/568 364/419/568 365/421/568
f 343/396/382 342/394/382 357/420/382
f 351/397/383 350/395/383 365/421/383
f 343/396/384 358/422/384 359/408/384
f 364/424/569 363/454/569 378/425/569
f 356/427/386 371/455/386 372/428/386
f 364/424/570 379/426/570 380/430/570
f 358/432/388 357/429/388 372/428/388
f 366/434/389 365/431/389 380/430/389
f 358/432/390 373/433/390 374/436/390
f 366/434/391 381/435/391 382/438/391
f 360/440/392 359/437/392 374/436/392
f 367/439/393 382/438/393 383/442/393
f 361/444/394 360/440/394 375/441/394
f 361/444/397 376/445/397 377/450/397
f 355/452/398 354/446/398 369/448/398
f 362/451/399 377/450/399 378/425/399
f 356/427/400 355/452/400 370/453/400
f 382/438/401 397/472/401 398/456/401
f 376/445/402 375/441/402 390/457/402
f 376/445/405 391/458/405 392/462/405
f 370/453/406 369/448/406 384/460/406
f 377/450/407 392/462/407 393/464/407
f 371/455/408 370/453/408 385/463/408
f 379/426/409 378/425/409 393/464/409
f 371/455/410 386/465/410 387/467/410
f 379/426/411 394/466/411 395/468/411
f 373/433/412 372/428/412 387/467/412
f 381/435/571 380/430/571 395/468/571
f 373/433/414 388/469/414 389/471/414
f 381/435/572 396/470/572 397/472/572
f 375/441/416 374/436/416 389/471/416
f 386/465/417 401/488/417 402/473/417
f 394/466/573 409/489/573 410/474/573
f 388/469/419 387/467/419 402/473/419
f 396/470/574 395/468/574 410/474/574
f 388/469/421 403/475/421 404/477/421
f 396/470/575 411/476/575 412/478/575
f 390/457/423 389/471/423 404/477/423
f 398/456/424 397/472/424 412/478/424
f 391/458/425 390/457/425 405/479/425
f 391/458/428 406/481/428 407/485/428
f 384/460/429 399/483/429 400/486/429
f 392/462/430 407/485/430 408/487/430
f 386/465/431 385/463/431 400/486/431
f 394/466/576 393/464/576 408/487/576
f 406/481/433 405/479/433 420/490/433
f 406/481/436 421/491/436 422/496/436
f 399/483/437 414/493/437 415/497/437
f 407/485/438 422/496/438 423/498/438
f 401/488/439 400/486/439 415/497/439
f 409/489/577 408/487/577 423/498/577
f 401/488/441 416/499/441 417/501/441
f 409/489/578 424/500/578 425/502/578
f 403/475/443 402/473/443 417/501/443
f 411/476/444 410/474/444 425/502/444
f 403/475/445 418/503/445 419/505/445
f 411/476/446 426/504/446 427/506/446
f 405/479/447 404/477/447 419/505/447
f 412/478/448 427/506/448 428/495/448
f 424/500/449 439/523/449 440/507/449
f 418/503/450 417/501/450 432/508/450
f 426/504/451 425/502/451 440/507/451
f 418/503/452 433/509/452 434/511/452
f 426/504/453 441/510/453 442/512/453
f 420/490/454 419/505/454 434/511/454
f 428/495/455 427/506/455 442/512/455
f 421/491/456 420/490/456 435/513/456
f 421/491/459 436/515/459 437/519/459
f 414/493/460 429/517/460 430/520/460
f 422/496/461 437/519/461 438/521/461
f 416/499/462 415/497/462 430/520/462
f 424/500/463 423/498/463 438/521/463
f 416/499/464 431/522/464 432/508/464
f 436/515/467 451/540/467 452/528/467
f 430/520/468 429/517/468 444/525/468
f 437/519/579 452/528/579 453/530/579
f 431/522/470 430/520/470 445/529/470
f 439/523/580 438/521/580 453/530/580
f 431/522/472 446/531/472 447/533/472
f 439/523/581 454/532/581 455/534/581
f 433/509/474 432/508/474 447/533/474
f 441/510/475 440/507/475 455/534/475
f 433/509/476 448/535/476 449/537/476
f 441/510/477 456/536/477 457/538/477
f 435/513/582 434/511/582 449/537/582
f 442/512/479 457/538/479 458/527/479
f 436/515/480 435/513/480 450/539/480
f 448/535/481 447/533/481 462/541/481
f 456/536/482 455/534/482 470/543/482
f 448/535/483 463/542/483 464/545/483
f 456/536/583 471/544/583 472/546/583
f 450/539/485 449/537/485 464/545/485
f 458/527/584 457/538/584 472/546/584
f 451/540/487 450/539/487 465/547/487
f 451/540/490 466/549/490 467/553/490
f 444/525/491 459/551/491 460/554/491
f 452/528/492 467/553/492 468/555/492
f 446/531/493 445/529/493 460/554/493
f 454/532/585 453/530/585 468/555/585
f 446/531/495 461/556/495 462/541/495
f 454/532/586 469/557/586 470/543/586
f 466/549/497 4/4/497 5/6/497
f 459/551/498 474/31/498 475/7/498
f 467/553/499 5/6/499 478/11/499
f 461/556/500 460/554/500 475/7/500
f 468/555/501 478/11/501 6/15/501
f 462/541/502 461/556/502 1/12/502
f 469/557/503 6/15/503 479/18/503
f 463/542/504 462/541/504 476/16/504
f 471/544/505 470/543/505 479/18/505
f 464/545/506 463/542/506 2/21/506
f 471/544/587 480/23/587 481/27/587
f 465/547/508 464/545/508 477/24/508
f 472/546/588 481/27/588 482/2/588
f 466/549/510 465/547/510 3/28/510
